# Blender v2.78 (sub 5) OBJ File: 'container.blend'
# www.blender.org
mtllib containerclosed.mtl
o container
v 0.094405 0.025000 0.665871
v 0.331414 0.025000 0.093680
v 0.664912 0.025000 0.097746
v 0.903606 0.025000 0.330689
v 0.899540 0.025000 0.664187
v 0.666597 0.025000 0.902881
v 0.333099 0.025000 0.898815
v 0.499006 0.025000 0.498280
v 0.098471 0.025000 0.332374
v 0.094405 0.889720 0.665871
v 0.331414 0.889720 0.093680
v 0.664912 0.889720 0.097746
v 0.903606 0.889720 0.330689
v 0.899540 0.889718 0.664187
v 0.666597 0.889718 0.902881
v 0.333099 0.889720 0.898815
v 0.098471 0.889720 0.332374
v 0.142546 -0.000000 0.030284
v 0.323620 -0.000000 0.074861
v 0.031009 -0.000000 0.141820
v 0.079842 -0.000000 0.324657
v 0.142543 0.807735 0.030282
v 0.323620 0.807733 0.074861
v 0.079842 0.807733 0.324657
v 0.031007 0.807735 0.141818
v 0.031009 -0.000000 0.854739
v 0.075586 -0.000000 0.673666
v 0.142545 -0.000000 0.966275
v 0.325382 0.000001 0.917444
v 0.031007 0.807735 0.854737
v 0.075586 0.807733 0.673666
v 0.325382 0.807733 0.917444
v 0.142543 0.807735 0.966273
v 0.855465 -0.000000 0.966276
v 0.674392 0.000001 0.921700
v 0.967002 -0.000000 0.854740
v 0.918169 -0.000000 0.671904
v 0.855467 0.807735 0.966278
v 0.674392 0.807733 0.921700
v 0.918169 0.807733 0.671904
v 0.967003 0.807735 0.854742
v 0.967002 -0.000000 0.141820
v 0.922425 -0.000000 0.322894
v 0.855465 -0.000000 0.030284
v 0.672629 -0.000000 0.079117
v 0.967003 0.807735 0.141818
v 0.922425 0.807733 0.322894
v 0.672629 0.807733 0.079117
v 0.855467 0.807735 0.030282
v 0.674392 0.896408 0.921700
v 0.918169 0.896408 0.671904
v 0.922425 0.896408 0.322894
v 0.672629 0.896408 0.079117
v 0.075586 0.896408 0.673666
v 0.325382 0.896408 0.917444
v 0.323620 0.896408 0.074861
v 0.079842 0.896408 0.324657
v 0.331414 0.807735 0.093680
v 0.098471 0.807735 0.332374
v 0.333099 0.807735 0.898815
v 0.094405 0.807735 0.665871
v 0.903606 0.807735 0.330689
v 0.899540 0.807734 0.664187
v 0.664912 0.807735 0.097746
v 0.666597 0.807734 0.902881
vt 0.843750 0.906250
vt 0.843750 0.968750
vt 0.656250 0.968750
vt 0.656250 0.906250
vt 0.656250 0.906250
vt 0.843750 0.906250
vt 0.843750 0.968750
vt 0.656250 0.968750
vt 0.656250 0.906250
vt 0.843750 0.906250
vt 0.843750 0.968750
vt 0.656250 0.968750
vt 0.843750 0.968750
vt 0.656250 0.968750
vt 0.656250 0.906250
vt 0.843750 0.906250
vt 0.843750 0.968750
vt 0.656250 0.968750
vt 0.656250 0.906250
vt 0.843750 0.906250
vt 0.656250 0.906250
vt 0.843750 0.906250
vt 0.843750 0.968750
vt 0.656250 0.968750
vt 0.656250 0.968750
vt 0.656250 0.906250
vt 0.843750 0.906250
vt 0.843750 0.968750
vt 0.656250 0.968750
vt 0.656250 0.906250
vt 0.843750 0.906250
vt 0.843750 0.968750
vt 0.187500 0.437500
vt 0.062500 0.312500
vt 0.281250 0.218750
vt 0.312500 0.937500
vt 0.312500 0.562500
vt 0.468750 0.562500
vt 0.468750 0.937500
vt 0.593750 0.750000
vt 0.593750 0.687500
vt 0.781250 0.687500
vt 0.781250 0.750000
vt 0.093750 0.562500
vt 0.000000 0.562500
vt 0.000000 0.937500
vt 0.093750 0.937500
vt 0.093750 0.562500
vt 0.000000 0.562500
vt 0.000000 0.937500
vt 0.093750 0.937500
vt 0.687500 0.781250
vt 0.781250 0.781250
vt 0.843750 0.875000
vt 0.625000 0.875000
vt 0.093750 0.562500
vt 0.000000 0.562500
vt 0.000000 0.937500
vt 0.093750 0.937500
vt 0.093750 0.562500
vt 0.000000 0.562500
vt 0.000000 0.937500
vt 0.093750 0.937500
vt 0.312500 0.937500
vt 0.312500 0.562500
vt 0.468750 0.562500
vt 0.468750 0.937500
vt 0.593750 0.750000
vt 0.593750 0.687500
vt 0.781250 0.687500
vt 0.781250 0.750000
vt 0.093750 0.562500
vt 0.000000 0.562500
vt 0.000000 0.937500
vt 0.093750 0.937500
vt 0.093750 0.562500
vt 0.000000 0.562500
vt 0.000000 0.937500
vt 0.093750 0.937500
vt 0.687500 0.781250
vt 0.781250 0.781250
vt 0.843750 0.875000
vt 0.625000 0.875000
vt 0.093750 0.562500
vt 0.000000 0.562500
vt 0.000000 0.937500
vt 0.093750 0.937500
vt 0.093750 0.562500
vt 0.000000 0.562500
vt 0.000000 0.937500
vt 0.093750 0.937500
vt 0.062500 0.125000
vt 0.812500 0.375000
vt 0.875000 0.468750
vt 0.625000 0.468750
vt 0.687500 0.375000
vt 0.468750 0.562500
vt 0.468750 0.937500
vt 0.312500 0.937500
vt 0.312500 0.562500
vt 0.468750 0.562500
vt 0.468750 0.937500
vt 0.312500 0.937500
vt 0.312500 0.562500
vt 0.968750 0.812500
vt 0.968750 0.687500
vt 1.000000 0.656250
vt 1.000000 0.843750
vt 0.687500 0.781250
vt 0.781250 0.781250
vt 0.843750 0.875000
vt 0.625000 0.875000
vt 0.843750 0.531250
vt 0.875000 0.500000
vt 0.656250 0.531250
vt 0.625000 0.500000
vt 0.593750 0.750000
vt 0.593750 0.687500
vt 0.781250 0.687500
vt 0.781250 0.750000
vt 0.656250 0.968750
vt 0.843750 0.968750
vt 0.875000 1.000000
vt 0.625000 1.000000
vt 0.687500 0.781250
vt 0.781250 0.781250
vt 0.843750 0.875000
vt 0.625000 0.875000
vt 0.531250 0.687500
vt 0.531250 0.843750
vt 0.500000 0.875000
vt 0.500000 0.656250
vt 0.781250 0.687500
vt 0.781250 0.750000
vt 0.593750 0.750000
vt 0.593750 0.687500
vt 0.187500 -0.000000
vt 0.375000 -0.000000
vt 0.500000 0.125000
vt 0.500000 0.312500
vt 0.375000 0.437500
vt 0.781250 0.750000
vt 0.593750 0.750000
vt 0.593750 0.687500
vt 0.781250 0.687500
vt 0.593750 0.750000
vt 0.593750 0.687500
vt 0.781250 0.687500
vt 0.781250 0.750000
vt 0.781250 0.750000
vt 0.593750 0.750000
vt 0.593750 0.687500
vt 0.781250 0.687500
vt 0.781250 0.750000
vt 0.593750 0.750000
vt 0.593750 0.687500
vt 0.781250 0.687500
vt 0.531250 0.343750
vt 0.531250 0.156250
vt 0.968750 0.156250
vt 0.968750 0.343750
vt 0.531250 0.156250
vt 0.656250 0.000000
vt 0.843750 0.000000
vt 0.968750 0.156250
vt 0.656250 0.000000
vt 0.843750 0.000000
vt 0.812500 0.375000
vt 0.875000 0.468750
vt 0.625000 0.468750
vt 0.687500 0.375000
vt 0.812500 0.375000
vt 0.875000 0.468750
vt 0.625000 0.468750
vt 0.687500 0.375000
vt 0.812500 0.375000
vt 0.875000 0.468750
vt 0.625000 0.468750
vt 0.687500 0.375000
vt 0.250000 0.375000
vt 0.250000 0.031250
vt 0.406250 0.031250
vt 0.406250 0.375000
vt 0.250000 0.375000
vt 0.250000 0.031250
vt 0.406250 0.031250
vt 0.406250 0.375000
vt 0.156250 0.375000
vt 0.156250 0.031250
vt 0.156250 0.031250
vt 0.250000 0.031250
vt 0.250000 0.375000
vt 0.156250 0.375000
vt 0.156250 0.031250
vt 0.250000 0.031250
vt 0.250000 0.375000
vt 0.156250 0.375000
vt 0.250000 0.375000
vt 0.156250 0.375000
vt 0.156250 0.031250
vt 0.250000 0.031250
vt 0.250000 0.031250
vt 0.406250 0.031250
vt 0.406250 0.375000
vt 0.250000 0.375000
vt 0.406250 0.031250
vt 0.406250 0.375000
vt 0.250000 0.375000
vt 0.250000 0.031250
vn 0.7157 -0.0000 0.6984
vn 0.6984 -0.0000 -0.7157
vn 0.9999 -0.0000 0.0122
vn -0.9999 0.0000 -0.0122
vn -0.0122 0.0000 0.9999
vn 0.0122 0.0000 -0.9999
vn -0.7157 0.0000 -0.6984
vn -0.6984 0.0000 0.7157
vn 0.0000 1.0000 -0.0000
vn -0.9661 -0.0000 0.2580
vn 0.2390 -0.0000 -0.9710
vn 0.2580 0.0000 0.9661
vn -0.9710 -0.0000 -0.2391
vn 0.9661 -0.0000 -0.2580
vn -0.2390 -0.0000 0.9710
vn -0.7071 0.0000 0.7071
vn -0.2580 -0.0000 -0.9661
vn 0.9710 -0.0000 0.2390
vn 0.7071 -0.0000 -0.7071
vn 0.0000 -1.0000 0.0000
vn -0.2408 0.9417 -0.2350
vn 0.0041 0.9417 -0.3364
vn 0.2350 0.9417 -0.2408
vn -0.2350 0.9417 0.2408
vn 0.2408 0.9417 0.2350
vn -0.3364 0.9417 -0.0041
vn 0.3364 0.9417 0.0041
vn -0.0041 0.9417 0.3364
vn -0.7071 -0.0000 -0.7071
vn 0.7071 -0.0000 0.7071
usemtl Material
s off
f 58/1/1 11/2/1 17/3/1 59/4/1
f 60/5/2 61/6/2 10/7/2 16/8/2
f 61/9/3 59/10/3 17/11/3 10/12/3
f 62/13/4 63/14/4 14/15/4 13/16/4
f 58/17/5 64/18/5 12/19/5 11/20/5
f 65/21/6 60/22/6 16/23/6 15/24/6
f 65/25/7 15/26/7 14/27/7 63/28/7
f 62/29/8 13/30/8 12/31/8 64/32/8
f 4/33/9 3/34/9 8/35/9
f 19/36/6 23/37/6 48/38/6 45/39/6
f 56/40/7 23/41/7 24/42/7 57/43/7
f 20/44/10 21/45/10 24/46/10 25/47/10
f 19/48/11 18/49/11 22/50/11 23/51/11
f 30/52/9 33/53/9 32/54/9 31/55/9
f 28/56/12 29/57/12 32/58/12 33/59/12
f 27/60/13 26/61/13 30/62/13 31/63/13
f 27/64/4 31/65/4 24/66/4 21/67/4
f 50/68/1 39/69/1 40/70/1 51/71/1
f 36/72/14 37/73/14 40/74/14 41/75/14
f 35/76/15 34/77/15 38/78/15 39/79/15
f 33/59/16 30/62/16 26/61/16 28/56/16
f 46/80/9 49/81/9 48/82/9 47/83/9
f 44/84/17 45/85/17 48/86/17 49/87/17
f 43/88/18 42/89/18 46/90/18 47/91/18
f 49/87/19 46/90/19 42/89/19 44/84/19
f 3/34/9 2/92/9 8/35/9
f 42/93/20 43/94/20 45/95/20 44/96/20
f 32/97/5 29/98/5 35/99/5 39/100/5
f 40/101/3 37/102/3 43/103/3 47/104/3
f 14/105/21 15/106/21 50/107/21 51/108/21
f 38/109/9 41/110/9 40/111/9 39/112/9
f 16/113/22 55/114/22 50/107/22 15/106/22
f 16/113/23 10/115/23 54/116/23 55/114/23
f 52/117/2 47/118/2 48/119/2 53/120/2
f 12/121/24 13/122/24 52/123/24 53/124/24
f 22/125/9 25/126/9 24/127/9 23/128/9
f 17/129/25 11/130/25 56/131/25 57/132/25
f 13/122/26 14/105/26 51/108/26 52/123/26
f 32/133/8 55/134/8 54/135/8 31/136/8
f 17/129/27 57/132/27 54/116/27 10/115/27
f 11/130/28 12/121/28 53/124/28 56/131/28
f 25/47/29 22/50/29 18/49/29 20/44/29
f 41/75/30 38/78/30 34/77/30 36/72/30
f 2/92/9 9/137/9 8/35/9
f 9/137/9 1/138/9 8/35/9
f 1/138/9 7/139/9 8/35/9
f 6/140/9 8/35/9 7/139/9
f 6/140/9 5/141/9 8/35/9
f 5/141/9 4/33/9 8/35/9
f 52/142/3 51/143/3 40/144/3 47/145/3
f 53/146/6 48/147/6 23/148/6 56/149/6
f 54/150/4 57/151/4 24/152/4 31/153/4
f 50/154/5 55/155/5 32/156/5 39/157/5
f 35/158/20 29/159/20 19/160/20 45/161/20
f 45/162/20 43/163/20 37/164/20 35/165/20
f 27/166/20 21/167/20 19/160/20 29/159/20
f 18/168/20 19/169/20 21/170/20 20/171/20
f 26/172/20 27/173/20 29/174/20 28/175/20
f 34/176/20 35/177/20 37/178/20 36/179/20
f 4/180/8 62/181/8 64/182/8 3/183/8
f 6/184/7 65/185/7 63/186/7 5/187/7
f 6/184/6 7/188/6 60/189/6 65/185/6
f 2/190/5 3/191/5 64/192/5 58/193/5
f 4/194/4 5/195/4 63/196/4 62/197/4
f 1/198/3 9/199/3 59/200/3 61/201/3
f 7/202/2 1/203/2 61/204/2 60/205/2
f 2/206/1 58/207/1 59/208/1 9/209/1
o lid
v 0.442597 0.972546 0.361418
v 0.557402 0.972546 0.361418
v 0.638582 0.972546 0.442598
v 0.638582 0.972546 0.557403
v 0.557402 0.972546 0.638582
v 0.442597 0.972546 0.638582
v 0.361418 0.972546 0.557403
v 0.361418 0.972546 0.442598
v 0.379455 0.930469 0.208978
v 0.621769 0.930469 0.206023
v 0.791022 0.930470 0.379455
v 0.793977 0.930469 0.621769
v 0.620545 0.930469 0.791022
v 0.378231 0.930469 0.793977
v 0.208978 0.930470 0.620545
v 0.206023 0.930469 0.378231
v 0.327792 0.965888 0.084254
v 0.670477 0.965888 0.088433
v 0.915746 0.965888 0.327792
v 0.911567 0.965888 0.670477
v 0.672208 0.965888 0.915746
v 0.329523 0.965888 0.911567
v 0.084254 0.965888 0.672208
v 0.088433 0.965888 0.329523
v 0.793977 0.965887 0.621769
v 0.378231 0.965887 0.793977
v 0.620545 0.965887 0.791022
v 0.208978 0.965888 0.620545
v 0.791022 0.965888 0.379455
v 0.621769 0.965887 0.206023
v 0.206023 0.965887 0.378231
v 0.379455 0.965887 0.208978
v 0.557402 0.930470 0.638582
v 0.638582 0.930470 0.557403
v 0.361418 0.930470 0.442598
v 0.442597 0.930470 0.361418
v 0.638582 0.930470 0.442598
v 0.557402 0.930470 0.361418
v 0.442597 0.930470 0.638582
v 0.361418 0.930470 0.557403
v 0.695015 0.996985 0.029192
v 0.303005 0.996985 0.024412
v 0.975588 0.996985 0.303005
v 0.672208 0.885383 0.915746
v 0.911567 0.885383 0.670477
v 0.915746 0.885383 0.327792
v 0.670477 0.885383 0.088433
v 0.084254 0.885383 0.672208
v 0.329523 0.885383 0.911567
v 0.327792 0.885383 0.084254
v 0.088433 0.885383 0.329523
v 0.696995 0.996985 0.975588
v 0.304985 0.996985 0.970808
v 0.024412 0.996985 0.696995
v 0.029192 0.996985 0.304985
v 0.696995 0.952161 0.975588
v 0.304985 0.952161 0.970808
v 0.695015 0.952161 0.029192
v 0.303005 0.952161 0.024412
v 0.975588 0.952161 0.303005
v 0.970808 0.952161 0.695015
v 0.970808 0.996985 0.695015
v 0.024412 0.952161 0.696995
v 0.029192 0.952161 0.304985
v 0.500000 0.972546 0.500000
v 0.500000 0.885383 0.500000
vt 0.125000 0.593750
vt 0.312500 0.593750
vt 0.312500 0.656250
vt 0.125000 0.656250
vt 0.031250 0.062500
vt 0.031250 0.343750
vt -0.000000 0.343750
vt -0.000000 0.062500
vt 0.250000 0.437500
vt 0.437500 0.437500
vt 0.437500 0.468750
vt 0.250000 0.468750
vt 0.125000 0.593750
vt 0.312500 0.593750
vt 0.312500 0.656250
vt 0.125000 0.656250
vt 0.031250 0.312500
vt 0.031250 0.125000
vt 0.062500 0.125000
vt 0.062500 0.312500
vt 0.062500 0.125000
vt 0.062500 0.312500
vt 0.031250 0.312500
vt 0.031250 0.125000
vt 0.062500 0.125000
vt 0.062500 0.312500
vt 0.031250 0.312500
vt 0.031250 0.125000
vt 0.031250 0.312500
vt 0.031250 0.125000
vt 0.062500 0.125000
vt 0.062500 0.312500
vt 0.031250 0.312500
vt 0.031250 0.125000
vt 0.062500 0.125000
vt 0.062500 0.312500
vt 0.031250 0.312500
vt 0.031250 0.125000
vt 0.062500 0.125000
vt 0.062500 0.312500
vt 0.031250 0.312500
vt 0.031250 0.125000
vt 0.062500 0.125000
vt 0.062500 0.312500
vt 0.031250 0.312500
vt 0.031250 0.125000
vt 0.062500 0.125000
vt 0.062500 0.312500
vt 0.687500 0.437500
vt 0.718750 0.343750
vt 0.781250 0.343750
vt 0.812500 0.437500
vt -0.000000 0.343750
vt -0.000000 0.062500
vt 0.031250 0.062500
vt 0.031250 0.343750
vt 0.031250 0.062500
vt 0.031250 0.343750
vt -0.000000 0.343750
vt -0.000000 0.062500
vt 0.250000 0.468750
vt 0.250000 0.437500
vt 0.437500 0.437500
vt 0.437500 0.468750
vt 0.687500 0.031250
vt 0.718750 0.125000
vt 0.687500 0.156250
vt 0.593750 0.125000
vt 0.000000 0.406250
vt 0.031250 0.406250
vt 0.031250 0.500000
vt 0.000000 0.500000
vt 0.000000 0.500000
vt 0.000000 0.406250
vt 0.031250 0.406250
vt 0.031250 0.500000
vt 0.031250 0.406250
vt 0.031250 0.500000
vt 0.000000 0.500000
vt 0.000000 0.406250
vt 0.031250 0.406250
vt 0.031250 0.500000
vt 0.000000 0.500000
vt 0.000000 0.406250
vt 0.031250 0.406250
vt 0.031250 0.500000
vt 0.000000 0.500000
vt 0.000000 0.406250
vt 0.031250 0.406250
vt 0.031250 0.500000
vt 0.000000 0.500000
vt 0.000000 0.406250
vt 0.031250 0.406250
vt 0.031250 0.500000
vt 0.000000 0.500000
vt 0.000000 0.406250
vt 0.031250 0.406250
vt 0.031250 0.500000
vt 0.000000 0.500000
vt 0.000000 0.406250
vt 0.812500 0.656250
vt 0.781250 0.687500
vt 0.750000 0.625000
vt 0.437500 0.437500
vt 0.437500 0.468750
vt 0.250000 0.468750
vt 0.250000 0.437500
vt 0.593750 0.343750
vt 0.687500 0.312500
vt 0.031250 0.062500
vt 0.031250 0.343750
vt -0.000000 0.343750
vt -0.000000 0.062500
vt -0.000000 0.343750
vt -0.000000 0.062500
vt 0.031250 0.062500
vt 0.031250 0.343750
vt -0.000000 0.343750
vt -0.000000 0.062500
vt 0.031250 0.062500
vt 0.031250 0.343750
vt 0.187500 0.437500
vt 0.281250 0.218750
vt 0.375000 0.437500
vt 0.437500 0.437500
vt 0.437500 0.468750
vt 0.250000 0.468750
vt 0.250000 0.437500
vt 0.250000 0.437500
vt 0.437500 0.437500
vt 0.437500 0.468750
vt 0.250000 0.468750
vt 0.437500 0.468750
vt 0.250000 0.468750
vt 0.250000 0.437500
vt 0.437500 0.437500
vt 0.437500 0.437500
vt 0.437500 0.468750
vt 0.250000 0.468750
vt 0.250000 0.437500
vt 0.312500 0.656250
vt 0.125000 0.656250
vt 0.125000 0.593750
vt 0.312500 0.593750
vt 0.125000 0.593750
vt 0.312500 0.593750
vt 0.312500 0.656250
vt 0.125000 0.656250
vt -0.000000 0.343750
vt -0.000000 0.062500
vt 0.031250 0.062500
vt 0.031250 0.343750
vt -0.000000 0.343750
vt -0.000000 0.062500
vt 0.031250 0.062500
vt 0.031250 0.343750
vt 0.125000 0.656250
vt 0.125000 0.593750
vt 0.312500 0.593750
vt 0.312500 0.656250
vt 0.437500 0.437500
vt 0.437500 0.468750
vt 0.250000 0.468750
vt 0.250000 0.437500
vt 0.125000 0.593750
vt 0.312500 0.593750
vt 0.312500 0.656250
vt 0.125000 0.656250
vt 0.312500 0.656250
vt 0.125000 0.656250
vt 0.125000 0.593750
vt 0.312500 0.593750
vt 0.312500 0.593750
vt 0.312500 0.656250
vt 0.125000 0.656250
vt 0.125000 0.593750
vt 0.687500 0.218750
vt 0.593750 0.250000
vt 0.812500 0.312500
vt 0.906250 0.343750
vt 0.906250 0.250000
vt 0.812500 0.218750
vt 0.812500 0.156250
vt 0.906250 0.125000
vt 0.781250 0.125000
vt 0.812500 0.031250
vt 0.187500 -0.000000
vt 0.218750 0.062500
vt 0.125000 0.156250
vt 0.062500 0.125000
vt 0.375000 -0.000000
vt 0.343750 0.062500
vt 0.500000 0.125000
vt 0.437500 0.156250
vt 0.500000 0.312500
vt 0.437500 0.281250
vt 0.375000 0.437500
vt 0.343750 0.375000
vt 0.218750 0.375000
vt 0.187500 0.437500
vt 0.062500 0.312500
vt 0.125000 0.281250
vt 0.500000 0.312500
vt 0.500000 0.125000
vt 0.375000 -0.000000
vt 0.187500 -0.000000
vt 0.062500 0.125000
vt 0.062500 0.312500
vt 0.718750 0.687500
vt 0.687500 0.656250
vt 0.687500 0.593750
vt 0.718750 0.562500
vt 0.781250 0.562500
vt 0.812500 0.593750
vn 0.7464 -0.6655 0.0091
vn 0.4629 0.8864 0.0056
vn -0.7157 0.0000 -0.6984
vn -0.7464 -0.6655 -0.0091
vn 0.0122 0.0000 0.9999
vn -0.7157 0.0000 0.6984
vn -0.9999 0.0000 0.0122
vn -0.6984 0.0000 -0.7157
vn -0.0122 0.0000 -0.9999
vn 0.7157 0.0000 -0.6984
vn 0.9999 0.0000 -0.0122
vn 0.6984 0.0000 0.7157
vn -0.0000 1.0000 -0.0000
vn 0.3234 0.8864 -0.3313
vn 0.3313 0.8864 0.3234
vn 0.6984 0.0000 -0.7157
vn 0.0000 0.0000 -1.0000
vn -0.7071 0.0000 -0.7071
vn -1.0000 0.0000 0.0000
vn -0.7071 0.0000 0.7071
vn -0.0000 -0.0000 1.0000
vn 0.7071 -0.0000 0.7071
vn 1.0000 0.0000 0.0000
vn 0.7071 0.0000 -0.7071
vn -0.6984 0.0000 0.7157
vn 0.0056 0.8864 -0.4629
vn -0.3234 0.8864 0.3313
vn -0.3313 0.8864 -0.3234
vn 0.0000 -1.0000 0.0000
vn -0.0122 0.0000 0.9999
vn 0.9999 0.0000 0.0122
vn 0.0122 0.0000 -0.9999
vn -0.9999 0.0000 -0.0122
vn 0.5342 -0.6655 0.5213
vn -0.5342 -0.6655 -0.5213
vn -0.4629 0.8864 -0.0056
vn -0.0056 0.8864 0.4629
vn -0.5213 -0.6655 0.5342
vn 0.7157 0.0000 0.6984
vn -0.0091 -0.6655 0.7464
vn 0.0091 -0.6655 -0.7464
vn 0.5213 -0.6655 -0.5342
usemtl Material
s off
f 110/210/31 111/211/31 125/212/31 126/213/31
f 88/214/32 89/215/32 120/216/32 119/217/32
f 120/218/33 107/219/33 124/220/33 129/221/33
f 116/222/34 113/223/34 128/224/34 129/225/34
f 74/226/35 75/227/35 95/228/35 97/229/35
f 75/230/36 76/231/36 94/232/36 95/233/36
f 76/234/37 77/235/37 90/236/37 94/237/37
f 77/238/38 78/239/38 92/240/38 90/241/38
f 78/242/39 79/243/39 91/244/39 92/245/39
f 79/246/40 80/247/40 93/248/40 91/249/40
f 80/250/41 81/251/41 96/252/41 93/253/41
f 81/254/42 74/255/42 97/256/42 96/257/42
f 74/258/43 101/259/43 103/260/43 75/261/43
f 119/262/44 118/263/44 87/264/44 88/265/44
f 107/266/45 120/267/45 89/268/45 82/269/45
f 108/270/46 125/271/46 123/272/46 106/273/46
f 79/274/43 104/275/43 105/276/43 80/277/43
f 101/278/47 66/279/47 67/280/47 103/281/47
f 101/282/48 100/283/48 73/284/48 66/285/48
f 72/286/49 73/287/49 100/288/49 105/289/49
f 71/290/50 72/291/50 105/292/50 104/293/50
f 70/294/51 71/295/51 104/296/51 98/297/51
f 69/298/52 70/299/52 98/300/52 99/301/52
f 68/302/53 69/303/53 99/304/53 102/305/53
f 67/306/54 68/307/54 102/308/54 103/309/54
f 73/310/43 72/311/43 130/312/43
f 119/313/55 128/314/55 122/315/55 118/316/55
f 81/317/43 100/318/43 101/259/43 74/258/43
f 86/319/56 87/320/56 118/321/56 117/322/56
f 83/323/57 84/324/57 108/325/57 106/326/57
f 117/327/58 127/328/58 85/329/58 86/330/58
f 114/331/59 131/332/59 109/333/59
f 118/334/60 122/335/60 121/336/60 117/337/60
f 108/338/61 127/339/61 126/340/61 125/341/61
f 107/342/62 106/343/62 123/344/62 124/345/62
f 120/346/63 129/347/63 128/348/63 119/349/63
f 126/350/64 121/351/64 109/352/64 110/353/64
f 129/354/65 124/355/65 115/356/65 116/357/65
f 84/358/66 85/359/66 127/360/66 108/361/66
f 82/362/67 83/363/67 106/364/67 107/365/67
f 128/366/68 113/367/68 114/368/68 122/369/68
f 117/370/69 121/371/69 126/372/69 127/373/69
f 114/374/70 109/375/70 121/376/70 122/377/70
f 112/378/71 115/379/71 124/380/71 123/381/71
f 112/382/72 123/383/72 125/384/72 111/385/72
f 80/277/43 105/276/43 100/386/43 81/387/43
f 75/261/43 103/260/43 102/388/43 76/389/43
f 76/390/43 102/391/43 99/392/43 77/393/43
f 77/393/43 99/392/43 98/394/43 78/395/43
f 78/395/43 98/394/43 104/275/43 79/274/43
f 86/396/43 92/397/43 91/398/43 87/399/43
f 92/397/43 86/396/43 85/400/43 90/401/43
f 90/401/43 85/400/43 84/402/43 94/403/43
f 94/403/43 84/402/43 83/404/43 95/405/43
f 82/406/43 97/407/43 95/405/43 83/404/43
f 96/408/43 97/407/43 82/406/43 89/409/43
f 88/410/43 93/411/43 96/408/43 89/409/43
f 93/411/43 88/410/43 87/399/43 91/398/43
f 131/332/59 110/412/59 109/333/59
f 131/332/59 111/413/59 110/412/59
f 131/332/59 112/414/59 111/413/59
f 131/332/59 115/415/59 112/414/59
f 131/332/59 116/416/59 115/415/59
f 116/416/59 131/332/59 113/417/59
f 131/332/59 114/331/59 113/417/59
f 71/418/43 130/312/43 72/311/43
f 71/418/43 70/419/43 130/312/43
f 70/419/43 69/420/43 130/312/43
f 69/420/43 68/421/43 130/312/43
f 68/421/43 67/422/43 130/312/43
f 67/422/43 66/423/43 130/312/43
f 73/310/43 130/312/43 66/423/43
