# Blender v2.78 (sub 5) OBJ File: 'container.blend'
# www.blender.org
mtllib containeropen.mtl
o container
v 0.094405 0.025000 0.665872
v 0.331414 0.025000 0.093680
v 0.664912 0.025000 0.097746
v 0.903606 0.025000 0.330689
v 0.899540 0.025000 0.664187
v 0.666597 0.025000 0.902881
v 0.333099 0.025000 0.898815
v 0.499006 0.025000 0.498280
v 0.098471 0.025000 0.332374
v 0.094405 0.889720 0.665871
v 0.331415 0.889720 0.093680
v 0.664912 0.889720 0.097746
v 0.903606 0.889720 0.330689
v 0.899540 0.889718 0.664187
v 0.666597 0.889718 0.902881
v 0.333099 0.889720 0.898815
v 0.098471 0.889720 0.332374
v 0.142546 -0.000000 0.030284
v 0.323620 -0.000000 0.074861
v 0.031009 -0.000000 0.141820
v 0.079842 -0.000000 0.324657
v 0.142543 0.807735 0.030282
v 0.323620 0.807733 0.074861
v 0.079842 0.807733 0.324657
v 0.031007 0.807735 0.141818
v 0.031009 -0.000000 0.854739
v 0.075586 -0.000000 0.673666
v 0.142545 -0.000000 0.966275
v 0.325382 0.000001 0.917444
v 0.031007 0.807735 0.854737
v 0.075586 0.807733 0.673666
v 0.325382 0.807733 0.917444
v 0.142543 0.807735 0.966273
v 0.855465 -0.000000 0.966276
v 0.674392 0.000001 0.921700
v 0.967002 -0.000000 0.854740
v 0.918169 -0.000000 0.671904
v 0.855467 0.807735 0.966278
v 0.674392 0.807733 0.921700
v 0.918169 0.807733 0.671904
v 0.967003 0.807735 0.854742
v 0.967002 -0.000000 0.141820
v 0.922425 -0.000000 0.322894
v 0.855465 -0.000000 0.030284
v 0.672629 -0.000000 0.079117
v 0.967003 0.807735 0.141818
v 0.922425 0.807733 0.322894
v 0.672629 0.807733 0.079117
v 0.855467 0.807735 0.030282
v 0.674392 0.896408 0.921700
v 0.918169 0.896408 0.671904
v 0.922425 0.896408 0.322894
v 0.672629 0.896408 0.079117
v 0.075586 0.896408 0.673666
v 0.325382 0.896408 0.917444
v 0.323620 0.896408 0.074861
v 0.079842 0.896408 0.324657
v 0.331414 0.807735 0.093680
v 0.098471 0.807735 0.332374
v 0.333099 0.807735 0.898815
v 0.094405 0.807735 0.665871
v 0.903606 0.807735 0.330689
v 0.899540 0.807734 0.664187
v 0.664912 0.807735 0.097746
v 0.666597 0.807734 0.902881
vt 0.843750 0.906250
vt 0.843750 0.968750
vt 0.656250 0.968750
vt 0.656250 0.906250
vt 0.656250 0.906250
vt 0.843750 0.906250
vt 0.843750 0.968750
vt 0.656250 0.968750
vt 0.656250 0.906250
vt 0.843750 0.906250
vt 0.843750 0.968750
vt 0.656250 0.968750
vt 0.843750 0.968750
vt 0.656250 0.968750
vt 0.656250 0.906250
vt 0.843750 0.906250
vt 0.843750 0.968750
vt 0.656250 0.968750
vt 0.656250 0.906250
vt 0.843750 0.906250
vt 0.656250 0.906250
vt 0.843750 0.906250
vt 0.843750 0.968750
vt 0.656250 0.968750
vt 0.656250 0.968750
vt 0.656250 0.906250
vt 0.843750 0.906250
vt 0.843750 0.968750
vt 0.656250 0.968750
vt 0.656250 0.906250
vt 0.843750 0.906250
vt 0.843750 0.968750
vt 0.187500 0.437500
vt 0.062500 0.312500
vt 0.281250 0.218750
vt 0.312500 0.937500
vt 0.312500 0.562500
vt 0.468750 0.562500
vt 0.468750 0.937500
vt 0.593750 0.750000
vt 0.593750 0.687500
vt 0.781250 0.687500
vt 0.781250 0.750000
vt 0.093750 0.562500
vt 0.000000 0.562500
vt 0.000000 0.937500
vt 0.093750 0.937500
vt 0.093750 0.562500
vt 0.000000 0.562500
vt 0.000000 0.937500
vt 0.093750 0.937500
vt 0.687500 0.781250
vt 0.781250 0.781250
vt 0.843750 0.875000
vt 0.625000 0.875000
vt 0.093750 0.562500
vt 0.000000 0.562500
vt 0.000000 0.937500
vt 0.093750 0.937500
vt 0.093750 0.562500
vt 0.000000 0.562500
vt 0.000000 0.937500
vt 0.093750 0.937500
vt 0.312500 0.937500
vt 0.312500 0.562500
vt 0.468750 0.562500
vt 0.468750 0.937500
vt 0.593750 0.750000
vt 0.593750 0.687500
vt 0.781250 0.687500
vt 0.781250 0.750000
vt 0.093750 0.562500
vt 0.000000 0.562500
vt 0.000000 0.937500
vt 0.093750 0.937500
vt 0.093750 0.562500
vt 0.000000 0.562500
vt 0.000000 0.937500
vt 0.093750 0.937500
vt 0.687500 0.781250
vt 0.781250 0.781250
vt 0.843750 0.875000
vt 0.625000 0.875000
vt 0.093750 0.562500
vt 0.000000 0.562500
vt 0.000000 0.937500
vt 0.093750 0.937500
vt 0.093750 0.562500
vt 0.000000 0.562500
vt 0.000000 0.937500
vt 0.093750 0.937500
vt 0.062500 0.125000
vt 0.812500 0.375000
vt 0.875000 0.468750
vt 0.625000 0.468750
vt 0.687500 0.375000
vt 0.468750 0.562500
vt 0.468750 0.937500
vt 0.312500 0.937500
vt 0.312500 0.562500
vt 0.468750 0.562500
vt 0.468750 0.937500
vt 0.312500 0.937500
vt 0.312500 0.562500
vt 0.968750 0.812500
vt 0.968750 0.687500
vt 1.000000 0.656250
vt 1.000000 0.843750
vt 0.687500 0.781250
vt 0.781250 0.781250
vt 0.843750 0.875000
vt 0.625000 0.875000
vt 0.843750 0.531250
vt 0.875000 0.500000
vt 0.656250 0.531250
vt 0.625000 0.500000
vt 0.593750 0.750000
vt 0.593750 0.687500
vt 0.781250 0.687500
vt 0.781250 0.750000
vt 0.656250 0.968750
vt 0.843750 0.968750
vt 0.875000 1.000000
vt 0.625000 1.000000
vt 0.687500 0.781250
vt 0.781250 0.781250
vt 0.843750 0.875000
vt 0.625000 0.875000
vt 0.531250 0.687500
vt 0.531250 0.843750
vt 0.500000 0.875000
vt 0.500000 0.656250
vt 0.781250 0.687500
vt 0.781250 0.750000
vt 0.593750 0.750000
vt 0.593750 0.687500
vt 0.187500 0.000000
vt 0.375000 0.000000
vt 0.500000 0.125000
vt 0.500000 0.312500
vt 0.375000 0.437500
vt 0.781250 0.750000
vt 0.593750 0.750000
vt 0.593750 0.687500
vt 0.781250 0.687500
vt 0.593750 0.750000
vt 0.593750 0.687500
vt 0.781250 0.687500
vt 0.781250 0.750000
vt 0.781250 0.750000
vt 0.593750 0.750000
vt 0.593750 0.687500
vt 0.781250 0.687500
vt 0.781250 0.750000
vt 0.593750 0.750000
vt 0.593750 0.687500
vt 0.781250 0.687500
vt 0.531250 0.343750
vt 0.531250 0.156250
vt 0.968750 0.156250
vt 0.968750 0.343750
vt 0.531250 0.156250
vt 0.656250 0.000000
vt 0.843750 0.000000
vt 0.968750 0.156250
vt 0.656250 0.000000
vt 0.843750 0.000000
vt 0.812500 0.375000
vt 0.875000 0.468750
vt 0.625000 0.468750
vt 0.687500 0.375000
vt 0.812500 0.375000
vt 0.875000 0.468750
vt 0.625000 0.468750
vt 0.687500 0.375000
vt 0.812500 0.375000
vt 0.875000 0.468750
vt 0.625000 0.468750
vt 0.687500 0.375000
vt 0.281250 0.406250
vt 0.281250 0.062500
vt 0.437500 0.062500
vt 0.437500 0.406250
vt 0.281250 0.406250
vt 0.281250 0.062500
vt 0.437500 0.062500
vt 0.437500 0.406250
vt 0.250000 0.406250
vt 0.156250 0.406250
vt 0.156250 0.062500
vt 0.250000 0.062500
vt 0.156250 0.062500
vt 0.250000 0.062500
vt 0.250000 0.406250
vt 0.156250 0.406250
vt 0.156250 0.062500
vt 0.250000 0.062500
vt 0.250000 0.406250
vt 0.156250 0.406250
vt 0.250000 0.406250
vt 0.156250 0.406250
vt 0.156250 0.062500
vt 0.250000 0.062500
vt 0.281250 0.062500
vt 0.437500 0.062500
vt 0.437500 0.406250
vt 0.281250 0.406250
vt 0.437500 0.062500
vt 0.437500 0.406250
vt 0.281250 0.406250
vt 0.281250 0.062500
vn 0.7157 -0.0000 0.6984
vn 0.6984 0.0000 -0.7157
vn 0.9999 -0.0000 0.0122
vn -0.9999 0.0000 -0.0122
vn -0.0122 0.0000 0.9999
vn 0.0122 0.0000 -0.9999
vn -0.7157 -0.0000 -0.6984
vn -0.6984 0.0000 0.7157
vn 0.0000 1.0000 -0.0000
vn -0.9661 -0.0000 0.2580
vn 0.2390 -0.0000 -0.9710
vn 0.2580 0.0000 0.9661
vn -0.9710 -0.0000 -0.2391
vn 0.9661 -0.0000 -0.2580
vn -0.2390 -0.0000 0.9710
vn -0.7071 0.0000 0.7071
vn -0.2580 -0.0000 -0.9661
vn 0.9710 -0.0000 0.2390
vn 0.7071 -0.0000 -0.7071
vn 0.0000 -1.0000 0.0000
vn -0.2408 0.9417 -0.2350
vn 0.0041 0.9417 -0.3364
vn 0.2350 0.9417 -0.2408
vn -0.2350 0.9417 0.2408
vn 0.2408 0.9417 0.2350
vn -0.3364 0.9417 -0.0041
vn 0.3364 0.9417 0.0041
vn -0.0041 0.9417 0.3364
vn -0.7071 -0.0000 -0.7071
vn 0.7071 -0.0000 0.7071
usemtl Material
s off
f 58/1/1 11/2/1 17/3/1 59/4/1
f 60/5/2 61/6/2 10/7/2 16/8/2
f 61/9/3 59/10/3 17/11/3 10/12/3
f 62/13/4 63/14/4 14/15/4 13/16/4
f 58/17/5 64/18/5 12/19/5 11/20/5
f 65/21/6 60/22/6 16/23/6 15/24/6
f 65/25/7 15/26/7 14/27/7 63/28/7
f 62/29/8 13/30/8 12/31/8 64/32/8
f 4/33/9 3/34/9 8/35/9
f 19/36/6 23/37/6 48/38/6 45/39/6
f 56/40/7 23/41/7 24/42/7 57/43/7
f 20/44/10 21/45/10 24/46/10 25/47/10
f 19/48/11 18/49/11 22/50/11 23/51/11
f 30/52/9 33/53/9 32/54/9 31/55/9
f 28/56/12 29/57/12 32/58/12 33/59/12
f 27/60/13 26/61/13 30/62/13 31/63/13
f 27/64/4 31/65/4 24/66/4 21/67/4
f 50/68/1 39/69/1 40/70/1 51/71/1
f 36/72/14 37/73/14 40/74/14 41/75/14
f 35/76/15 34/77/15 38/78/15 39/79/15
f 33/59/16 30/62/16 26/61/16 28/56/16
f 46/80/9 49/81/9 48/82/9 47/83/9
f 44/84/17 45/85/17 48/86/17 49/87/17
f 43/88/18 42/89/18 46/90/18 47/91/18
f 49/87/19 46/90/19 42/89/19 44/84/19
f 3/34/9 2/92/9 8/35/9
f 42/93/20 43/94/20 45/95/20 44/96/20
f 32/97/5 29/98/5 35/99/5 39/100/5
f 40/101/3 37/102/3 43/103/3 47/104/3
f 14/105/21 15/106/21 50/107/21 51/108/21
f 38/109/9 41/110/9 40/111/9 39/112/9
f 16/113/22 55/114/22 50/107/22 15/106/22
f 16/113/23 10/115/23 54/116/23 55/114/23
f 52/117/2 47/118/2 48/119/2 53/120/2
f 12/121/24 13/122/24 52/123/24 53/124/24
f 22/125/9 25/126/9 24/127/9 23/128/9
f 17/129/25 11/130/25 56/131/25 57/132/25
f 13/122/26 14/105/26 51/108/26 52/123/26
f 32/133/8 55/134/8 54/135/8 31/136/8
f 17/129/27 57/132/27 54/116/27 10/115/27
f 11/130/28 12/121/28 53/124/28 56/131/28
f 25/47/29 22/50/29 18/49/29 20/44/29
f 41/75/30 38/78/30 34/77/30 36/72/30
f 2/92/9 9/137/9 8/35/9
f 9/137/9 1/138/9 8/35/9
f 1/138/9 7/139/9 8/35/9
f 6/140/9 8/35/9 7/139/9
f 6/140/9 5/141/9 8/35/9
f 5/141/9 4/33/9 8/35/9
f 52/142/3 51/143/3 40/144/3 47/145/3
f 53/146/6 48/147/6 23/148/6 56/149/6
f 54/150/4 57/151/4 24/152/4 31/153/4
f 50/154/5 55/155/5 32/156/5 39/157/5
f 35/158/20 29/159/20 19/160/20 45/161/20
f 45/162/20 43/163/20 37/164/20 35/165/20
f 27/166/20 21/167/20 19/160/20 29/159/20
f 18/168/20 19/169/20 21/170/20 20/171/20
f 26/172/20 27/173/20 29/174/20 28/175/20
f 34/176/20 35/177/20 37/178/20 36/179/20
f 4/180/8 62/181/8 64/182/8 3/183/8
f 6/184/7 65/185/7 63/186/7 5/187/7
f 6/188/6 7/189/6 60/190/6 65/191/6
f 2/192/5 3/193/5 64/194/5 58/195/5
f 4/196/4 5/197/4 63/198/4 62/199/4
f 1/200/3 9/201/3 59/202/3 61/203/3
f 7/204/2 1/205/2 61/206/2 60/207/2
f 2/208/1 58/209/1 59/210/1 9/211/1
