# Blender v2.78 (sub 0) OBJ File: 'crank.blend'
# www.blender.org
mtllib crank.mtl
o attachment
v 0.351406 0.351410 0.871525
v 0.648594 0.351410 0.871525
v 0.351406 0.648593 0.871525
v 0.648594 0.648593 0.871525
v 0.351406 0.351410 0.997432
v 0.648594 0.351410 0.997432
v 0.351406 0.648593 0.997432
v 0.648594 0.648593 0.997432
vt 0.5000 0.5000
vt 0.3750 0.5000
vt 0.3750 0.2500
vt 0.5000 0.2500
vt 0.0625 0.9375
vt 0.0625 0.7500
vt 0.2500 0.7500
vt 0.2500 0.9375
vt 0.0625 0.7500
vt 0.2500 0.7500
vt 0.2500 0.9375
vt 0.0625 0.9375
vt 0.3750 0.2500
vt 0.5000 0.2500
vt 0.5000 0.5000
vt 0.3750 0.5000
vt 0.5000 0.5000
vt 0.3750 0.5000
vt 0.3750 0.2500
vt 0.5000 0.2500
vt 0.3750 0.2500
vt 0.5000 0.2500
vt 0.5000 0.5000
vt 0.3750 0.5000
vn 1.0000 0.0000 0.0000
vn 0.0000 -0.0000 -1.0000
vn -0.0000 0.0000 1.0000
vn 0.0000 -1.0000 0.0000
vn 0.0000 1.0000 -0.0000
vn -1.0000 0.0000 -0.0000
usemtl crank
s off
f 4/1/1 8/2/1 6/3/1 2/4/1
f 2/5/2 1/6/2 3/7/2 4/8/2
f 6/9/3 8/10/3 7/11/3 5/12/3
f 2/13/4 6/14/4 5/15/4 1/16/4
f 3/17/5 7/18/5 8/19/5 4/20/5
f 1/21/6 5/22/6 7/23/6 3/24/6
o crank
v 0.433676 0.433678 0.915968
v 0.433676 0.566324 0.915968
v 0.433676 0.433645 0.698973
v 0.433676 0.566324 0.698973
v 0.566324 0.433678 0.915968
v 0.566324 0.566324 0.915968
v 0.566324 0.433653 0.698973
v 0.566324 0.566324 0.698973
v 0.632649 0.632649 0.698973
v 0.632649 0.367358 0.698973
v 0.367352 0.367345 0.698973
v 0.367351 0.632649 0.698973
v 0.632649 0.367358 0.566324
v 0.367351 0.367345 0.566324
v 0.367351 0.632649 0.566324
v 0.632649 0.632649 0.566324
v 0.575578 0.575578 0.566324
v 0.575578 0.424425 0.566324
v 0.424422 0.575578 0.566324
v 0.424422 0.424418 0.566324
v 0.575578 0.424425 0.539795
v 0.424422 0.575578 0.539795
v 0.424422 0.424418 0.539795
v 0.424422 0.575578 0.407146
v 0.424422 0.424418 0.407146
v 0.575596 0.054081 0.539795
v 0.424439 0.054074 0.539795
v 0.575596 0.054081 0.407146
v 0.424439 0.054074 0.407146
v 0.632649 0.367358 0.698973
v 0.367351 0.632649 0.698973
v 0.367351 0.632649 0.566324
v 0.632649 0.367358 0.566324
v 0.424431 0.168375 0.407146
v 0.575578 0.575578 0.539795
v 0.575578 0.575578 0.407146
v 0.575578 0.424425 0.407146
v 0.575587 0.168382 0.407146
v 0.424431 0.168375 0.539795
v 0.575587 0.168382 0.539795
v 0.424431 0.168375 0.035730
v 0.575587 0.168382 0.035730
v 0.575596 0.054081 0.035730
v 0.424439 0.054074 0.035730
vt 0.7500 1.0000
vt 0.7500 0.8125
vt 0.6250 0.8125
vt 0.6250 1.0000
vt 0.8750 0.8125
vt 1.0000 0.8125
vt 1.0000 1.0000
vt 0.8750 1.0000
vt 0.7500 0.2500
vt 0.7500 0.0000
vt 0.8750 0.0000
vt 0.8750 0.2500
vt 0.3750 0.8750
vt 0.3750 0.7500
vt 0.5000 0.7500
vt 0.5000 0.8750
vt 0.0625 0.1875
vt 0.0625 0.0625
vt 0.1250 0.0000
vt 0.1250 0.2500
vt 0.2500 0.5000
vt 0.2500 0.2500
vt 0.2500 0.2500
vt 0.1875 0.3125
vt 0.1875 0.4375
vt 0.7500 0.8125
vt 0.8750 0.8125
vt 0.8750 1.0000
vt 0.7500 1.0000
vt 0.3750 0.1250
vt 0.3125 0.1875
vt 0.1875 0.1875
vt 0.1250 0.1250
vt 0.6250 0.2500
vt 0.6250 -0.0000
vt 0.7500 -0.0000
vt 0.7500 0.6250
vt 0.6250 0.6250
vt 0.6250 0.8125
vt 0.8750 0.6250
vt 1.0000 0.6250
vt 1.0000 0.8125
vt 0.8750 0.8125
vt 0.3750 0.6250
vt 0.2500 0.6250
vt 0.2500 0.5625
vt 0.3750 0.5625
vt 0.8750 0.1250
vt 0.8750 0.0000
vt 1.0000 0.0000
vt 1.0000 0.1250
vt 0.7500 0.4375
vt 0.6250 0.4375
vt 0.6250 0.3125
vt 0.7500 0.3125
vt 0.6250 0.2500
vt 0.5000 0.2500
vt 0.5000 0.1250
vt 0.6250 0.1250
vt 0.8750 0.6875
vt 0.8750 0.8125
vt 0.7500 0.8125
vt 0.7500 0.6875
vt 0.8750 0.5000
vt 0.8750 0.6875
vt 0.7500 0.6875
vt 0.7500 0.5000
vt 0.0000 0.6250
vt 0.1250 0.6250
vt 0.1250 0.6875
vt -0.0000 0.6875
vt 0.1875 0.1250
vt 0.1875 0.0000
vt 0.3125 0.0000
vt 0.3125 0.1250
vt 0.7500 0.3125
vt 0.6250 0.3125
vt 0.6250 0.2500
vt 0.7500 0.2500
vt 0.3750 0.7500
vt 0.3750 0.6875
vt 0.5000 0.6875
vt 0.5000 0.7500
vt 0.5000 0.5000
vt 0.5000 0.6875
vt 0.3750 0.6875
vt 0.3750 0.5000
vt 0.8750 0.3125
vt 1.0000 0.3125
vt 0.5000 1.0000
vt 0.3750 1.0000
vt 0.3750 0.8750
vt 0.5000 0.8750
vt 1.0000 0.3750
vt 0.8750 0.3750
vt 0.8750 0.5000
vt 0.7500 0.5000
vt 0.7500 0.3750
vt 0.8750 0.3750
vt 0.6250 1.0000
vt 0.5000 1.0000
vt 0.5000 0.7500
vt 0.6250 0.7500
vt 0.7500 0.3750
vt 0.7500 0.2500
vt 0.8750 0.2500
vt 0.8750 0.3750
vt 0.6250 0.7500
vt 0.5000 0.7500
vt 0.5000 0.5000
vt 0.6250 0.5000
vt 0.6250 0.0000
vt 0.6250 0.1250
vt 0.3125 0.1250
vt 0.3125 0.0000
vt 0.5000 0.2500
vt 0.6250 0.2500
vt 0.6250 0.5000
vt 0.1250 0.2500
vt 0.1250 0.2500
vt 0.0625 0.3125
vt 0.0625 0.4375
vt 0.1250 0.5000
vt 0.1250 0.4375
vt 0.1250 0.3125
vt 0.1250 0.3125
vt 0.1875 0.2500
vt 0.1875 0.5000
vt 0.1250 0.2500
vt 0.3750 0.2500
vt 0.3125 0.1875
vt 0.1875 0.1875
vt -0.0000 0.3125
vt -0.0000 0.4375
vt 0.0625 0.5000
vt 0.0625 0.2500
vt 0.0000 0.1875
vt 0.0625 0.2500
vt 0.0625 0.0000
vt 0.0000 0.0625
vt 0.0000 0.0625
vt 0.0000 0.8750
vt 0.1250 0.8750
vt 0.1250 1.0000
vt 0.0000 1.0000
vt 0.7500 0.6250
vt 0.6250 0.6250
vt 0.6250 0.5000
vt 0.6250 0.4375
vt 0.7500 0.4375
vt 0.7500 0.5000
vn -1.0000 0.0000 0.0000
vn 0.0000 1.0000 0.0000
vn 1.0000 0.0000 -0.0000
vn -0.0000 0.0000 1.0000
vn 0.0000 0.0000 -1.0000
vn 0.0000 -1.0000 0.0001
vn 0.0000 -1.0000 -0.0000
vn -1.0000 -0.0001 -0.0000
vn 1.0000 0.0001 -0.0000
usemtl crank
s off
f 11/25/7 9/26/7 10/27/7 12/28/7
f 10/29/8 14/30/8 16/31/8 12/32/8
f 17/33/9 38/34/9 41/35/9 24/36/9
f 16/37/9 14/38/9 13/39/9 15/40/9
f 15/41/10 11/42/10 19/43/10 18/44/10
f 38/45/10 17/46/10 16/47/10 15/48/10 18/49/10
f 22/50/7 19/51/7 20/52/7 40/53/7
f 24/54/11 25/55/11 27/56/11 40/57/11
f 17/33/8 24/58/8 40/59/8 20/60/8
f 11/61/12 15/62/12 13/63/12 9/26/12
f 47/64/10 48/65/10 29/66/10 31/67/10
f 28/68/7 27/69/7 30/70/7 31/71/7
f 33/72/11 32/73/11 44/74/11 45/75/11
f 31/76/7 30/77/7 32/78/7 33/79/7
f 34/80/13 35/81/13 37/82/13 36/83/13
f 32/84/8 30/85/8 43/86/8 44/87/8
f 46/88/9 45/89/9 29/90/9 48/91/9
f 27/92/8 25/93/8 43/94/8 30/95/8
f 44/96/9 43/97/9 29/98/9 45/99/9
f 29/100/9 43/101/9 25/102/9 26/103/9
f 28/104/13 31/105/13 29/106/13 26/107/13
f 47/108/7 31/109/7 33/110/7 42/111/7
f 42/112/11 33/72/11 45/75/11 46/113/11
f 35/114/14 47/115/14 42/116/14 37/117/14
f 34/118/10 48/65/10 47/64/10 35/119/10
f 36/120/15 46/121/15 48/122/15 34/123/15
f 36/124/13 37/125/13 52/126/13 51/127/13
f 49/128/11 50/129/11 51/130/11 52/131/11
f 42/132/8 46/133/8 50/134/8 49/135/8
f 37/136/14 42/137/14 49/138/14 52/139/14
f 46/140/15 36/141/15 51/142/15 50/134/15
f 41/143/11 21/144/11 26/145/11 25/146/11 24/147/11
f 11/148/10 12/149/10 39/150/10 20/151/10 19/152/10
f 22/153/11 40/154/11 27/155/11 28/156/11
f 22/157/11 28/158/11 26/159/11 21/160/11
f 19/161/13 22/162/13 21/163/13 41/164/13 38/165/13 18/166/13
f 12/167/10 16/168/10 17/169/10 20/170/10 39/171/10
f 13/172/10 14/173/10 10/174/10 9/175/10
l 17 39
l 23 40
