# Blender v2.78 (sub 5) OBJ File: 'crank.blend'
# www.blender.org
mtllib crank.mtl
o attachment
v 0.351406 0.351410 0.871525
v 0.648594 0.351410 0.871525
v 0.351406 0.648593 0.871525
v 0.648594 0.648593 0.871525
v 0.351406 0.351410 0.997432
v 0.648594 0.351410 0.997432
v 0.351406 0.648593 0.997432
v 0.648594 0.648593 0.997432
vt 0.125000 0.937500
vt 0.000000 0.937500
vt 0.000000 0.687500
vt 0.125000 0.687500
vt -0.000000 1.000000
vt -0.000000 0.687500
vt 0.312500 0.687500
vt 0.312500 1.000000
vt 0.312500 0.687500
vt 0.312500 1.000000
vt -0.000000 1.000000
vt 0.000000 0.250000
vt 0.125000 0.250000
vt 0.125000 0.500000
vt 0.000000 0.500000
vt 0.187500 0.500000
vt -0.000000 0.500000
vt -0.000000 0.250000
vt 0.187500 0.250000
vt 0.000000 0.250000
vt 0.125000 0.250000
vt 0.125000 0.500000
vt 0.000000 0.500000
vn 1.0000 0.0000 0.0000
vn 0.0000 -0.0000 -1.0000
vn -0.0000 0.0000 1.0000
vn 0.0000 -1.0000 0.0000
vn 0.0000 1.0000 -0.0000
vn -1.0000 0.0000 -0.0000
usemtl Material
s off
f 4/1/1 8/2/1 6/3/1 2/4/1
f 2/5/2 1/6/2 3/7/2 4/8/2
f 6/3/3 8/9/3 7/10/3 5/11/3
f 2/12/4 6/13/4 5/14/4 1/15/4
f 3/16/5 7/17/5 8/18/5 4/19/5
f 1/20/6 5/21/6 7/22/6 3/23/6
o crank
v 0.433676 0.433678 0.915968
v 0.433676 0.566324 0.915968
v 0.433676 0.433645 0.698973
v 0.433676 0.566324 0.698973
v 0.566324 0.433678 0.915968
v 0.566324 0.566324 0.915968
v 0.566324 0.433653 0.698973
v 0.566324 0.566324 0.698973
v 0.632649 0.632649 0.698973
v 0.632649 0.367358 0.698973
v 0.367352 0.367345 0.698973
v 0.367351 0.632649 0.698973
v 0.632649 0.367358 0.566324
v 0.367351 0.367345 0.566324
v 0.367351 0.632649 0.566324
v 0.632649 0.632649 0.566324
v 0.575578 0.575578 0.566324
v 0.575578 0.424425 0.566324
v 0.424422 0.575578 0.566324
v 0.424422 0.424418 0.566324
v 0.575578 0.424425 0.539795
v 0.424422 0.575578 0.539795
v 0.424422 0.424418 0.539795
v 0.424422 0.575578 0.407146
v 0.424422 0.424418 0.407146
v 0.575596 0.054081 0.539795
v 0.424439 0.054074 0.539795
v 0.575596 0.054081 0.407146
v 0.424439 0.054074 0.407146
v 0.632649 0.367358 0.698973
v 0.367351 0.632649 0.698973
v 0.367351 0.632649 0.566324
v 0.632649 0.367358 0.566324
v 0.424431 0.168375 0.407146
v 0.575578 0.575578 0.539795
v 0.575578 0.575578 0.407146
v 0.575578 0.424425 0.407146
v 0.575587 0.168382 0.407146
v 0.424431 0.168375 0.539795
v 0.575587 0.168382 0.539795
v 0.424431 0.168375 0.035730
v 0.575587 0.168382 0.035730
v 0.575596 0.054081 0.035730
v 0.424439 0.054074 0.035730
vt 0.750000 1.000000
vt 0.625000 1.000000
vt 0.625000 0.812500
vt 0.750000 0.812500
vt 0.875000 0.812500
vt 1.000000 0.812500
vt 1.000000 1.000000
vt 0.875000 1.000000
vt 0.750000 0.250000
vt 0.750000 0.000000
vt 0.875000 0.000000
vt 0.875000 0.250000
vt 0.375000 0.875000
vt 0.375000 0.750000
vt 0.500000 0.750000
vt 0.500000 0.875000
vt 0.187500 0.125000
vt 0.312500 0.125000
vt 0.375000 0.187500
vt 0.125000 0.187500
vt 0.312500 0.250000
vt 0.187500 0.250000
vt 0.125000 0.187500
vt 0.375000 0.187500
vt -0.000000 0.187500
vt -0.000000 0.062500
vt 0.062500 0.000000
vt 0.062500 0.250000
vt 0.125000 0.062500
vt 0.125000 0.187500
vt 0.062500 0.250000
vt 0.062500 -0.000000
vt 0.875000 0.812500
vt 0.875000 1.000000
vt 0.750000 1.000000
vt 0.750000 0.812500
vt 0.750000 0.625000
vt 0.625000 0.812500
vt 0.625000 0.625000
vt 0.750000 0.437500
vt 0.750000 0.625000
vt 0.625000 0.625000
vt 0.625000 0.437500
vt 0.187500 0.250000
vt 0.187500 0.500000
vt 0.125000 0.437500
vt 0.125000 0.312500
vt 0.750000 0.000000
vt 0.750000 0.187500
vt 0.625000 0.187500
vt 0.625000 0.000000
vt 0.062500 0.250000
vt 0.062500 0.500000
vt 0.000000 0.437500
vt 0.000000 0.312500
vt 0.062500 0.500000
vt 0.062500 0.250000
vt 0.125000 0.437500
vt 0.187500 0.500000
vt 0.250000 0.437500
vt 0.250000 0.312500
vt 0.187500 0.250000
vt 0.875000 0.625000
vt 1.000000 0.625000
vt 1.000000 0.812500
vt 0.875000 0.812500
vt 0.750000 0.312500
vt 0.625000 0.312500
vt 0.625000 0.250000
vt 0.750000 0.250000
vt 0.875000 0.125000
vt 0.875000 0.000000
vt 1.000000 0.000000
vt 1.000000 0.125000
vt 0.750000 0.437500
vt 0.625000 0.437500
vt 0.625000 0.312500
vt 0.750000 0.312500
vt 0.625000 0.250000
vt 0.500000 0.250000
vt 0.500000 0.125000
vt 0.625000 0.125000
vt 0.875000 0.687500
vt 0.875000 0.812500
vt 0.750000 0.812500
vt 0.750000 0.687500
vt 0.875000 0.500000
vt 0.875000 0.687500
vt 0.750000 0.687500
vt 0.750000 0.500000
vt 1.000000 0.375000
vt 0.875000 0.375000
vt 0.875000 0.312500
vt 1.000000 0.312500
vt 0.187500 0.125000
vt 0.187500 0.000000
vt 0.312500 0.000000
vt 0.312500 0.125000
vt 0.750000 0.250000
vt 0.625000 0.250000
vt 0.625000 0.187500
vt 0.750000 0.187500
vt 0.375000 0.750000
vt 0.375000 0.687500
vt 0.500000 0.687500
vt 0.500000 0.750000
vt 0.500000 0.500000
vt 0.500000 0.687500
vt 0.375000 0.687500
vt 0.375000 0.500000
vt 0.875000 0.312500
vt 1.000000 0.312500
vt 0.500000 1.000000
vt 0.375000 1.000000
vt 0.375000 0.875000
vt 0.500000 0.875000
vt 1.000000 0.375000
vt 0.875000 0.375000
vt 0.875000 0.500000
vt 0.750000 0.500000
vt 0.750000 0.375000
vt 0.875000 0.375000
vt 0.625000 1.000000
vt 0.500000 1.000000
vt 0.500000 0.750000
vt 0.625000 0.750000
vt 0.750000 0.375000
vt 0.750000 0.250000
vt 0.875000 0.250000
vt 0.875000 0.375000
vt 0.625000 0.750000
vt 0.500000 0.750000
vt 0.500000 0.500000
vt 0.625000 0.500000
vt 0.625000 0.000000
vt 0.625000 0.125000
vt 0.312500 0.125000
vt 0.312500 0.000000
vt 0.500000 0.250000
vt 0.625000 0.250000
vt 0.625000 0.500000
vn 1.0000 0.0000 0.0000
vn 0.0000 1.0000 0.0000
vn -0.0000 0.0000 1.0000
vn -1.0000 -0.0000 -0.0000
vn -0.0000 1.0000 -0.0001
vn 0.0000 -1.0000 0.0000
vn 0.0000 0.0000 -1.0000
vn -1.0000 -0.0001 -0.0000
vn 1.0000 0.0001 -0.0000
usemtl Material
s off
f 11/24/7 12/25/7 10/26/7 9/27/7
f 10/28/8 14/29/8 16/30/8 12/31/8
f 17/32/7 38/33/7 41/34/7 24/35/7
f 16/36/7 14/37/7 13/38/7 15/39/7
f 15/40/9 11/41/9 19/42/9 18/43/9
f 16/44/9 15/45/9 38/46/9 17/47/9
f 11/48/9 12/49/9 39/50/9 19/51/9
f 12/52/9 16/53/9 17/54/9 20/55/9
f 19/56/10 39/57/10 40/58/10 22/59/10
f 11/60/11 9/27/11 13/61/11 15/62/11
f 18/63/12 19/64/12 22/65/12 21/66/12
f 22/67/13 40/68/13 27/69/13 28/70/13
f 20/71/8 17/72/8 24/73/8 23/74/8
f 23/75/13 24/76/13 25/77/13 27/78/13
f 21/79/13 22/80/13 28/70/13 26/81/13
f 41/82/13 26/83/13 25/84/13 24/85/13
f 47/86/9 48/87/9 29/88/9 31/89/9
f 28/90/10 27/91/10 30/92/10 31/93/10
f 33/94/13 32/95/13 44/96/13 45/97/13
f 31/98/10 30/99/10 32/100/10 33/101/10
f 34/102/12 35/103/12 37/104/12 36/105/12
f 32/106/8 30/107/8 43/108/8 44/109/8
f 46/110/7 45/111/7 29/112/7 48/113/7
f 27/114/8 25/115/8 43/116/8 30/117/8
f 44/118/7 43/119/7 29/120/7 45/121/7
f 29/122/7 43/123/7 25/124/7 26/125/7
f 28/126/12 31/127/12 29/128/12 26/129/12
f 47/130/10 31/131/10 33/132/10 42/133/10
f 42/134/13 33/94/13 45/97/13 46/135/13
f 35/136/14 47/137/14 42/138/14 37/139/14
f 34/140/9 48/87/9 47/86/9 35/141/9
f 36/142/15 46/143/15 48/144/15 34/145/15
f 36/146/12 37/147/12 52/148/12 51/149/12
f 49/150/13 50/151/13 51/152/13 52/153/13
f 42/154/8 46/155/8 50/156/8 49/157/8
f 37/158/14 42/159/14 49/160/14 52/161/14
f 46/162/15 36/163/15 51/164/15 50/156/15
