# Blender v2.78 (sub 5) OBJ File: 'infuser.blend'
# www.blender.org
mtllib infuser.mtl
o back
v 0.100000 1.900000 0.200000
v 0.100000 1.000000 1.800000
v 0.100000 1.900000 1.800000
v 0.100000 1.000000 0.200000
v -0.000000 1.000000 1.800000
v -0.000000 1.000000 0.200000
v -0.000000 1.900000 0.200000
v 0.000000 1.900000 1.800000
vt 0.218750 0.507812
vt 0.015625 0.507812
vt 0.015625 0.617188
vt 0.218750 0.617188
vt 0.218750 0.507812
vt 0.218750 0.617188
vt 0.015625 0.617188
vt 0.015625 0.507812
vt 0.203125 0.507812
vt 0.203125 0.617188
vt 0.031250 0.617188
vt 0.031250 0.507812
vt 0.218750 0.601562
vt 0.015625 0.601562
vt 0.015625 0.523438
vt 0.218750 0.523438
vn 1.0000 -0.0000 -0.0000
vn -1.0000 0.0000 0.0000
vn 0.0000 0.0000 1.0000
vn 0.0000 0.0000 -1.0000
vn 0.0000 1.0000 0.0000
vn 0.0000 -1.0000 0.0000
usemtl infuser
s off
f 2/1/1 4/2/1 1/3/1 3/4/1
f 5/5/2 8/6/2 7/7/2 6/8/2
f 2/9/3 3/10/3 8/6/3 5/5/3
f 1/11/4 4/12/4 6/8/4 7/7/4
f 3/13/5 1/14/5 7/7/5 8/6/5
f 4/15/6 2/16/6 5/5/6 6/8/6
o base
v 1.000000 1.900000 1.800000
v 1.000000 1.000000 0.200001
v 0.000000 1.000000 1.800000
v 0.000000 2.000000 0.000000
v 0.100000 0.700000 1.600000
v 0.100000 0.199999 0.400000
v 0.100000 0.199999 1.600000
v 0.000000 0.000000 0.000000
v 0.000000 0.000000 2.000000
v 1.000000 0.000000 2.000000
v 1.000000 0.100000 0.200000
v 1.000000 0.800000 1.800000
v 1.000000 0.800000 0.200000
v 0.800000 0.100000 1.800000
v 0.800000 0.700000 0.400000
v 0.800000 0.100000 0.200000
v 1.000000 1.000000 1.800000
v 1.000000 1.000000 2.000000
v 1.000000 1.000000 0.000000
v 0.000000 1.000000 0.200001
v 1.000000 1.900000 0.200001
v 0.000000 1.000000 0.000000
v 1.000000 2.000000 1.999999
v 1.000000 2.000000 0.000000
v 0.000000 2.000000 1.999999
v 0.800000 0.699999 0.200000
v 0.800000 0.700000 1.600000
v 0.100000 0.700000 0.400000
v 0.800000 0.199999 0.400000
v 0.800000 0.199999 1.600000
v 1.000000 0.000000 0.000000
v 1.000000 0.100000 0.000000
v 0.000000 1.000000 2.000000
v 0.800000 0.200002 0.200000
v 1.000000 0.700000 0.300000
v 1.000000 0.100000 1.800000
v 1.000000 0.100000 2.000000
v 0.800000 0.200002 1.800000
v 0.000000 0.000000 0.200000
v 0.000000 0.100000 0.000000
v 0.000000 0.000000 1.800000
v 0.000000 0.100000 1.800000
v 0.000000 0.100000 0.200000
v 1.000000 0.800000 0.000000
v 0.000000 0.100000 2.000000
v 0.800000 0.100000 0.400000
v 0.800000 0.100000 1.600000
v 1.000000 0.000000 0.200000
v 1.000000 0.000000 1.800000
v 1.000000 0.100000 1.600000
v 1.000000 0.100000 0.400000
v 1.000000 0.000000 0.400000
v 1.000000 0.000000 1.600000
v 0.800000 0.800000 1.600000
v 0.800000 0.800000 0.400000
v 1.000000 0.700000 1.800000
v 1.000000 0.200000 1.800000
v 1.000000 0.700000 2.000000
v 1.000000 0.800000 2.000000
v 1.000000 0.200000 2.000000
v 1.000000 0.700000 0.200000
v 1.000000 0.200000 0.200000
v 1.000000 0.700000 0.000000
v 1.000000 0.200000 0.000000
v 0.000000 0.000000 0.400000
v 0.000000 0.000000 1.600000
v 0.000000 0.200000 2.000000
v 0.000000 0.700000 2.000000
v 0.000000 0.800000 2.000000
v 0.000000 0.800000 1.800000
v 0.000000 0.200000 1.800000
v 0.000000 0.700000 1.800000
v 0.000000 0.700000 0.200000
v 0.000000 0.200000 0.200000
v 0.000000 0.800000 0.200001
v 0.000000 0.800000 1.600000
v 0.000000 0.700000 0.000000
v 0.000000 0.800000 0.000000
v 0.000000 0.200000 0.000000
v 0.000000 0.100000 0.400000
v 0.000000 0.100000 1.600000
v 0.000000 0.200000 1.600000
v 0.000000 0.200000 0.400000
v 0.000000 0.700000 0.400000
v 0.000000 0.700000 1.600000
v 0.000000 0.800000 0.400000
v 0.000000 1.000000 1.600000
v 0.000000 1.000000 0.400000
v 1.000000 0.800000 0.400000
v 1.000000 0.800000 1.600000
v 1.000000 1.000000 1.600001
v 1.000000 1.000000 0.400001
v 1.000000 2.000000 0.200000
v 0.000000 1.900000 1.800000
v 1.000000 2.000000 1.800000
v 0.000000 1.900000 1.999999
v 0.000000 1.900000 0.000000
v 0.000000 1.900000 0.200000
v 0.000000 2.000000 1.800000
v 1.000000 1.900000 0.000000
v 1.000000 1.900000 1.999999
v 0.000000 2.000000 0.200000
v 0.800000 0.699999 1.800000
v 0.800000 0.700000 1.700000
v 0.800000 0.200000 1.700000
v 1.000000 1.000000 1.700000
v 0.000000 0.000000 1.700000
v 1.000000 0.000000 1.700000
v 0.000000 0.800000 1.700000
v 0.000000 0.100000 1.700000
v 0.000000 0.200000 1.700000
v 0.000000 0.700000 1.700000
v 0.000000 1.000000 1.700000
v 0.800000 0.100000 1.700000
v 1.000000 0.100000 1.700000
v 0.800000 0.800000 1.700000
v 0.800000 0.700000 1.700000
v 0.800000 0.800000 1.700000
v 0.999172 0.700000 1.700000
v 0.999172 0.800000 1.700000
v 1.000000 0.700000 1.700000
v 1.000000 0.800000 1.700000
v 0.800000 0.800000 0.300000
v 0.800000 0.200000 0.300000
v 0.000000 1.000000 0.300001
v 0.800000 0.700000 0.300000
v 0.000000 0.100000 0.300000
v 1.000000 0.000000 0.300000
v 0.000000 0.000000 0.300000
v 0.000000 0.200000 0.300000
v 0.000000 0.700000 0.300000
v 0.000000 0.800000 0.300000
v 1.000000 0.800000 0.300000
v 1.000000 1.000000 0.300001
v 0.800000 0.100000 0.300000
v 1.000000 0.100000 0.300000
vt 0.468750 0.242188
vt 0.468750 0.187500
vt 0.398438 0.187500
vt 0.398438 0.242188
vt 0.507812 0.242188
vt 0.617188 0.242188
vt 0.617188 0.179688
vt 0.507812 0.179688
vt 0.468750 0.242188
vt 0.468750 0.187500
vt 0.398438 0.187500
vt 0.398438 0.242188
vt 0.492188 0.125000
vt 0.382812 0.125000
vt 0.382812 0.187500
vt 0.492188 0.187500
vt 0.507812 0.179688
vt 0.617188 0.179688
vt 0.617188 0.125000
vt 0.507812 0.125000
vt 0.273438 0.375000
vt 0.273438 0.250000
vt 0.250000 0.250000
vt 0.250000 0.375000
vt 0.203125 0.015625
vt 0.203125 0.031250
vt 0.226562 0.031250
vt 0.226562 0.015625
vt 0.375000 0.031250
vt 0.375000 0.015625
vt 0.250000 0.015625
vt 0.250000 0.031250
vt 0.046875 0.085938
vt 0.070312 0.085938
vt 0.070312 0.031250
vt 0.046875 0.031250
vt 0.226562 0.085938
vt 0.226562 0.031250
vt 0.250000 0.031250
vt 0.250000 0.085938
vt 0.000000 0.125000
vt 0.000000 0.101562
vt 0.023438 0.101562
vt 0.023438 0.125000
vt 0.000000 0.085938
vt 0.023438 0.085938
vt 0.000000 0.031250
vt 0.023438 0.031250
vt -0.000000 0.015625
vt 0.023438 0.015625
vt 0.023438 -0.000000
vt 0.000000 0.000000
vt 0.046875 0.015625
vt 0.046875 -0.000000
vt 0.070312 -0.000000
vt 0.070312 0.015625
vt 0.046875 0.031250
vt 0.070312 0.031250
vt 0.046875 0.085938
vt 0.070312 0.085938
vt 0.179688 0.015625
vt 0.179688 0.031250
vt 0.179688 -0.000000
vt 0.179688 0.085938
vt 0.203125 0.031250
vt 0.203125 0.015625
vt 0.203125 -0.000000
vt 0.226562 -0.000000
vt 0.226562 0.015625
vt 0.046875 0.101562
vt 0.070312 0.101562
vt 0.179688 0.101562
vt 0.179688 0.125000
vt 0.070312 0.125000
vt 0.046875 0.125000
vt 0.250000 0.101562
vt 0.226562 0.101562
vt 0.226562 0.085938
vt 0.250000 0.085938
vt 0.203125 0.085938
vt 0.203125 0.101562
vt 0.226562 0.125000
vt 0.250000 0.125000
vt 0.203125 0.125000
vt 0.226562 0.031250
vt 0.250000 0.031250
vt 0.250000 0.015625
vt 0.250000 -0.000000
vt 0.023438 0.375000
vt 0.023438 0.250000
vt 0.226562 0.250000
vt 0.226562 0.375000
vt 0.250000 0.250000
vt 0.250000 0.375000
vt 0.250000 0.250000
vt 0.226562 0.250000
vt 0.226562 0.234375
vt 0.250000 0.234375
vt 0.000000 0.375000
vt 0.000000 0.250000
vt 0.375000 0.234375
vt 0.375000 0.250000
vt 0.250000 0.234375
vt 0.250000 0.125000
vt 0.375000 0.125000
vt 0.375000 0.234375
vt 0.023438 0.250000
vt 0.023438 0.234375
vt 0.226562 0.234375
vt 0.226562 0.250000
vt 0.023438 0.250000
vt 0.023438 0.234375
vt 0.250000 0.101562
vt 0.375000 0.101562
vt 0.375000 0.125000
vt 0.250000 0.125000
vt 0.375000 0.101562
vt 0.375000 0.085938
vt 0.250000 0.085938
vt 0.250000 0.101562
vt 0.375000 0.031250
vt 0.250000 0.031250
vt 0.250000 0.015625
vt 0.375000 0.015625
vt 0.250000 0.000000
vt 0.250000 0.015625
vt 0.375000 0.015625
vt 0.375000 0.000000
vt -0.000000 0.085938
vt 0.023438 0.085938
vt 0.023438 0.031250
vt -0.000000 0.031250
vt -0.000000 0.101562
vt 0.023438 0.101562
vt 0.000000 0.125000
vt 0.023438 0.125000
vt 0.023438 0.101562
vt 0.046875 0.101562
vt 0.046875 0.125000
vt 0.023438 0.125000
vt 0.179688 0.101562
vt 0.070312 0.101562
vt 0.070312 0.125000
vt 0.179688 0.125000
vt 0.203125 0.125000
vt 0.226562 0.125000
vt 0.226562 0.101562
vt 0.203125 0.101562
vt 0.023438 0.101562
vt 0.023438 0.125000
vt 0.000000 0.125000
vt 0.000000 0.101562
vt 0.250000 0.085938
vt 0.226562 0.085938
vt 0.226562 0.101562
vt 0.250000 0.101562
vt 0.250000 0.031250
vt 0.226562 0.031250
vt 0.250000 0.000000
vt 0.250000 0.015625
vt 0.226562 0.015625
vt 0.226562 0.000000
vt 0.554688 0.125000
vt 0.554688 0.101562
vt 0.531250 0.101562
vt 0.531250 0.125000
vt 0.226562 0.031250
vt 0.226562 0.015625
vt 0.203125 0.015625
vt 0.203125 0.031250
vt 0.226562 0.015625
vt 0.250000 0.015625
vt 0.250000 -0.000000
vt 0.226562 -0.000000
vt 0.203125 -0.000000
vt 0.203125 0.015625
vt 0.070312 -0.000000
vt 0.070312 0.015625
vt 0.179688 0.015625
vt 0.179688 -0.000000
vt 0.421875 0.125000
vt 0.421875 0.101562
vt 0.179688 0.031250
vt 0.179688 0.015625
vt 0.070312 0.015625
vt 0.203125 0.031250
vt 0.179688 0.031250
vt 0.179688 0.015625
vt 0.203125 0.015625
vt 0.398438 0.125000
vt 0.398438 0.101562
vt 0.046875 0.015625
vt 0.070312 0.015625
vt 0.070312 -0.000000
vt 0.046875 -0.000000
vt 0.023438 -0.000000
vt 0.000000 -0.000000
vt 0.000000 0.015625
vt 0.023438 0.015625
vt 0.070312 0.101562
vt 0.179688 0.101562
vt 0.179688 0.085938
vt 0.179688 0.101562
vt 0.203125 0.101562
vt 0.203125 0.085938
vt 0.179688 0.085938
vt 0.250000 0.101562
vt 0.250000 0.125000
vt 0.375000 0.125000
vt 0.375000 0.101562
vt 0.250000 0.085938
vt 0.375000 0.085938
vt 0.023438 -0.000000
vt -0.000000 -0.000000
vt -0.000000 0.015625
vt 0.023438 0.015625
vt 0.375000 0.000000
vt 0.250000 0.000000
vt 0.296875 0.375000
vt 0.296875 0.250000
vt 0.320312 0.250000
vt 0.320312 0.375000
vt 0.429688 0.375000
vt 0.429688 0.250000
vt 0.453125 0.250000
vt 0.453125 0.375000
vt 0.476562 0.375000
vt 0.476562 0.250000
vt 0.500000 0.375000
vt 0.500000 0.250000
vt 0.531250 0.101562
vt 0.421875 0.101562
vt 0.421875 0.125000
vt 0.531250 0.125000
vt 0.375000 0.031250
vt 0.375000 0.015625
vt 0.398438 0.015625
vt 0.398438 0.031250
vt 0.226562 0.085938
vt 0.203125 0.085938
vt 0.000000 0.250000
vt 0.000000 0.234375
vt 0.023438 0.234375
vt 0.023438 0.250000
vt -0.000000 0.234375
vt 0.375000 0.234375
vt 0.250000 0.234375
vt 0.250000 0.125000
vt 0.375000 0.125000
vt 0.000000 0.125000
vt 0.023438 0.125000
vt 0.023438 0.234375
vt 0.000000 0.234375
vt 0.250000 0.234375
vt 0.375000 0.234375
vt 0.375000 0.250000
vt -0.000000 0.234375
vt -0.000000 0.250000
vt 0.328125 0.375000
vt 0.328125 0.500000
vt 0.242188 0.500000
vt 0.242188 0.375000
vt 0.343750 0.500000
vt 0.343750 0.390625
vt 0.562500 0.390625
vt 0.562500 0.500000
vt 0.242188 0.375000
vt 0.242188 0.500000
vt 0.328125 0.500000
vt 0.328125 0.375000
vt 0.226562 0.234375
vt 0.226562 0.125000
vt 0.250000 0.234375
vt 0.250000 0.250000
vt 0.218750 0.375000
vt 0.218750 0.507812
vt 0.203125 0.507812
vt 0.203125 0.375000
vt 0.039062 0.507812
vt 0.039062 0.375000
vt 0.023438 0.375000
vt 0.023438 0.507812
vt 0.015625 0.507812
vt 0.015625 0.375000
vt 0.226562 0.375000
vt 0.226562 0.507812
vt 0.375000 0.125000
vt 0.375000 0.101562
vt 0.226562 0.031250
vt 0.226562 0.015625
vt 0.070312 0.101562
vt 0.070312 0.125000
vt 0.070312 0.085938
vt 0.046875 0.085938
vt 0.046875 0.101562
vt 0.070312 0.101562
vt 0.023438 0.085938
vt 0.046875 0.085938
vt 0.046875 0.101562
vt 0.023438 0.101562
vt 0.023438 0.085938
vt 0.046875 0.085938
vt 0.046875 0.085938
vt 0.070312 0.085938
vt 0.070312 0.101562
vt 0.046875 0.101562
vt 0.023438 0.085938
vt 0.046875 0.101562
vt 0.023438 0.101562
vt 0.203125 0.031250
vt 0.203125 0.085938
vt 0.023438 0.031250
vt 0.046875 0.031250
vt 0.046875 0.085938
vt 0.226562 0.101562
vt 0.203125 0.101562
vt 0.203125 0.125000
vt 0.226562 0.125000
vt 0.203125 -0.000000
vt 0.179688 -0.000000
vt 0.179688 0.015625
vt 0.203125 0.015625
vt 0.203125 0.031250
vt 0.203125 0.015625
vt 0.179688 0.015625
vt 0.179688 0.031250
vt 0.578125 0.125000
vt 0.578125 0.101562
vt 0.203125 0.125000
vt 0.226562 0.125000
vt 0.226562 0.101562
vt 0.203125 0.101562
vt 0.250000 0.085938
vt 0.250000 0.031250
vt 0.250000 0.085938
vt 0.250000 0.101562
vt 0.226562 0.101562
vt 0.226562 0.085938
vt 0.226562 0.085938
vt 0.203125 0.085938
vt 0.226562 0.085938
vt 0.226562 0.101562
vt 0.203125 0.101562
vn 0.0000 0.0000 1.0000
vn 0.0000 -1.0000 0.0000
vn 0.0000 0.0000 -1.0000
vn -0.0000 1.0000 -0.0000
vn 1.0000 0.0000 0.0000
vn -1.0000 0.0000 0.0000
usemtl infuser
s off
f 37/17/7 23/18/7 36/19/7 14/20/7
f 23/21/8 35/22/8 13/23/8 36/24/8
f 35/25/9 38/26/9 15/27/9 13/28/9
f 38/29/10 37/30/10 14/31/10 15/32/10
f 15/33/11 14/34/11 36/35/11 13/36/11
f 49/37/8 57/38/8 18/39/8 17/40/8
f 19/41/7 70/42/7 42/43/7 24/44/7
f 75/45/7 53/46/7 45/47/7 68/48/7
f 134/49/11 23/50/11 37/51/11 132/52/11
f 112/53/11 113/54/11 38/55/11 35/56/11
f 30/57/12 86/58/12 83/59/12 28/60/12
f 83/59/12 86/58/12 85/61/12 81/62/12
f 81/62/12 85/61/12 87/63/12 82/64/12
f 48/65/12 51/66/12 82/64/12 87/63/12
f 47/67/12 51/66/12 48/65/12 16/68/12
f 135/69/12 137/70/12 73/71/12 88/72/12
f 138/73/12 135/69/12 88/72/12 91/74/12
f 139/75/12 138/73/12 91/74/12 92/76/12
f 88/72/12 89/77/12 90/78/12 91/74/12
f 73/71/12 74/79/12 89/77/12 88/72/12
f 91/74/12 90/78/12 93/80/12 92/76/12
f 119/81/12 90/78/12 89/77/12 118/82/12
f 115/83/12 49/84/12 50/85/12 118/82/12
f 140/86/12 139/75/12 92/76/12 94/87/12
f 92/76/12 93/80/12 84/88/12 94/87/12
f 84/88/12 95/89/12 96/90/12 94/87/12
f 140/86/12 133/91/12 28/60/12 83/59/12
f 77/92/12 78/93/12 80/94/12 76/95/12
f 120/96/12 93/80/12 90/78/12 119/81/12
f 120/96/12 117/97/12 84/88/12 93/80/12
f 11/98/12 78/93/12 77/92/12 41/99/12
f 117/97/12 121/100/12 95/89/12 84/88/12
f 76/95/12 80/94/12 79/101/12 75/102/12
f 79/101/12 50/85/12 53/103/12 75/102/12
f 17/104/12 53/103/12 50/85/12 49/84/12
f 107/105/10 103/106/10 101/107/10 110/108/10
f 110/108/10 101/107/10 32/109/10 12/110/10
f 33/111/12 107/112/12 102/113/12 104/114/12
f 107/105/10 33/115/10 31/116/10 103/106/10
f 104/114/7 109/117/7 31/118/7 33/111/7
f 26/119/7 109/120/7 104/121/7 41/122/7
f 29/123/11 101/124/11 103/125/11 9/126/11
f 107/112/12 110/127/12 106/128/12 102/113/12
f 41/99/12 104/114/12 102/113/12 11/98/12
f 30/129/9 27/130/9 52/131/9 86/132/9
f 52/133/9 71/134/9 85/135/9 86/136/9
f 71/134/9 72/137/9 87/138/9 85/135/9
f 48/139/9 87/138/9 72/137/9 40/140/9
f 40/141/9 39/142/9 16/143/9 48/144/9
f 64/145/11 66/146/11 68/147/11 65/148/11
f 20/149/11 67/150/11 66/146/11 64/145/11
f 25/151/11 26/152/11 67/150/11 20/149/11
f 20/153/11 130/154/11 114/155/11 25/156/11
f 98/157/11 97/158/11 100/159/11 99/160/11
f 142/161/11 100/162/11 97/163/11 141/164/11
f 52/165/11 27/166/11 10/167/11 21/168/11
f 69/169/11 71/170/11 52/171/11 21/172/11
f 70/173/11 72/174/11 71/170/11 69/169/11
f 39/175/11 40/176/11 19/177/11 56/178/11
f 144/179/10 143/180/10 54/181/10 59/182/10
f 132/183/11 143/184/11 24/185/11 42/186/11
f 72/187/11 70/188/11 19/189/11 40/190/11
f 136/191/11 56/178/11 19/177/11 144/192/11
f 60/193/11 59/194/11 58/195/11 61/196/11
f 58/197/10 59/182/10 54/181/10 55/198/10
f 38/199/11 55/200/11 54/201/11 37/51/11
f 113/202/11 46/203/11 22/204/11 122/205/11
f 123/206/10 58/197/10 55/198/10 122/207/10
f 44/208/11 45/209/11 18/210/11 57/211/11
f 116/212/11 61/213/11 58/214/11 123/215/11
f 23/50/11 63/216/11 62/217/11 35/218/11
f 131/219/11 63/220/11 23/221/11 134/222/11
f 67/223/7 26/224/7 41/225/7 77/226/7
f 66/227/7 67/223/7 77/226/7 76/228/7
f 68/48/7 66/227/7 76/228/7 75/45/7
f 45/229/11 44/230/11 65/231/11 68/232/11
f 17/233/7 18/234/7 45/47/7 53/46/7
f 115/235/8 116/236/8 57/38/8 49/37/8
f 61/237/8 74/238/8 73/239/8 60/240/8
f 136/241/8 137/242/8 47/243/8 56/244/8
f 16/245/8 39/246/8 56/244/8 47/243/8
f 62/247/8 63/248/8 97/249/8 98/250/8
f 65/251/9 44/252/9 22/253/9 46/254/9
f 34/255/7 42/43/7 70/42/7 69/256/7
f 106/257/12 110/258/12 12/259/12 105/260/12
f 28/60/12 106/128/12 105/261/12 30/57/12
f 27/262/9 30/263/9 105/264/9 108/265/9
f 108/266/11 29/267/11 10/268/11 27/269/11
f 108/270/9 105/271/9 12/272/9 32/109/9
f 32/273/11 101/124/11 29/123/11 108/274/11
f 28/275/7 10/276/7 29/277/7 106/278/7
f 106/279/8 29/280/8 9/281/8 102/282/8
f 11/283/9 102/284/9 9/285/9 25/286/9
f 26/119/11 25/287/11 9/288/11 109/120/11
f 31/289/11 109/290/11 9/126/11 103/125/11
f 121/291/10 114/292/10 99/293/10 95/294/10
f 95/294/10 99/293/10 100/295/10 96/296/10
f 133/297/10 142/298/10 10/299/10 28/300/10
f 11/301/10 25/302/10 114/292/10 121/291/10
f 74/238/8 61/237/8 116/236/8 115/235/8
f 57/211/11 116/212/11 123/215/11 44/208/11
f 44/303/10 123/206/10 122/207/10 22/304/10
f 38/305/11 113/202/11 122/205/11 55/306/11
f 130/154/11 98/307/11 99/308/11 114/155/11
f 78/93/12 11/98/12 121/100/12 117/97/12
f 80/94/12 78/93/12 117/97/12 120/96/12
f 80/94/12 120/96/12 119/81/12 79/101/12
f 74/79/12 115/83/12 118/82/12 89/77/12
f 79/101/12 119/81/12 118/82/12 50/85/12
f 125/309/9 126/310/9 128/311/9 127/312/9
f 20/153/11 64/313/11 129/314/11 130/154/11
f 98/315/8 130/316/8 126/317/8 62/318/8
f 125/319/11 35/320/11 62/321/11 126/322/11
f 111/323/8 125/319/8 129/324/8 64/325/8
f 46/326/11 113/54/11 112/53/11 111/327/11
f 64/313/9 65/328/9 46/329/9 111/330/9
f 96/296/10 100/295/10 142/298/10 133/297/10
f 63/331/8 131/332/8 141/333/8 97/334/8
f 60/240/8 73/239/8 137/242/8 136/241/8
f 60/335/11 136/336/11 144/337/11 59/338/11
f 37/339/11 54/340/11 143/341/11 132/342/11
f 19/343/10 24/344/10 143/180/10 144/179/10
f 10/345/11 142/346/11 141/347/11 21/348/11
f 94/87/12 96/90/12 133/91/12 140/86/12
f 83/59/12 81/62/12 139/75/12 140/86/12
f 81/62/12 82/64/12 138/73/12 139/75/12
f 82/64/12 51/66/12 135/69/12 138/73/12
f 51/66/12 47/67/12 137/70/12 135/69/12
f 34/255/11 134/349/11 132/350/11 42/43/11
f 43/351/8 134/352/8 34/353/8 69/354/8
f 21/172/11 141/347/11 43/355/11 69/169/11
f 43/356/7 141/357/7 131/358/7 134/359/7
l 124 62
