# Blender v2.78 (sub 5) OBJ File: 'infuser_door.blend'
# www.blender.org
mtllib infuser_door.mtl
o infuser_door
v 0.993204 0.677000 1.769999
v 0.993204 0.727000 1.769999
v 0.893204 0.727000 1.769999
v 0.893204 0.677000 1.769999
v 0.893204 0.727000 0.169999
v 0.893204 0.677000 0.169999
v 0.993204 0.727000 0.169999
v 0.893204 0.057000 0.294999
v 0.893204 0.677000 0.294999
v 0.893204 0.677000 1.644999
v 0.993204 0.677000 0.294999
v 0.993204 0.157000 0.294999
v 0.993204 0.677000 1.644999
v 0.993204 0.157000 1.644999
v 0.893204 0.057000 1.644999
v 0.993204 0.677000 0.169999
v 0.893204 0.547000 1.307499
v 0.893204 0.547000 0.632499
v 0.993204 0.547000 0.632499
v 0.993204 0.547000 1.307499
v 0.893204 0.547000 0.294999
v 0.893204 0.547000 1.476249
v 0.893204 0.547000 0.463749
v 0.993204 0.547000 0.463749
v 0.993204 0.547000 1.476249
v 0.893204 0.254500 1.307499
v 0.893204 0.547000 1.054379
v 0.893204 0.547000 0.379374
v 0.893204 0.547000 0.716874
v 0.993204 0.254500 0.632499
v 0.993204 0.547000 0.885624
v 0.993204 0.547000 1.560624
v 0.993204 0.547000 1.223124
v 0.993204 0.254500 1.307499
v 0.893204 0.254500 0.632499
v 0.993204 0.547000 1.644999
v 0.893204 0.547000 1.223124
v 0.893204 0.547000 1.560624
v 0.893204 0.547000 0.885624
v 0.993204 0.547000 0.716874
v 0.993204 0.547000 0.379374
v 0.993204 0.547000 1.054374
v 0.993204 0.547000 0.294999
v 0.993204 0.254500 0.463749
v 0.993204 0.254500 0.294999
v 0.893204 0.254500 1.644999
v 0.893204 0.254500 1.476249
v 0.993204 0.254500 1.476249
v 0.893204 0.254500 0.463749
v 0.893204 0.254500 0.379374
v 0.993204 0.254500 1.560624
v 0.893204 0.254500 0.294999
v 0.893204 0.547000 1.644999
v 0.993204 0.254500 0.716874
v 0.993204 0.254500 0.885624
v 0.893204 0.254500 1.223124
v 0.893204 0.254500 1.054374
v 0.893204 0.254500 1.560624
v 0.993204 0.254500 0.379374
v 0.993204 0.254500 1.644999
v 0.993204 0.254500 1.054379
v 0.993204 0.254500 1.223124
v 0.893204 0.254500 0.885619
v 0.893204 0.254500 0.716879
v 0.993204 0.727000 1.307499
v 0.893204 0.727000 1.307499
v 0.893204 0.057000 0.463749
v 0.993204 0.727000 1.560629
v 0.893204 0.727000 1.560629
v 0.893204 0.057000 0.379379
v 0.993204 0.727000 1.054379
v 0.893204 0.727000 1.054379
v 0.893204 0.057000 1.054379
v 0.993204 0.727000 1.644999
v 0.893204 0.727000 1.644999
v 0.893204 0.057000 1.223119
v 0.993204 0.727000 1.223129
v 0.893204 0.727000 1.223129
v 0.893204 0.057000 0.716879
v 0.993204 0.727000 1.476249
v 0.893204 0.727000 1.476249
v 0.893204 0.057000 0.885619
v 0.893204 0.727000 0.632499
v 0.893204 0.677000 0.632499
v 0.893204 0.677000 1.307499
v 0.893204 0.677000 1.476249
v 0.893204 0.677000 0.463749
v 0.893204 0.677000 0.885619
v 0.893204 0.677000 1.560629
v 0.893204 0.677000 0.379374
v 0.893204 0.677000 1.054374
v 0.893204 0.677000 0.716879
v 0.893204 0.677000 1.223124
v 0.993204 0.677000 1.307499
v 0.993204 0.677000 0.632499
v 0.993204 0.677000 1.476249
v 0.993204 0.677000 0.463749
v 0.993204 0.677000 1.560629
v 0.993204 0.677000 0.885624
v 0.993204 0.677000 1.223124
v 0.993204 0.677000 0.716874
v 0.993204 0.677000 1.054374
v 0.993204 0.677000 0.379374
v 0.893204 0.727000 0.379379
v 0.893204 0.727000 0.885618
v 0.893204 0.727000 0.716879
v 0.893204 0.727000 0.463749
v 0.893204 0.727000 0.294999
v 0.993204 0.727000 0.632499
v 0.993204 0.727000 0.379379
v 0.993204 0.727000 0.885621
v 0.993204 0.727000 0.463749
v 0.993204 0.727000 0.716879
v 0.993204 0.727000 0.294999
v 0.893204 0.057000 0.632499
v 0.993204 0.157000 0.716879
v 0.993204 0.157000 1.054379
v 0.993204 0.157000 0.463749
v 0.993204 0.157000 1.223119
v 0.993204 0.157000 0.632499
v 0.993204 0.157000 0.885619
v 0.993204 0.157000 0.379379
v 0.893204 0.057000 1.476249
v 0.993204 0.157000 1.476249
v 0.893204 0.057000 1.560629
v 0.993204 0.157000 1.560629
v 0.893204 0.057000 1.307499
v 0.993204 0.157000 1.307499
v 0.893204 0.157000 1.644999
v 0.893204 0.157000 0.294999
v 0.893204 0.157000 0.379377
v 0.893204 0.157000 0.463749
v 0.893204 0.157000 0.632499
v 0.893204 0.157000 0.716879
v 0.893204 0.157000 0.885619
v 0.893204 0.157000 1.054377
v 0.893204 0.157000 1.223122
v 0.893204 0.157000 1.307499
v 0.893204 0.157000 1.476249
v 0.893204 0.157000 1.560627
vt 0.804688 0.093750
vt 0.820312 0.093750
vt 0.820312 0.101562
vt 0.804688 0.101562
vt 0.804688 0.101562
vt 0.789062 0.101562
vt 0.789062 0.093750
vt 0.804688 0.093750
vt 0.804688 0.101562
vt 0.804688 0.093750
vt 0.789062 0.093750
vt 0.789062 0.101562
vt 0.804688 0.093750
vt 0.804688 0.101562
vt 0.804688 0.093750
vt 0.820312 0.093750
vt 0.820312 0.101562
vt 0.804688 0.101562
vt 0.781250 0.023438
vt 0.796875 0.023438
vt 0.796875 0.070312
vt 0.781250 0.070312
vt 0.742188 0.093750
vt 0.742188 0.070312
vt 0.757812 0.070312
vt 0.757812 0.093750
vt 0.898438 0.015625
vt 0.898438 -0.000000
vt 0.914062 -0.000000
vt 0.914062 0.015625
vt 0.773438 0.101562
vt 0.757812 0.101562
vt 0.757812 0.085938
vt 0.773438 0.085938
vt 0.773438 0.085938
vt 0.773438 0.101562
vt 0.757812 0.101562
vt 0.757812 0.085938
vt 0.781250 0.070312
vt 0.796875 0.070312
vt 0.796875 0.023438
vt 0.781250 0.023438
vt 0.796875 0.070312
vt 0.796875 0.023438
vt 0.781250 0.023438
vt 0.781250 0.070312
vt 0.757812 0.085938
vt 0.773438 0.085938
vt 0.773438 0.101562
vt 0.757812 0.101562
vt 0.757812 0.101562
vt 0.757812 0.085938
vt 0.773438 0.085938
vt 0.773438 0.101562
vt 0.796875 0.070312
vt 0.796875 0.023438
vt 0.781250 0.023438
vt 0.781250 0.070312
vt 0.796875 0.023438
vt 0.781250 0.023438
vt 0.781250 0.070312
vt 0.796875 0.070312
vt 0.898438 0.015625
vt 0.898438 -0.000000
vt 0.914062 -0.000000
vt 0.914062 0.015625
vt 0.757812 0.085938
vt 0.773438 0.085938
vt 0.773438 0.101562
vt 0.757812 0.101562
vt 0.757812 0.101562
vt 0.757812 0.085938
vt 0.773438 0.085938
vt 0.773438 0.101562
vt 0.781250 0.070312
vt 0.796875 0.070312
vt 0.796875 0.023438
vt 0.781250 0.023438
vt 0.781250 0.023438
vt 0.781250 0.070312
vt 0.796875 0.070312
vt 0.796875 0.023438
vt 0.773438 0.101562
vt 0.757812 0.101562
vt 0.757812 0.085938
vt 0.773438 0.085938
vt 0.773438 0.085938
vt 0.773438 0.101562
vt 0.757812 0.101562
vt 0.757812 0.085938
vt 0.796875 0.023438
vt 0.781250 0.023438
vt 0.781250 0.070312
vt 0.796875 0.070312
vt 0.796875 0.070312
vt 0.796875 0.023438
vt 0.781250 0.023438
vt 0.781250 0.070312
vt 0.796875 0.023438
vt 0.781250 0.023438
vt 0.781250 0.070312
vt 0.796875 0.070312
vt 0.796875 0.023438
vt 0.781250 0.023438
vt 0.781250 0.070312
vt 0.796875 0.070312
vt 0.820312 0.093750
vt 0.820312 0.101562
vt 0.804688 0.101562
vt 0.804688 0.093750
vt 0.875000 0.101562
vt 0.898438 0.101562
vt 0.898438 0.093750
vt 0.875000 0.093750
vt 0.867188 0.101562
vt 0.867188 0.093750
vt 0.843750 0.101562
vt 0.843750 0.093750
vt 0.835938 0.101562
vt 0.835938 0.093750
vt 0.820312 0.101562
vt 0.820312 0.093750
vt 0.804688 0.101562
vt 0.789062 0.101562
vt 0.789062 0.093750
vt 0.804688 0.093750
vt 0.789062 0.093750
vt 0.804688 0.101562
vt 0.789062 0.101562
vt 0.820312 0.070312
vt 0.820312 0.023438
vt 0.835938 0.023438
vt 0.835938 0.070312
vt 0.867188 0.070312
vt 0.843750 0.070312
vt 0.843750 0.023438
vt 0.867188 0.023438
vt 0.781250 0.070312
vt 0.781250 0.023438
vt 0.796875 0.023438
vt 0.796875 0.070312
vt 0.796875 0.070312
vt 0.781250 0.070312
vt 0.781250 0.023438
vt 0.796875 0.023438
vt 0.945312 0.070312
vt 0.945312 0.023438
vt 0.968750 0.023438
vt 0.968750 0.070312
vt 0.976562 0.070312
vt 0.976562 0.023438
vt 0.992188 0.023438
vt 0.992188 0.070312
vt 0.875000 0.070312
vt 0.875000 0.023438
vt 0.898438 0.023438
vt 0.898438 0.070312
vt 0.937500 0.070312
vt 0.914062 0.070312
vt 0.914062 0.023438
vt 0.937500 0.023438
vt 0.945312 0.070312
vt 0.945312 0.023438
vt 0.968750 0.023438
vt 0.968750 0.070312
vt 0.992188 0.023438
vt 0.992188 0.070312
vt 0.976562 0.070312
vt 0.976562 0.023438
vt 0.875000 0.070312
vt 0.875000 0.023438
vt 0.898438 0.023438
vt 0.898438 0.070312
vt 0.867188 0.070312
vt 0.843750 0.070312
vt 0.843750 0.023438
vt 0.867188 0.023438
vt 0.937500 0.070312
vt 0.914062 0.070312
vt 0.914062 0.023438
vt 0.937500 0.023438
vt 0.804688 0.093750
vt 0.820312 0.093750
vt 0.820312 0.101562
vt 0.804688 0.101562
vt 0.992188 0.101562
vt 0.976562 0.101562
vt 0.968750 0.101562
vt 0.945312 0.101562
vt 0.968750 0.093750
vt 0.976562 0.093750
vt 0.976562 0.101562
vt 0.968750 0.101562
vt 0.992188 0.093750
vt 0.992188 0.101562
vt 0.945312 0.101562
vt 0.945312 0.093750
vt 0.937500 0.101562
vt 0.937500 0.093750
vt 0.937500 0.101562
vt 0.914062 0.101562
vt 0.898438 0.101562
vt 0.875000 0.101562
vt 0.867188 0.101562
vt 0.843750 0.101562
vt 0.835938 0.101562
vt 0.820312 0.101562
vt 0.820312 0.093750
vt 0.820312 0.101562
vt 0.835938 0.093750
vt 0.843750 0.093750
vt 0.867188 0.093750
vt 0.843750 0.101562
vt 0.843750 0.093750
vt 0.867188 0.093750
vt 0.867188 0.101562
vt 0.875000 0.093750
vt 0.898438 0.093750
vt 0.914062 0.093750
vt 0.914062 0.101562
vt 0.914062 0.093750
vt 0.914062 0.101562
vt 0.937500 0.101562
vt 0.937500 0.093750
vt 0.968750 0.093750
vt 0.945312 0.093750
vt 0.945312 0.101562
vt 0.968750 0.101562
vt 0.945312 0.093750
vt 0.968750 0.093750
vt 0.937500 0.093750
vt 0.976562 0.093750
vt 0.992188 0.093750
vt 0.835938 0.023438
vt 0.835938 0.070312
vt 0.820312 0.070312
vt 0.820312 0.023438
vt 0.820312 0.101562
vt 0.835938 0.101562
vt 0.843750 0.101562
vt 0.945312 0.101562
vt 0.968750 0.101562
vt 0.937500 0.101562
vt 0.976562 0.101562
vt 0.992188 0.101562
vt 0.898438 0.101562
vt 0.875000 0.101562
vt 0.867188 0.101562
vt 0.898438 0.101562
vt 0.914062 0.093750
vt 0.914062 0.101562
vt 0.875000 0.101562
vt 0.937500 0.101562
vt 0.914062 0.101562
vt 0.945312 0.101562
vt 0.843750 0.093750
vt 0.867188 0.093750
vt 0.867188 0.101562
vt 0.843750 0.101562
vt 0.835938 0.093750
vt 0.835938 0.101562
vt 0.968750 0.101562
vt 0.976562 0.101562
vt 0.843750 0.101562
vt 0.835938 0.101562
vt 0.820312 0.093750
vt 0.820312 0.101562
vt 0.992188 0.101562
vt 0.898438 0.000000
vt 0.898438 0.023438
vt 0.914062 0.023438
vt 0.914062 0.000000
vt 0.914062 0.023438
vt 0.898438 0.023438
vt 0.937500 0.000000
vt 0.937500 0.023438
vt 0.937500 0.023438
vt 0.945312 0.023438
vt 0.945312 0.000000
vt 0.867188 0.000000
vt 0.875000 0.000000
vt 0.898438 -0.000000
vt 0.914062 -0.000000
vt 0.937500 0.000000
vt 0.945312 0.000000
vt 0.968750 0.000000
vt 0.976562 0.000000
vt 0.992188 -0.000000
vt 0.757812 0.085938
vt 0.773438 0.085938
vt 0.757812 0.070312
vt 0.742188 0.093750
vt 0.757812 0.093750
vt 0.757812 0.070312
vt 0.742188 0.070312
vt 0.820312 -0.000000
vt 0.835938 0.000000
vt 0.843750 0.000000
vt 0.867188 0.000000
vt 0.875000 0.000000
vt 0.898438 -0.000000
vt 0.914062 -0.000000
vt 0.937500 0.000000
vt 0.945312 0.000000
vt 0.968750 0.000000
vt 0.976562 0.000000
vt 0.992188 -0.000000
vt 0.976562 0.023438
vt 0.976562 0.000000
vt 0.992188 0.000000
vt 0.992188 0.023438
vt 0.976562 0.023438
vt 0.976562 0.000000
vt 0.992188 -0.000000
vt 0.992188 0.023438
vt 0.820312 -0.000000
vt 0.835938 0.000000
vt 0.843750 0.000000
vt 0.968750 0.023438
vt 0.968750 0.000000
vt 0.976562 0.023438
vt 0.968750 0.023438
vt 0.945312 0.023438
vt 0.875000 0.023438
vt 0.875000 0.000000
vt 0.875000 0.023438
vt 0.867188 0.000000
vt 0.867188 0.023438
vt 0.843750 0.000000
vt 0.843750 0.023438
vt 0.835938 0.000000
vt 0.835938 0.023438
vt 0.820312 0.000000
vt 0.820312 0.023438
vt 0.820312 0.023438
vt 0.835938 0.023438
vt 0.835938 0.023438
vt 0.843750 0.023438
vt 0.867188 0.023438
vt 0.968750 0.101562
vt 0.945312 0.101562
vt 0.757812 0.101562
vt 0.773438 0.101562
vt 0.773438 0.085938
vt 0.757812 0.085938
vt 0.773438 0.085938
vt 0.757812 0.085938
vt 0.757812 0.070312
vn 0.0000 -1.0000 -0.0000
vn 0.0000 0.0000 1.0000
vn -0.0000 1.0000 0.0000
vn 0.0000 0.0000 -1.0000
vn -1.0000 0.0000 0.0000
vn 1.0000 0.0000 0.0000
vn 0.7071 -0.7071 0.0000
usemtl infuser
s off
f 13/1/1 1/2/1 4/3/1 10/4/1
f 4/5/2 1/6/2 2/7/2 3/8/2
f 108/9/3 114/10/3 7/11/3 5/12/3
f 16/13/4 6/14/4 5/12/4 7/11/4
f 9/15/1 6/16/1 16/17/1 11/18/1
f 43/19/4 45/20/4 52/21/4 21/22/4
f 9/23/4 11/24/4 43/25/4 21/26/4
f 63/27/3 57/28/3 61/29/3 55/30/3
f 48/31/3 47/32/3 58/33/3 51/34/3
f 38/35/1 22/36/1 25/37/1 32/38/1
f 51/39/4 58/40/4 38/41/4 32/42/4
f 48/43/2 25/44/2 22/45/2 47/46/2
f 26/47/3 34/48/3 62/49/3 56/50/3
f 33/51/1 20/52/1 17/53/1 37/54/1
f 26/55/4 17/56/4 20/57/4 34/58/4
f 56/59/2 62/60/2 33/61/2 37/62/2
f 27/63/1 39/64/1 31/65/1 42/66/1
f 30/67/3 35/68/3 64/69/3 54/70/3
f 29/71/1 18/72/1 19/73/1 40/74/1
f 54/75/4 64/76/4 29/77/4 40/78/4
f 30/79/2 19/80/2 18/81/2 35/82/2
f 49/83/3 44/84/3 59/85/3 50/86/3
f 41/87/1 24/88/1 23/89/1 28/90/1
f 50/91/2 59/92/2 41/93/2 28/94/2
f 49/95/4 23/96/4 24/97/4 44/98/4
f 31/99/2 39/100/2 63/101/2 55/102/2
f 27/103/4 42/104/4 61/105/4 57/106/4
f 5/107/5 6/108/5 9/109/5 108/110/5
f 77/111/3 71/112/3 72/113/3 78/114/3
f 65/115/3 77/111/3 78/114/3 66/116/3
f 80/117/3 65/115/3 66/116/3 81/118/3
f 68/119/3 80/117/3 81/118/3 69/120/3
f 74/121/3 68/119/3 69/120/3 75/122/3
f 2/123/3 74/121/3 75/122/3 3/8/3
f 4/124/5 3/125/5 75/126/5 10/4/5
f 1/127/6 13/1/6 74/128/6 2/129/6
f 36/130/6 60/131/6 51/132/6 32/133/6
f 20/134/6 25/135/6 48/136/6 34/137/6
f 46/138/2 60/139/2 36/140/2 53/141/2
f 10/142/2 53/143/2 36/144/2 13/145/2
f 17/146/5 26/147/5 47/148/5 22/149/5
f 38/150/5 58/151/5 46/152/5 53/153/5
f 33/154/6 62/155/6 61/156/6 42/157/6
f 40/158/6 31/159/6 55/160/6 54/161/6
f 19/162/6 30/163/6 44/164/6 24/165/6
f 45/166/6 43/167/6 41/168/6 59/169/6
f 29/170/5 64/171/5 63/172/5 39/173/5
f 18/174/5 23/175/5 49/176/5 35/177/5
f 37/178/5 27/179/5 57/180/5 56/181/5
f 11/182/6 16/183/6 7/184/6 114/185/6
f 41/168/6 43/167/6 11/186/6 103/187/6
f 24/165/6 41/168/6 103/187/6 97/188/6
f 24/165/6 97/188/6 95/189/6 19/162/6
f 97/190/6 103/191/6 110/192/6 112/193/6
f 103/191/6 11/194/6 114/195/6 110/192/6
f 112/193/6 109/196/6 95/197/6 97/190/6
f 40/158/6 19/162/6 95/189/6 101/198/6
f 101/199/6 95/197/6 109/196/6 113/200/6
f 40/158/6 101/198/6 99/201/6 31/159/6
f 42/157/6 31/159/6 99/201/6 102/202/6
f 42/157/6 102/202/6 100/203/6 33/154/6
f 20/134/6 33/154/6 100/203/6 94/204/6
f 25/135/6 20/134/6 94/204/6 96/205/6
f 32/133/6 25/135/6 96/205/6 98/206/6
f 36/130/6 32/133/6 98/206/6 13/207/6
f 13/1/6 98/208/6 68/209/6 74/128/6
f 68/119/6 98/210/6 96/211/6 80/117/6
f 80/117/6 96/211/6 94/212/6 65/115/6
f 65/213/6 94/214/6 100/215/6 77/216/6
f 71/112/6 77/111/6 100/217/6 102/218/6
f 71/112/6 102/218/6 99/219/6 111/220/6
f 111/220/6 99/219/6 101/199/6 113/200/6
f 72/221/3 71/222/3 111/223/3 105/224/3
f 106/225/3 105/226/3 111/227/3 113/228/3
f 83/229/3 109/196/3 112/193/3 107/230/3
f 106/231/3 113/200/3 109/196/3 83/229/3
f 107/230/3 112/193/3 110/192/3 104/232/3
f 104/232/3 110/192/3 114/195/3 108/233/3
f 50/234/5 28/235/5 21/236/5 52/237/5
f 9/238/5 21/236/5 28/235/5 90/239/5
f 23/175/5 87/240/5 90/239/5 28/235/5
f 84/241/5 83/229/5 107/230/5 87/242/5
f 83/229/5 84/241/5 92/243/5 106/231/5
f 87/242/5 107/230/5 104/232/5 90/244/5
f 90/244/5 104/232/5 108/233/5 9/245/5
f 29/170/5 39/173/5 88/246/5 92/247/5
f 29/170/5 92/247/5 84/248/5 18/174/5
f 91/249/5 72/113/5 105/250/5 88/251/5
f 78/114/5 72/113/5 91/249/5 93/252/5
f 37/178/5 93/253/5 91/254/5 27/179/5
f 17/146/5 85/255/5 93/253/5 37/178/5
f 66/256/5 78/257/5 93/258/5 85/259/5
f 81/260/5 66/256/5 85/259/5 86/261/5
f 22/149/5 86/262/5 85/255/5 17/146/5
f 38/150/5 89/263/5 86/262/5 22/149/5
f 69/120/5 81/118/5 86/264/5 89/265/5
f 75/126/5 69/266/5 89/267/5 10/4/5
f 53/153/5 10/268/5 89/263/5 38/150/5
f 73/269/5 136/270/5 135/271/5 82/272/5
f 73/269/7 82/272/7 121/273/7 117/274/7
f 121/273/7 82/272/7 79/275/7 116/276/7
f 82/272/5 135/271/5 134/277/5 79/275/5
f 79/275/5 134/277/5 133/278/5 115/279/5
f 133/280/5 134/281/5 64/171/5 35/177/5
f 134/281/5 135/282/5 63/172/5 64/171/5
f 135/282/5 136/283/5 57/180/5 63/172/5
f 136/283/5 137/284/5 56/181/5 57/180/5
f 137/284/5 138/285/5 26/147/5 56/181/5
f 138/285/5 139/286/5 47/148/5 26/147/5
f 139/286/5 140/287/5 58/151/5 47/148/5
f 140/287/5 129/288/5 46/152/5 58/151/5
f 129/289/2 15/290/2 14/291/2
f 14/292/2 60/293/2 46/294/2 129/295/2
f 14/296/6 126/297/6 51/132/6 60/131/6
f 126/297/6 124/298/6 48/136/6 51/132/6
f 124/298/6 128/299/6 34/137/6 48/136/6
f 128/299/6 119/300/6 62/155/6 34/137/6
f 119/300/6 117/301/6 61/156/6 62/155/6
f 117/301/6 121/302/6 55/160/6 61/156/6
f 121/302/6 116/303/6 54/161/6 55/160/6
f 116/303/6 120/304/6 30/163/6 54/161/6
f 120/304/6 118/305/6 44/164/6 30/163/6
f 118/305/6 122/306/6 59/169/6 44/164/6
f 122/306/6 12/307/6 45/166/6 59/169/6
f 122/308/7 70/309/7 8/310/7 12/311/7
f 70/312/5 131/313/5 130/314/5 8/315/5
f 130/316/5 131/317/5 50/234/5 52/237/5
f 131/317/5 132/318/5 49/176/5 50/234/5
f 132/318/5 133/280/5 35/177/5 49/176/5
f 133/278/5 132/319/5 67/320/5 115/279/5
f 67/320/5 132/319/5 131/321/5 70/309/5
f 67/320/7 70/309/7 122/308/7 118/322/7
f 118/322/7 120/323/7 115/279/7 67/320/7
f 120/323/7 116/276/7 79/275/7 115/279/7
f 119/324/7 76/325/7 73/269/7 117/274/7
f 76/325/5 137/326/5 136/270/5 73/269/5
f 76/325/5 127/327/5 138/328/5 137/326/5
f 127/327/5 123/329/5 139/330/5 138/328/5
f 123/329/5 125/331/5 140/332/5 139/330/5
f 125/331/5 15/333/5 129/334/5 140/332/5
f 15/335/7 125/336/7 126/297/7 14/296/7
f 126/337/7 125/331/7 123/329/7 124/338/7
f 124/338/7 123/329/7 127/327/7 128/339/7
f 128/339/7 127/327/7 76/325/7 119/324/7
f 27/179/5 91/254/5 88/246/5 39/173/5
f 84/248/5 87/240/5 23/175/5 18/174/5
f 106/225/5 92/340/5 88/341/5 105/226/5
f 45/342/4 12/343/4 130/344/4 52/345/4
f 8/346/4 130/347/4 12/348/4
