# Blender v2.78 (sub 5) OBJ File: 'extractor1.blend'
# www.blender.org
mtllib pipes.mtl
o pipes
v 0.925000 0.787500 -0.050000
v 0.925000 0.612500 -0.050000
v 0.925000 0.787500 -0.200000
v 0.925000 0.612500 -0.200000
v 1.025000 0.787500 1.200000
v 1.175000 0.787500 1.200000
v 1.175000 0.612500 1.200000
v 1.025000 0.612500 1.200000
v 0.925000 0.612500 1.050000
v 0.925000 0.787500 1.050000
v 1.175000 0.787500 -0.200000
v 1.025000 0.787500 -0.200000
v 1.175000 0.612500 -0.200000
v 1.025000 0.612500 -0.200000
v 1.025000 0.787500 1.050000
v 1.175000 0.787500 1.050000
v 1.025000 0.612500 1.050000
v 1.175000 0.612500 1.050000
v 1.175000 0.612500 -0.050000
v 1.175000 0.787500 -0.050000
v 1.025000 0.787500 -0.050000
v 1.025000 0.612500 -0.050000
v 1.700000 0.612500 1.200000
v 1.700000 0.787500 1.200000
v 1.700000 0.787500 1.050000
v 1.700000 0.612500 1.050000
v 1.700000 0.612500 -0.200000
v 1.700000 0.787500 -0.200000
v 1.700000 0.612500 -0.050000
v 1.700000 0.787500 -0.050000
v 1.550000 0.787500 -0.200000
v 1.550000 0.612500 -0.200000
v 1.550000 0.612500 -0.050000
v 1.550000 0.787500 -0.050000
v 1.550000 0.612500 1.200000
v 1.550000 0.787500 1.200000
v 1.550000 0.787500 1.050000
v 1.550000 0.612500 1.050000
v 1.700000 0.612500 1.300000
v 1.700000 0.787500 1.300000
v 1.550000 0.612500 1.300000
v 1.550000 0.787500 1.300000
v 1.700000 0.612500 -0.300000
v 1.700000 0.787500 -0.300000
v 1.550000 0.787500 -0.300000
v 1.550000 0.612500 -0.300000
v 0.975000 0.787500 1.700000
v 0.925000 0.612500 1.200000
v 0.925000 0.787500 1.200000
v 0.075000 0.787500 1.050000
v 0.075000 0.612500 1.050000
v 0.075000 0.787500 1.200000
v 0.075000 0.612500 1.200000
v 0.075000 0.612500 -0.050000
v 0.075000 0.787500 -0.050000
v -0.025000 0.787500 -0.200000
v -0.175000 0.787500 -0.200000
v -0.175000 0.612500 -0.200000
v -0.025000 0.612500 -0.200000
v 0.075000 0.612500 -0.200000
v 0.075000 0.787500 -0.200000
v -0.175000 0.787500 1.200000
v -0.025000 0.787500 1.200000
v -0.175000 0.612500 1.200000
v -0.025000 0.612500 1.200000
v -0.025000 0.787500 -0.050000
v -0.175000 0.787500 -0.050000
v -0.025000 0.612500 -0.050000
v -0.175000 0.612500 -0.050000
v -0.175000 0.612500 1.050000
v -0.175000 0.787500 1.050000
v -0.025000 0.787500 1.050000
v -0.025000 0.612500 1.050000
v -0.700000 0.612500 -0.200000
v -0.700000 0.787500 -0.200000
v -0.700000 0.787500 -0.050000
v -0.700000 0.612500 -0.050000
v -0.700000 0.612500 1.200000
v -0.700000 0.787500 1.200000
v -0.700000 0.612500 1.050000
v -0.700000 0.787500 1.050000
v -0.550000 0.787500 1.200000
v -0.550000 0.612500 1.200000
v -0.550000 0.612500 1.050000
v -0.550000 0.787500 1.050000
v -0.550000 0.612500 -0.200000
v -0.550000 0.787500 -0.200000
v -0.550000 0.787500 -0.050000
v -0.550000 0.612500 -0.050000
v -0.700000 0.612500 -0.300000
v -0.700000 0.787500 -0.300000
v -0.550000 0.612500 -0.300000
v -0.550000 0.787500 -0.300000
v -0.700000 0.612500 1.300000
v -0.700000 0.787500 1.300000
v -0.550000 0.787500 1.300000
v -0.550000 0.612500 1.300000
v 0.975000 0.612500 1.700000
v 0.025000 0.787500 1.700000
v 0.025000 0.612500 1.700000
v 1.275000 0.787500 -0.650000
v 1.275000 0.612500 -0.650000
v 1.275000 0.787500 -0.500000
v 1.275000 0.612500 -0.500000
v -0.275000 0.787500 -0.650000
v -0.275000 0.612500 -0.650000
v -0.275000 0.787500 -0.500000
v -0.275000 0.612500 -0.500000
v 0.975000 0.787500 -0.650000
v 0.025000 0.787500 -0.650000
v 0.975000 0.612500 -0.650000
v 0.025000 0.612500 -0.650000
v 0.025000 0.612500 -0.500000
v 0.025000 0.787500 -0.500000
v 0.975000 0.612500 -0.500000
v 0.975000 0.787500 -0.500000
v 0.025000 0.612500 1.550000
v 0.975000 0.612500 1.550000
v 0.025000 0.787500 1.550000
v 0.975000 0.787500 1.550000
v -0.275000 0.612500 1.700000
v -0.275000 0.787500 1.700000
v -0.275000 0.612500 1.550000
v -0.275000 0.787500 1.550000
v 1.275000 0.612500 1.700000
v 1.275000 0.787500 1.700000
v 1.275000 0.612500 1.550000
v 1.275000 0.787500 1.550000
vt 0.460938 0.164062
vt 0.460938 0.132812
vt 0.492188 0.132812
vt 0.492188 0.164062
vt 0.492188 0.062500
vt 0.492188 0.031250
vt 0.515625 0.031250
vt 0.515625 0.062500
vt 0.460938 0.164062
vt 0.492188 0.164062
vt 0.492188 0.187500
vt 0.460938 0.187500
vt 0.492188 0.062500
vt 0.492188 0.031250
vt 0.515625 0.031250
vt 0.515625 0.062500
vt 0.460938 0.164062
vt 0.460938 0.132812
vt 0.492188 0.132812
vt 0.492188 0.164062
vt 0.460938 0.164062
vt 0.460938 0.132812
vt 0.492188 0.132812
vt 0.492188 0.164062
vt 0.460938 0.164062
vt 0.460938 0.132812
vt 0.492188 0.132812
vt 0.492188 0.164062
vt 0.625000 0.132812
vt 0.656250 0.132812
vt 0.656250 0.164062
vt 0.625000 0.164062
vt 0.625000 0.164062
vt 0.656250 0.164062
vt 0.656250 0.187500
vt 0.625000 0.187500
vt 0.460938 0.164062
vt 0.492188 0.164062
vt 0.492188 0.187500
vt 0.460938 0.187500
vt 0.492188 0.187500
vt 0.460938 0.187500
vt 0.625000 0.164062
vt 0.656250 0.164062
vt 0.656250 0.187500
vt 0.625000 0.187500
vt 0.625000 0.031250
vt 0.625000 0.062500
vt 0.593750 0.062500
vt 0.593750 0.031250
vt 0.625000 0.062500
vt 0.625000 0.031250
vt 0.656250 0.031250
vt 0.656250 0.062500
vt 0.492188 0.062500
vt 0.460938 0.062500
vt 0.460938 0.031250
vt 0.492188 0.031250
vt 0.492188 0.031250
vt 0.492188 0.062500
vt 0.460938 0.062500
vt 0.460938 0.031250
vt 0.593750 0.062500
vt 0.593750 0.031250
vt 0.625000 0.031250
vt 0.625000 0.062500
vt 0.625000 0.062500
vt 0.625000 0.031250
vt 0.656250 0.031250
vt 0.656250 0.062500
vt 0.460938 0.062500
vt 0.460938 0.031250
vt 0.492188 0.031250
vt 0.492188 0.062500
vt 0.460938 0.062500
vt 0.460938 0.031250
vt 0.460938 0.062500
vt 0.492188 0.062500
vt 0.492188 0.132812
vt 0.460938 0.132812
vt 0.656250 0.132812
vt 0.625000 0.132812
vt 0.625000 0.062500
vt 0.656250 0.062500
vt 0.359375 0.148438
vt 0.359375 0.179688
vt 0.289062 0.179688
vt 0.289062 0.148438
vt 0.460938 0.062500
vt 0.492188 0.062500
vt 0.492188 0.132812
vt 0.460938 0.132812
vt 0.625000 0.062500
vt 0.656250 0.062500
vt 0.656250 0.132812
vt 0.625000 0.132812
vt 0.359375 0.148438
vt 0.359375 0.179688
vt 0.289062 0.179688
vt 0.289062 0.148438
vt 0.289062 0.023438
vt 0.289062 0.054688
vt 0.257812 0.054688
vt 0.257812 0.023438
vt 0.515625 0.031250
vt 0.515625 0.062500
vt 0.570312 0.062500
vt 0.570312 0.031250
vt 0.289062 0.078125
vt 0.257812 0.078125
vt 0.257812 0.054688
vt 0.289062 0.054688
vt 0.289062 0.023438
vt 0.289062 0.054688
vt 0.257812 0.054688
vt 0.257812 0.023438
vt 0.289062 0.078125
vt 0.257812 0.078125
vt 0.257812 0.054688
vt 0.289062 0.054688
vt 0.593750 0.031250
vt 0.593750 0.062500
vt 0.570312 0.062500
vt 0.570312 0.031250
vt 0.492188 0.062500
vt 0.492188 0.031250
vt 0.515625 0.031250
vt 0.515625 0.062500
vt 0.460938 0.164062
vt 0.460938 0.132812
vt 0.492188 0.132812
vt 0.492188 0.164062
vt 0.460938 0.101562
vt 0.460938 0.132812
vt 0.437500 0.132812
vt 0.437500 0.101562
vt 0.460938 0.101562
vt 0.460938 0.132812
vt 0.437500 0.132812
vt 0.437500 0.101562
vt 0.492188 0.062500
vt 0.492188 0.031250
vt 0.515625 0.031250
vt 0.515625 0.062500
vt 0.460938 0.132812
vt 0.460938 0.164062
vt 0.429688 0.164062
vt 0.429688 0.132812
vt 0.460938 0.132812
vt 0.460938 0.164062
vt 0.429688 0.164062
vt 0.429688 0.132812
vt 0.460938 0.164062
vt 0.492188 0.164062
vt 0.492188 0.187500
vt 0.460938 0.187500
vt 0.492188 0.062500
vt 0.492188 0.031250
vt 0.515625 0.031250
vt 0.515625 0.062500
vt 0.460938 0.164062
vt 0.460938 0.132812
vt 0.492188 0.132812
vt 0.492188 0.164062
vt 0.460938 0.164062
vt 0.460938 0.132812
vt 0.492188 0.132812
vt 0.492188 0.164062
vt 0.460938 0.164062
vt 0.460938 0.132812
vt 0.492188 0.132812
vt 0.492188 0.164062
vt 0.492188 0.187500
vt 0.460938 0.187500
vt 0.625000 0.164062
vt 0.656250 0.164062
vt 0.656250 0.187500
vt 0.625000 0.187500
vt 0.460938 0.164062
vt 0.492188 0.164062
vt 0.492188 0.187500
vt 0.460938 0.187500
vt 0.492188 0.187500
vt 0.460938 0.187500
vt 0.625000 0.164062
vt 0.656250 0.164062
vt 0.656250 0.187500
vt 0.625000 0.187500
vt 0.460938 0.101562
vt 0.460938 0.132812
vt 0.437500 0.132812
vt 0.437500 0.101562
vt 0.460938 0.101562
vt 0.460938 0.132812
vt 0.437500 0.132812
vt 0.437500 0.101562
vt 0.460938 0.132812
vt 0.460938 0.164062
vt 0.429688 0.164062
vt 0.429688 0.132812
vt 0.460938 0.132812
vt 0.460938 0.164062
vt 0.429688 0.164062
vt 0.429688 0.132812
vt 0.625000 0.031250
vt 0.625000 0.062500
vt 0.593750 0.062500
vt 0.593750 0.031250
vt 0.656250 0.031250
vt 0.656250 0.062500
vt 0.492188 0.062500
vt 0.460938 0.062500
vt 0.460938 0.031250
vt 0.492188 0.031250
vt 0.492188 0.031250
vt 0.492188 0.062500
vt 0.460938 0.062500
vt 0.460938 0.031250
vt 0.593750 0.062500
vt 0.593750 0.031250
vt 0.625000 0.031250
vt 0.625000 0.062500
vt 0.625000 0.062500
vt 0.625000 0.031250
vt 0.656250 0.031250
vt 0.656250 0.062500
vt 0.460938 0.062500
vt 0.460938 0.031250
vt 0.460938 0.031250
vt 0.492188 0.031250
vt 0.492188 0.062500
vt 0.460938 0.062500
vt 0.492188 0.132812
vt 0.460938 0.132812
vt 0.460938 0.062500
vt 0.492188 0.062500
vt 0.656250 0.132812
vt 0.625000 0.132812
vt 0.625000 0.062500
vt 0.656250 0.062500
vt 0.359375 0.148438
vt 0.359375 0.179688
vt 0.289062 0.179688
vt 0.289062 0.148438
vt 0.492188 0.132812
vt 0.460938 0.132812
vt 0.460938 0.062500
vt 0.492188 0.062500
vt 0.625000 0.062500
vt 0.656250 0.062500
vt 0.656250 0.132812
vt 0.625000 0.132812
vt 0.359375 0.148438
vt 0.359375 0.179688
vt 0.289062 0.179688
vt 0.289062 0.148438
vt 0.414062 0.148438
vt 0.414062 0.179688
vt 0.382812 0.179688
vt 0.382812 0.148438
vt 0.515625 0.031250
vt 0.515625 0.062500
vt 0.570312 0.062500
vt 0.570312 0.031250
vt 0.257812 0.054688
vt 0.289062 0.054688
vt 0.289062 0.078125
vt 0.257812 0.078125
vt 0.257812 0.054688
vt 0.257812 0.023438
vt 0.289062 0.023438
vt 0.289062 0.054688
vt 0.289062 0.078125
vt 0.257812 0.078125
vt 0.257812 0.054688
vt 0.289062 0.054688
vt 0.593750 0.031250
vt 0.593750 0.062500
vt 0.570312 0.062500
vt 0.570312 0.031250
vt 0.515625 0.031250
vt 0.515625 0.062500
vt 0.625000 0.132812
vt 0.656250 0.132812
vt 0.656250 0.164062
vt 0.625000 0.164062
vt 0.656250 0.132812
vt 0.625000 0.132812
vt 0.289062 0.140625
vt 0.257812 0.140625
vt 0.257812 0.070312
vt 0.289062 0.070312
vt 0.257812 0.070312
vt 0.289062 0.070312
vt 0.289062 0.140625
vt 0.257812 0.140625
vt 0.257812 0.070312
vt 0.289062 0.070312
vt 0.289062 0.140625
vt 0.257812 0.140625
vt 0.257812 0.070312
vt 0.289062 0.070312
vt 0.289062 0.140625
vt 0.257812 0.140625
vt 0.289062 0.140625
vt 0.257812 0.140625
vt 0.257812 0.070312
vt 0.289062 0.070312
vt 0.429688 -0.039062
vt 0.429688 -0.078125
vt 0.460938 -0.078125
vt 0.460938 -0.039062
vt 0.257812 0.070312
vt 0.289062 0.070312
vt 0.289062 0.140625
vt 0.257812 0.140625
vt 0.257812 0.070312
vt 0.289062 0.070312
vt 0.289062 0.140625
vt 0.257812 0.140625
vt 0.257812 0.070312
vt 0.289062 0.070312
vt 0.289062 0.140625
vt 0.257812 0.140625
vt 0.554688 -0.218750
vt 0.554688 -0.171875
vt 0.515625 -0.171875
vt 0.515625 -0.218750
vt 0.460938 -0.039062
vt 0.460938 -0.078125
vt 0.500000 -0.078125
vt 0.500000 -0.039062
vt 0.390625 -0.039062
vt 0.390625 -0.078125
vt 0.429688 -0.078125
vt 0.429688 -0.039062
vt 0.257812 0.070312
vt 0.289062 0.070312
vt 0.289062 0.140625
vt 0.257812 0.140625
vt 0.257812 0.070312
vt 0.289062 0.070312
vt 0.289062 0.140625
vt 0.257812 0.140625
vt 0.351562 -0.039062
vt 0.351562 -0.078125
vt 0.390625 -0.078125
vt 0.390625 -0.039062
vt 0.554688 -0.265625
vt 0.554688 -0.218750
vt 0.515625 -0.218750
vt 0.515625 -0.265625
vt 0.460938 0.132812
vt 0.492188 0.132812
vt 0.492188 0.164062
vt 0.460938 0.164062
vt -0.007812 -0.320312
vt -0.007812 -0.132812
vt -0.179688 -0.132812
vt -0.179688 -0.320312
vt 0.335938 -0.078125
vt 0.335938 -0.039062
vt 0.296875 -0.039062
vt 0.296875 -0.078125
vt 0.257812 0.070312
vt 0.289062 0.070312
vt 0.289062 0.140625
vt 0.257812 0.140625
vt 0.257812 0.070312
vt 0.289062 0.070312
vt 0.289062 0.140625
vt 0.257812 0.140625
vt 0.289062 0.140625
vt 0.257812 0.140625
vt 0.257812 0.070312
vt 0.289062 0.070312
vt 0.515625 -0.265625
vt 0.515625 -0.304688
vt 0.554688 -0.304688
vt 0.554688 -0.265625
vt 0.289062 0.140625
vt 0.257812 0.140625
vt 0.257812 0.070312
vt 0.289062 0.070312
vt 0.257812 0.070312
vt 0.289062 0.070312
vt 0.289062 0.140625
vt 0.257812 0.140625
vt 0.289062 0.140625
vt 0.257812 0.140625
vt 0.257812 0.070312
vt 0.289062 0.070312
vt 0.492188 0.187500
vt 0.460938 0.187500
vt 0.656250 0.132812
vt 0.625000 0.132812
vt 0.164062 -0.109375
vt 0.164062 -0.062500
vt 0.132812 -0.062500
vt 0.132812 -0.109375
vt 0.492188 0.132812
vt 0.492188 0.164062
vt 0.460938 0.164062
vn 0.0000 1.0000 0.0000
vn 0.0000 -1.0000 0.0000
vn 0.0000 0.0000 1.0000
vn 0.0000 0.0000 -1.0000
vn 1.0000 0.0000 0.0000
vn -1.0000 0.0000 0.0000
usemtl extractor
s off
f 16/1/1 15/2/1 5/3/1 6/4/1
f 31/5/1 28/6/1 44/7/1 45/8/1
f 5/9/1 15/10/1 10/11/1 49/12/1
f 24/13/1 36/14/1 42/15/1 40/16/1
f 17/17/2 18/18/2 7/19/2 8/20/2
f 21/21/1 20/22/1 11/23/1 12/24/1
f 19/25/2 22/26/2 14/27/2 13/28/2
f 21/29/3 22/30/3 19/31/3 20/32/3
f 15/33/4 17/34/4 9/35/4 10/36/4
f 14/37/2 22/38/2 2/39/2 4/40/2
f 21/21/1 12/24/1 3/41/1 1/42/1
f 22/43/3 21/44/3 1/45/3 2/46/3
f 26/47/5 25/48/5 24/49/5 23/50/5
f 38/51/4 37/52/4 25/53/4 26/54/4
f 35/55/2 38/56/2 26/57/2 23/58/2
f 37/59/1 36/60/1 24/61/1 25/62/1
f 30/63/5 29/64/5 27/65/5 28/66/5
f 34/67/3 33/68/3 29/69/3 30/70/3
f 31/5/1 34/71/1 30/72/1 28/6/1
f 33/73/2 32/74/2 27/75/2 29/76/2
f 19/77/2 13/78/2 32/79/2 33/80/2
f 11/23/1 20/22/1 34/71/1 31/5/1
f 20/81/3 19/82/3 33/83/3 34/84/3
f 13/85/4 11/86/4 31/87/4 32/88/4
f 16/89/1 6/90/1 36/91/1 37/92/1
f 7/19/2 18/18/2 38/56/2 35/55/2
f 18/93/4 16/94/4 37/95/4 38/96/4
f 6/97/3 7/98/3 35/99/3 36/100/3
f 42/101/3 41/102/3 39/103/3 40/104/3
f 35/55/2 23/58/2 39/105/2 41/106/2
f 23/50/5 24/49/5 40/107/5 39/108/5
f 36/109/6 35/110/6 41/111/6 42/112/6
f 46/113/4 45/114/4 44/115/4 43/116/4
f 32/117/6 31/118/6 45/119/6 46/120/6
f 28/121/5 27/122/5 43/123/5 44/124/5
f 27/125/2 32/126/2 46/127/2 43/128/2
f 67/129/1 66/130/1 56/131/1 57/132/1
f 8/133/3 5/134/3 49/135/3 48/136/3
f 12/137/4 14/138/4 4/139/4 3/140/4
f 82/141/1 79/142/1 95/143/1 96/144/1
f 3/145/6 4/146/6 2/147/6 1/148/6
f 10/149/6 9/150/6 48/151/6 49/152/6
f 56/153/1 66/154/1 55/155/1 61/156/1
f 75/157/1 87/158/1 93/159/1 91/160/1
f 68/161/2 69/162/2 58/163/2 59/164/2
f 72/165/1 71/166/1 62/167/1 63/168/1
f 70/169/2 73/170/2 65/171/2 64/172/2
f 68/161/2 59/164/2 60/173/2 54/174/2
f 66/175/3 68/176/3 54/177/3 55/178/3
f 65/179/2 73/180/2 51/181/2 53/182/2
f 72/165/1 63/168/1 52/183/1 50/184/1
f 73/185/4 72/186/4 50/187/4 51/188/4
f 63/189/3 65/190/3 53/191/3 52/192/3
f 59/193/4 56/194/4 61/195/4 60/196/4
f 51/197/5 50/198/5 52/199/5 53/200/5
f 55/201/5 54/202/5 60/203/5 61/204/5
f 77/205/6 76/206/6 75/207/6 74/208/6
f 89/209/3 88/210/3 76/206/3 77/205/3
f 86/211/2 89/212/2 77/213/2 74/214/2
f 88/215/1 87/216/1 75/217/1 76/218/1
f 81/219/6 80/220/6 78/221/6 79/222/6
f 85/223/4 84/224/4 80/225/4 81/226/4
f 82/141/1 85/227/1 81/228/1 79/142/1
f 84/229/2 83/230/2 78/231/2 80/232/2
f 70/233/2 64/234/2 83/235/2 84/236/2
f 62/167/1 71/166/1 85/227/1 82/141/1
f 71/237/4 70/238/4 84/239/4 85/240/4
f 64/241/3 62/242/3 82/243/3 83/244/3
f 67/245/1 57/246/1 87/247/1 88/248/1
f 58/163/2 69/162/2 89/212/2 86/211/2
f 69/249/3 67/250/3 88/251/3 89/252/3
f 57/253/4 58/254/4 86/255/4 87/256/4
f 93/257/4 92/258/4 90/259/4 91/260/4
f 86/211/2 74/214/2 90/261/2 92/262/2
f 74/208/6 75/207/6 91/263/6 90/264/6
f 87/265/5 86/266/5 92/267/5 93/268/5
f 97/269/3 96/270/3 95/271/3 94/272/3
f 83/273/5 82/274/5 96/275/5 97/276/5
f 79/277/6 78/278/6 94/279/6 95/280/6
f 78/231/2 83/230/2 97/281/2 94/282/2
f 72/283/4 73/284/4 70/285/4 71/286/4
f 69/287/3 68/176/3 66/175/3 67/288/3
f 99/289/1 119/290/1 124/291/1 122/292/1
f 120/293/1 47/294/1 126/295/1 128/296/1
f 111/297/4 109/298/4 101/299/4 102/300/4
f 115/301/2 111/302/2 102/303/2 104/304/2
f 116/305/3 115/306/3 104/307/3 103/308/3
f 102/309/5 101/310/5 103/311/5 104/312/5
f 112/313/2 113/314/2 108/315/2 106/316/2
f 113/317/3 114/318/3 107/319/3 108/320/3
f 110/321/4 112/322/4 106/323/4 105/324/4
f 105/325/6 106/326/6 108/327/6 107/328/6
f 114/329/5 113/330/5 112/331/5 110/332/5
f 115/333/6 116/334/6 109/335/6 111/336/6
f 109/337/1 116/338/1 103/339/1 101/340/1
f 114/341/1 110/342/1 105/343/1 107/344/1
f 98/345/6 47/346/6 120/347/6 118/348/6
f 99/349/5 100/350/5 117/351/5 119/352/5
f 62/353/3 64/354/3 65/355/3 63/356/3
f 5/357/3 8/358/3 7/359/3 6/360/3
f 124/361/6 123/362/6 121/363/6 122/364/6
f 119/365/4 117/366/4 123/367/4 124/368/4
f 100/369/3 99/370/3 122/371/3 121/372/3
f 117/373/2 100/374/2 121/375/2 123/376/2
f 127/377/5 128/378/5 126/379/5 125/380/5
f 47/381/3 98/382/3 125/383/3 126/384/3
f 98/385/2 118/386/2 127/387/2 125/388/2
f 118/389/4 120/390/4 128/391/4 127/392/4
f 17/17/2 8/20/2 48/393/2 9/394/2
f 18/395/4 17/34/4 15/33/4 16/396/4
f 11/397/4 13/398/4 14/399/4 12/400/4
f 56/194/4 59/401/4 58/402/4 57/403/4
