# Blender v2.78 (sub 5) OBJ File: 'extractor1.blend'
# www.blender.org
mtllib piston.mtl
o main_piston_mainpiston
v 0.079821 0.107791 0.920179
v 0.079821 1.050000 0.920179
v 0.079821 0.107791 0.079821
v 0.079821 1.050000 0.079821
v 0.920179 0.107791 0.920179
v 0.920179 1.050000 0.920179
v 0.920179 0.107791 0.079821
v 0.920179 1.050000 0.079821
v 0.079821 1.050000 0.710089
v 0.394955 1.050000 0.920179
v 0.394955 1.050000 0.289911
v 0.605045 1.050000 0.289911
v 0.079821 1.050000 0.605040
v 0.605045 1.050000 0.710089
v 0.394955 1.050000 0.710089
v 0.394955 1.050000 0.605040
v 0.605045 1.050000 0.605045
v 0.079821 1.050000 0.289910
v 0.079821 1.050000 0.394960
v 0.394955 1.050000 0.394955
v 0.605045 1.050000 0.394955
v 0.394955 1.170000 0.289911
v 0.394955 1.170000 0.710089
v 0.605045 1.170000 0.289911
v 0.605045 1.170000 0.710089
v 0.394955 1.170000 0.605045
v 0.605045 1.170000 0.605045
v 0.394955 1.170000 0.394955
v 0.605045 1.170000 0.394955
v 0.526261 1.140000 0.394955
v 0.526261 1.080000 0.394955
v 0.473739 1.080000 0.394955
v 0.526261 1.080000 0.605045
v 0.526261 1.140000 0.605045
v 0.473739 1.140000 0.605045
v 0.473739 1.080000 0.605045
v 0.473739 1.140000 0.394955
v 0.605040 1.050000 0.079821
v 0.394960 1.050000 0.079821
v 0.920179 1.050000 0.710089
v 0.920179 1.050000 0.289910
v 0.920179 1.050000 0.394955
v 0.920179 1.050000 0.605045
v 0.605040 1.050000 0.920179
v 0.079821 0.107790 0.710089
v 0.394955 0.107790 0.920179
v 0.079821 0.107790 0.605040
v 0.079821 0.107790 0.289910
v 0.079821 0.107790 0.394960
v 0.605040 0.107790 0.079821
v 0.394960 0.107790 0.079821
v 0.920179 0.107790 0.710089
v 0.920179 0.107790 0.289910
v 0.920179 0.107790 0.394955
v 0.920179 0.107790 0.605045
v 0.605040 0.107790 0.920179
v 0.394959 0.107790 0.289911
v 0.605040 0.107790 0.710089
v 0.394957 0.107790 0.710089
v 0.605040 0.107790 0.289911
v 0.394957 0.107790 0.605045
v 0.605040 0.107790 0.394955
v 0.394958 0.107790 0.394955
v 0.605040 0.107790 0.605045
vt 0.601562 0.351562
vt 0.601562 0.304688
vt 0.617188 0.304688
vt 0.617188 0.351562
vt 0.554688 0.351562
vt 0.515625 0.351562
vt 0.515625 0.304688
vt 0.554688 0.304688
vt 0.570312 0.351562
vt 0.570312 0.304688
vt 0.570312 0.351562
vt 0.570312 0.304688
vt 0.554688 0.304688
vt 0.554688 0.351562
vt 0.507812 0.406250
vt 0.507812 0.398438
vt 0.539062 0.398438
vt 0.539062 0.406250
vt 0.539062 0.437500
vt 0.507812 0.437500
vt 0.507812 0.414062
vt 0.539062 0.414062
vt 0.539062 0.437500
vt 0.507812 0.437500
vt 0.507812 0.414062
vt 0.539062 0.414062
vt 0.523438 0.445312
vt 0.539062 0.445312
vt 0.539062 0.468750
vt 0.523438 0.468750
vt 0.531250 0.484375
vt 0.531250 0.476562
vt 0.539062 0.476562
vt 0.539062 0.484375
vt 0.539062 0.476562
vt 0.539062 0.484375
vt 0.531250 0.484375
vt 0.539062 0.445312
vt 0.539062 0.468750
vt 0.523438 0.468750
vt 0.523438 0.445312
vt 0.523438 0.445312
vt 0.539062 0.445312
vt 0.539062 0.468750
vt 0.523438 0.468750
vt 0.523438 0.445312
vt 0.539062 0.445312
vt 0.539062 0.468750
vt 0.523438 0.468750
vt 0.539062 0.414062
vt 0.539062 0.437500
vt 0.507812 0.437500
vt 0.507812 0.414062
vt 0.539062 0.414062
vt 0.539062 0.437500
vt 0.507812 0.437500
vt 0.507812 0.414062
vt 0.539062 0.398438
vt 0.539062 0.406250
vt 0.507812 0.406250
vt 0.507812 0.398438
vt 0.507812 0.398438
vt 0.539062 0.398438
vt 0.609375 0.492188
vt 0.609375 0.609375
vt 0.570312 0.609375
vt 0.570312 0.492188
vt 0.570312 0.609375
vt 0.570312 0.492188
vt 0.609375 0.492188
vt 0.609375 0.609375
vt 0.554688 0.609375
vt 0.554688 0.492188
vt 0.523438 0.492188
vt 0.523438 0.609375
vt 0.625000 0.609375
vt 0.625000 0.492188
vt 0.609375 0.492188
vt 0.609375 0.609375
vt 0.570312 0.492188
vt 0.570312 0.609375
vt 0.570312 0.609375
vt 0.570312 0.492188
vt 0.554688 0.492188
vt 0.554688 0.609375
vt 0.625000 0.492188
vt 0.609375 0.492188
vt 0.609375 0.609375
vt 0.625000 0.609375
vt 0.656250 0.304688
vt 0.656250 0.351562
vt 0.617188 0.273438
vt 0.656250 0.273438
vt 0.601562 0.273438
vt 0.601562 0.273438
vt 0.601562 0.304688
vt 0.570312 0.304688
vt 0.570312 0.273438
vt 0.554688 0.273438
vt 0.570312 0.273438
vt 0.515625 0.273438
vt 0.554688 0.273438
vt 0.554688 0.226562
vt 0.515625 0.226562
vt 0.515625 0.273438
vt 0.570312 0.226562
vt 0.554688 0.226562
vt 0.601562 0.226562
vt 0.617188 0.226562
vt 0.617188 0.273438
vt 0.656250 0.273438
vt 0.656250 0.226562
vt 0.617188 0.226562
vt 0.625000 0.492188
vt 0.656250 0.492188
vt 0.656250 0.609375
vt 0.625000 0.609375
vt 0.546875 0.484375
vt 0.546875 0.367188
vt 0.585938 0.367188
vt 0.585938 0.484375
vt 0.585938 0.484375
vt 0.609375 0.484375
vt 0.609375 0.367188
vt 0.585938 0.367188
vt 0.609375 0.367188
vt 0.648438 0.367188
vt 0.648438 0.484375
vt 0.609375 0.484375
vt 0.656250 0.492188
vt 0.656250 0.609375
vt 0.546875 0.484375
vt 0.585938 0.484375
vt 0.585938 0.367188
vt 0.546875 0.367188
vt 0.609375 0.367188
vt 0.609375 0.484375
vt 0.523438 0.609375
vt 0.523438 0.492188
vt 0.554688 0.492188
vt 0.554688 0.609375
vt 0.648438 0.367188
vt 0.648438 0.484375
vt 0.656250 0.304688
vt 0.617188 0.304688
vt 0.617188 0.351562
vt 0.656250 0.351562
vt 0.617188 0.304688
vt 0.656250 0.304688
vt 0.656250 0.273438
vt 0.617188 0.273438
vt 0.656250 0.273438
vt 0.656250 0.226562
vt 0.617188 0.226562
vt 0.617188 0.273438
vt 0.601562 0.273438
vt 0.601562 0.226562
vt 0.617188 0.226562
vt 0.617188 0.273438
vt 0.570312 0.226562
vt 0.570312 0.273438
vt 0.601562 0.273438
vt 0.601562 0.226562
vt 0.554688 0.273438
vt 0.554688 0.226562
vt 0.570312 0.226562
vt 0.570312 0.273438
vt 0.554688 0.226562
vt 0.515625 0.226562
vt 0.515625 0.273438
vt 0.554688 0.273438
vt 0.554688 0.304688
vt 0.515625 0.304688
vt 0.515625 0.273438
vt 0.515625 0.351562
vt 0.554688 0.351562
vt 0.554688 0.304688
vt 0.515625 0.304688
vt 0.570312 0.304688
vt 0.570312 0.351562
vt 0.554688 0.351562
vt 0.601562 0.304688
vt 0.601562 0.351562
vt 0.617188 0.304688
vt 0.617188 0.351562
vt 0.507812 0.406250
vt 0.539062 0.406250
vt 0.531250 0.476562
vt 0.531250 0.484375
vt 0.539062 0.484375
vt 0.539062 0.476562
vt 0.539062 0.476562
vt 0.531250 0.476562
vt 0.531250 0.484375
vt 0.539062 0.476562
vt 0.539062 0.484375
vt 0.531250 0.484375
vt 0.531250 0.476562
vt 0.539062 0.484375
vt 0.531250 0.484375
vt 0.531250 0.476562
vt 0.531250 0.484375
vt 0.539062 0.484375
vt 0.539062 0.476562
vt 0.531250 0.476562
vt 0.539062 0.484375
vt 0.531250 0.476562
vt 0.539062 0.476562
vn 0.0000 -1.0000 0.0000
vn 1.0000 0.0000 0.0000
vn 0.0000 0.0000 -1.0000
vn 0.0000 1.0000 0.0000
vn 0.0000 0.0000 1.0000
vn -1.0000 0.0000 -0.0000
vn 0.0000 0.0001 -1.0000
usemtl extractor
s off
f 54/1/1 62/2/1 60/3/1 53/4/1
f 52/5/1 5/6/1 56/7/1 58/8/1
f 55/9/1 64/10/1 62/2/1 54/1/1
f 52/11/1 58/12/1 64/13/1 55/14/1
f 31/15/2 30/16/2 34/17/2 33/18/2
f 12/19/3 11/20/3 22/21/3 24/22/3
f 24/23/4 22/24/4 28/25/4 29/26/4
f 21/27/2 12/28/2 24/29/2 29/30/2
f 21/31/5 29/32/5 30/33/5 31/34/5
f 28/35/5 37/36/5 30/37/5 29/32/5
f 25/38/2 14/39/2 17/40/2 27/41/2
f 16/42/6 15/43/6 23/44/6 26/45/6
f 11/46/6 20/47/6 28/48/6 22/49/6
f 23/50/5 15/51/5 14/52/5 25/53/5
f 25/54/4 27/55/4 26/56/4 23/57/4
f 37/58/6 32/59/6 36/60/6 35/61/6
f 33/62/1 36/60/1 32/59/1 31/63/1
f 43/64/2 55/65/2 54/66/2 42/67/2
f 19/68/6 49/69/6 47/70/6 13/71/6
f 52/72/2 40/73/2 6/74/2 5/75/2
f 13/76/6 47/77/6 45/78/6 9/79/6
f 43/80/2 40/73/2 52/72/2 55/81/2
f 18/82/6 48/83/6 49/84/6 19/85/6
f 41/86/2 42/87/2 54/88/2 53/89/2
f 53/4/1 60/3/1 50/90/1 7/91/1
f 60/3/1 57/92/1 51/93/1 50/90/1
f 63/94/1 57/92/1 60/3/1 62/2/1
f 61/95/1 63/96/1 62/97/1 64/98/1
f 64/10/1 58/8/1 59/99/1 61/100/1
f 46/101/1 59/99/1 58/8/1 56/7/1
f 45/102/1 59/103/1 46/104/1 1/105/1
f 47/106/1 61/100/1 59/99/1 45/107/1
f 49/108/1 63/94/1 61/100/1 47/106/1
f 48/109/1 57/92/1 63/94/1 49/108/1
f 48/110/1 3/111/1 51/112/1 57/113/1
f 45/114/6 1/115/6 2/116/6 9/117/6
f 2/118/5 1/119/5 46/120/5 10/121/5
f 44/122/5 10/123/5 46/124/5 56/125/5
f 56/126/5 5/127/5 6/128/5 44/129/5
f 8/130/2 41/86/2 53/89/2 7/131/2
f 7/132/3 50/133/3 38/134/3 8/135/3
f 39/136/3 38/134/3 50/133/3 51/137/3
f 4/138/6 3/139/6 48/140/6 18/141/6
f 4/142/3 39/136/3 51/137/3 3/143/3
f 4/144/4 18/145/4 11/146/4 39/147/4
f 12/148/4 38/149/4 39/150/4 11/151/4
f 8/152/4 38/153/4 12/154/4 41/155/4
f 21/156/4 42/157/4 41/158/4 12/159/4
f 42/160/4 21/161/4 17/162/4 43/163/4
f 14/164/4 40/165/4 43/166/4 17/167/4
f 14/168/4 44/169/4 6/170/4 40/171/4
f 14/164/4 15/172/4 10/173/4 44/174/4
f 10/175/4 15/176/4 9/177/4 2/178/4
f 15/172/4 16/179/4 13/180/4 9/181/4
f 16/179/4 20/182/4 19/183/4 13/180/4
f 19/183/4 20/182/4 11/184/4 18/185/4
f 37/186/4 35/187/4 34/17/4 30/16/4
f 20/182/4 16/179/4 17/167/4 21/156/4
f 28/188/5 20/189/5 32/190/5 37/191/5
f 20/192/5 21/193/5 31/194/5 32/190/5
f 16/195/7 36/196/7 33/197/7 17/198/7
f 26/199/3 35/200/3 36/201/3 16/195/3
f 26/202/3 27/203/3 34/204/3 35/205/3
f 17/206/3 33/197/3 34/207/3 27/208/3
