# Blender v2.78 (sub 5) OBJ File: 'extractor1.blend'
# www.blender.org
mtllib shaftgear.mtl
o shaftgear
v 0.423439 2.412253 0.124007
v 0.574392 2.413384 0.124096
v 0.650847 2.283221 0.124141
v 0.576350 2.151927 0.124097
v 0.425398 2.150796 0.124008
v 0.348942 2.280959 0.123963
v 0.308210 2.532335 -0.003285
v 0.308136 2.532335 0.123939
v 0.379512 2.573439 -0.003285
v 0.379438 2.573439 0.123981
v 0.435031 2.777855 -0.003285
v 0.434957 2.777855 0.124014
v 0.565557 2.777770 -0.003285
v 0.565483 2.777770 0.124091
v 0.620808 2.573280 -0.000876
v 0.620734 2.573280 0.124124
v 0.692056 2.532083 -0.003285
v 0.691982 2.532083 0.124166
v 0.896845 2.586210 -0.003285
v 0.896771 2.586210 0.124287
v 0.962034 2.473129 -0.003285
v 0.961960 2.473129 0.124326
v 0.812567 2.323036 -0.003285
v 0.812492 2.323036 0.124237
v 0.812512 2.240734 -0.003285
v 0.812438 2.240734 0.124237
v 0.961783 2.090445 -0.003285
v 0.961709 2.090445 0.124326
v 0.896446 1.977449 -0.003285
v 0.896372 1.977449 0.124287
v 0.691727 2.031845 -0.003285
v 0.691653 2.031845 0.124166
v 0.620425 1.990741 -0.003285
v 0.620351 1.990741 0.124124
v 0.564907 1.786325 -0.003285
v 0.564833 1.786325 0.124091
v 0.434380 1.786410 -0.003285
v 0.434306 1.786410 0.124013
v 0.379130 1.990900 -0.003285
v 0.379056 1.990900 0.123981
v 0.307882 2.032097 -0.003285
v 0.307808 2.032097 0.123939
v 0.103092 1.977970 -0.003285
v 0.103018 1.977970 0.123817
v 0.037903 2.091052 -0.003285
v 0.037830 2.091052 0.123779
v 0.187371 2.241144 -0.003285
v 0.187297 2.241144 0.123867
v 0.187425 2.323446 -0.003285
v 0.187351 2.323446 0.123867
v 0.038155 2.473735 -0.003285
v 0.038081 2.473735 0.123779
v 0.103492 2.586731 -0.003285
v 0.103418 2.586731 0.123818
v 0.466518 2.338913 0.124032
v 0.532416 2.339407 0.124071
v 0.565794 2.282584 0.124091
v 0.533272 2.225267 0.124072
v 0.467373 2.224773 0.124033
v 0.433996 2.281596 0.124013
v 0.466518 2.338913 0.396715
v 0.532416 2.339407 0.396715
v 0.565793 2.282584 0.396715
v 0.533271 2.225267 0.396715
v 0.467373 2.224773 0.396715
v 0.433996 2.281596 0.396715
v 0.466518 2.338913 0.596715
v 0.532416 2.339407 0.596715
v 0.565793 2.282584 0.596715
v 0.533271 2.225267 0.596715
v 0.467373 2.224773 0.596715
v 0.433996 2.281597 0.596715
v 0.466518 2.338914 1.034765
v 0.532416 2.339407 1.034804
v 0.565793 2.282584 1.034824
v 0.533271 2.225267 1.034805
v 0.467373 2.224774 1.034765
v 0.433996 2.281597 1.034745
v 0.533271 2.282337 0.396715
v 0.466534 2.281843 0.396715
v 0.534391 2.282337 0.596715
v 0.466533 2.281843 0.596715
v 0.533271 2.225267 0.546715
v 0.467373 2.224773 0.546715
v 0.534391 2.282337 0.546715
v 0.466533 2.281843 0.546715
v 0.466533 2.281843 0.446715
v 0.534390 2.282337 0.446715
v 0.467373 2.224773 0.446715
v 0.533271 2.225267 0.446715
v 0.533271 1.980247 0.446715
v 0.467373 1.979753 0.446715
v 0.533271 1.980247 0.546715
v 0.467373 1.979753 0.546715
v 0.467373 1.979753 0.596715
v 0.533271 1.980247 0.596715
v 0.467373 1.979753 0.396715
v 0.533271 1.980247 0.396715
v 0.533271 1.925267 0.446715
v 0.467373 1.924774 0.446715
v 0.533271 1.925267 0.546715
v 0.467373 1.924774 0.546715
v 0.499996 2.323241 -0.003285
v 0.499942 2.240939 -0.003285
vt 0.085938 0.148438
vt 0.078125 0.164062
vt 0.054688 0.164062
vt 0.046875 0.148438
vt 0.093750 0.156250
vt 0.117188 0.156250
vt 0.117188 0.171875
vt 0.093750 0.171875
vt 0.093750 0.179688
vt 0.117188 0.179688
vt 0.117188 0.218750
vt 0.093750 0.218750
vt 0.093750 0.226562
vt 0.117188 0.226562
vt 0.117188 0.250000
vt 0.093750 0.250000
vt 0.093750 0.179688
vt 0.117188 0.179688
vt 0.117188 0.218750
vt 0.093750 0.218750
vt 0.093750 0.171875
vt 0.117188 0.171875
vt 0.117188 0.156250
vt 0.093750 0.156250
vt 0.117188 0.218750
vt 0.093750 0.218750
vt 0.093750 0.179688
vt 0.117188 0.179688
vt 0.093750 0.226562
vt 0.117188 0.226562
vt 0.117188 0.250000
vt 0.093750 0.250000
vt 0.093750 0.179688
vt 0.117188 0.179688
vt 0.117188 0.218750
vt 0.093750 0.218750
vt 0.093750 0.156250
vt 0.117188 0.156250
vt 0.117188 0.171875
vt 0.093750 0.171875
vt 0.093750 0.179688
vt 0.117188 0.179688
vt 0.117188 0.218750
vt 0.093750 0.218750
vt 0.093750 0.226562
vt 0.117188 0.226562
vt 0.117188 0.250000
vt 0.093750 0.250000
vt 0.117188 0.218750
vt 0.093750 0.218750
vt 0.093750 0.179688
vt 0.117188 0.179688
vt 0.117188 0.171875
vt 0.093750 0.171875
vt 0.093750 0.156250
vt 0.117188 0.156250
vt 0.117188 0.218750
vt 0.093750 0.218750
vt 0.093750 0.179688
vt 0.117188 0.179688
vt 0.093750 0.226562
vt 0.117188 0.226562
vt 0.117188 0.250000
vt 0.093750 0.250000
vt 0.093750 0.179688
vt 0.117188 0.179688
vt 0.117188 0.218750
vt 0.093750 0.218750
vt 0.093750 0.156250
vt 0.117188 0.156250
vt 0.117188 0.171875
vt 0.093750 0.171875
vt 0.117188 0.218750
vt 0.093750 0.218750
vt 0.093750 0.179688
vt 0.117188 0.179688
vt 0.093750 0.226562
vt 0.117188 0.226562
vt 0.117188 0.250000
vt 0.093750 0.250000
vt 0.093750 0.179688
vt 0.117188 0.179688
vt 0.117188 0.218750
vt 0.093750 0.218750
vt 0.093750 0.156250
vt 0.117188 0.156250
vt 0.117188 0.171875
vt 0.093750 0.171875
vt 0.093750 0.179688
vt 0.117188 0.179688
vt 0.117188 0.218750
vt 0.093750 0.218750
vt 0.054688 0.250000
vt 0.046875 0.210938
vt 0.085938 0.210938
vt 0.078125 0.250000
vt 0.093750 0.226562
vt 0.117188 0.226562
vt 0.117188 0.250000
vt 0.093750 0.250000
vt 0.093750 0.179688
vt 0.117188 0.179688
vt 0.117188 0.218750
vt 0.093750 0.218750
vt 0.015625 0.203125
vt 0.031250 0.203125
vt 0.023438 0.171875
vt 0.054688 0.171875
vt 0.046875 0.203125
vt 0.085938 0.203125
vt 0.078125 0.171875
vt 0.015625 0.203125
vt 0.031250 0.203125
vt 0.023438 0.171875
vt 0.054688 0.250000
vt 0.046875 0.210938
vt 0.085938 0.210938
vt 0.078125 0.250000
vt 0.078125 0.171875
vt 0.085938 0.203125
vt 0.046875 0.203125
vt 0.031250 0.203125
vt 0.015625 0.203125
vt 0.023438 0.171875
vt 0.078125 0.171875
vt 0.085938 0.203125
vt 0.046875 0.203125
vt 0.054688 0.171875
vt 0.054688 0.250000
vt 0.046875 0.210938
vt 0.085938 0.210938
vt 0.078125 0.250000
vt 0.031250 0.203125
vt 0.015625 0.203125
vt 0.023438 0.171875
vt 0.078125 0.171875
vt 0.085938 0.203125
vt 0.046875 0.203125
vt 0.054688 0.171875
vt 0.054688 0.250000
vt 0.046875 0.210938
vt 0.085938 0.210938
vt 0.078125 0.250000
vt 0.031250 0.203125
vt 0.015625 0.203125
vt 0.023438 0.171875
vt 0.078125 0.171875
vt 0.085938 0.203125
vt 0.046875 0.203125
vt 0.054688 0.171875
vt 0.054688 0.250000
vt 0.046875 0.210938
vt 0.085938 0.210938
vt 0.078125 0.250000
vt 0.031250 0.203125
vt 0.015625 0.203125
vt 0.023438 0.171875
vt 0.085938 0.203125
vt 0.046875 0.203125
vt 0.054688 0.171875
vt 0.054688 0.250000
vt 0.046875 0.210938
vt 0.085938 0.210938
vt 0.078125 0.250000
vt 0.085938 0.148438
vt 0.078125 0.164062
vt 0.054688 0.164062
vt 0.046875 0.148438
vt 0.046875 0.148438
vt 0.054688 0.164062
vt 0.078125 0.164062
vt 0.085938 0.148438
vt 0.085938 0.148438
vt 0.078125 0.164062
vt 0.085938 0.148438
vt 0.078125 0.164062
vt 0.054688 0.164062
vt 0.046875 0.148438
vt 0.054688 0.164062
vt 0.046875 0.148438
vt 0.031250 0.062500
vt 0.031250 0.015625
vt 0.046875 0.015625
vt 0.046875 0.062500
vt 0.070312 0.078125
vt 0.070312 0.093750
vt 0.054688 0.093750
vt 0.054688 0.078125
vt 0.046875 0.015625
vt 0.046875 0.062500
vt 0.031250 0.062500
vt 0.031250 0.015625
vt 0.031250 0.062500
vt 0.031250 0.015625
vt 0.046875 0.015625
vt 0.046875 0.062500
vt 0.046875 0.015625
vt 0.046875 0.062500
vt 0.031250 0.062500
vt 0.031250 0.015625
vt 0.023438 0.015625
vt 0.023438 0.085938
vt 0.007812 0.085938
vt 0.007812 0.015625
vt 0.031250 -0.000000
vt 0.039062 0.015625
vt 0.039062 -0.000000
vt 0.070312 0.015625
vt 0.054688 0.015625
vt 0.054688 0.070312
vt 0.070312 0.070312
vt 0.039062 0.015625
vt 0.046875 0.000000
vt 0.039062 0.000000
vt 0.117188 0.015625
vt 0.109375 -0.000000
vt 0.140625 -0.000000
vt 0.132812 0.015625
vt 0.023438 0.015625
vt 0.023438 0.085938
vt 0.007812 0.085938
vt 0.007812 0.015625
vt 0.023438 0.015625
vt 0.023438 0.085938
vt 0.007812 0.085938
vt 0.007812 0.015625
vt 0.023438 0.015625
vt 0.023438 0.085938
vt 0.007812 0.085938
vt 0.007812 0.015625
vt 0.023438 0.015625
vt 0.023438 0.085938
vt 0.007812 0.085938
vt 0.007812 0.015625
vt 0.078125 0.078125
vt 0.070312 0.093750
vt 0.070312 0.078125
vt 0.039062 0.015625
vt 0.046875 -0.000000
vt 0.039062 -0.000000
vt 0.031250 0.000000
vt 0.039062 0.000000
vt 0.039062 0.015625
vt 0.039062 0.015625
vt 0.039062 0.015625
vt 0.078125 0.078125
vt 0.070312 0.093750
vt 0.070312 0.078125
vt 0.070312 0.070312
vt 0.054688 0.070312
vt 0.054688 0.015625
vt 0.070312 0.015625
vt 0.070312 0.015625
vt 0.054688 0.015625
vt 0.054688 0.070312
vt 0.070312 0.070312
vt 0.070312 0.078125
vt 0.070312 0.093750
vt 0.054688 0.093750
vt 0.054688 0.078125
vt 0.070312 0.078125
vt 0.078125 0.078125
vt 0.070312 0.093750
vt 0.070312 0.015625
vt 0.054688 0.015625
vt 0.054688 0.070312
vt 0.070312 0.070312
vt 0.070312 0.015625
vt 0.054688 0.015625
vt 0.054688 0.070312
vt 0.070312 0.070312
vt 0.078125 0.078125
vt 0.070312 0.093750
vt 0.070312 0.078125
vt 0.031250 0.062500
vt 0.031250 0.015625
vt 0.046875 0.015625
vt 0.046875 0.062500
vt 0.039062 0.015625
vt 0.046875 0.000000
vt 0.039062 0.015625
vt 0.039062 -0.000000
vt 0.031250 -0.000000
vt 0.070312 0.015625
vt 0.054688 0.015625
vt 0.054688 0.070312
vt 0.070312 0.070312
vt 0.054688 0.015625
vt 0.054688 -0.000000
vt 0.078125 -0.000000
vt 0.078125 0.015625
vt 0.070312 0.070312
vt 0.054688 0.070312
vt 0.054688 0.015625
vt 0.070312 0.015625
vt 0.070312 0.070312
vt 0.054688 0.070312
vt 0.054688 0.015625
vt 0.070312 0.015625
vt 0.078125 0.078125
vt 0.070312 0.078125
vt 0.070312 0.093750
vt 0.078125 0.078125
vt 0.070312 0.078125
vt 0.070312 0.093750
vt 0.007812 0.015625
vt 0.007812 0.085938
vt 0.023438 0.085938
vt 0.023438 0.015625
vt 0.070312 0.078125
vt 0.078125 0.078125
vt 0.070312 0.093750
vt 0.070312 0.078125
vt 0.070312 0.093750
vt 0.054688 0.093750
vt 0.054688 0.078125
vt 0.070312 0.078125
vt 0.070312 0.093750
vt 0.054688 0.093750
vt 0.054688 0.078125
vt 0.078125 0.015625
vt 0.054688 0.015625
vt 0.054688 -0.000000
vt 0.070312 0.078125
vt 0.078125 0.078125
vt 0.070312 0.093750
vt 0.046875 0.015625
vt 0.046875 0.062500
vt 0.031250 0.062500
vt 0.031250 0.015625
vt 0.054688 -0.000000
vt 0.078125 -0.000000
vt 0.078125 0.015625
vt 0.078125 -0.000000
vt 0.078125 0.015625
vt 0.054688 0.015625
vt 0.054688 -0.000000
vt 0.046875 0.070312
vt 0.046875 0.085938
vt 0.031250 0.085938
vt 0.031250 0.070312
vt 0.046875 0.085938
vt 0.031250 0.085938
vt 0.031250 0.070312
vt 0.046875 0.070312
vt 0.046875 0.085938
vt 0.031250 0.085938
vt 0.031250 0.070312
vt 0.046875 0.070312
vt 0.031250 0.070312
vt 0.046875 0.070312
vt 0.046875 0.085938
vt 0.031250 0.085938
vt 0.031250 0.070312
vt 0.031250 0.085938
vt 0.031250 0.085938
vt 0.031250 0.070312
vt 0.046875 0.070312
vt 0.046875 0.085938
vt 0.015625 0.140625
vt 0.023438 0.101562
vt 0.031250 0.140625
vt 0.039062 0.140625
vt 0.085938 0.140625
vt 0.062500 0.101562
vt 0.046875 0.210938
vt 0.085938 0.210938
vt 0.078125 0.250000
vt 0.054688 0.250000
vt 0.039062 0.140625
vt 0.062500 0.101562
vt 0.085938 0.140625
vt 0.015625 0.140625
vt 0.023438 0.101562
vt 0.031250 0.140625
vt 0.093750 0.140625
vt 0.109375 0.101562
vt 0.132812 0.140625
vt 0.015625 0.140625
vt 0.031250 0.140625
vt 0.109375 0.101562
vt 0.132812 0.140625
vt 0.093750 0.140625
vt 0.093750 0.140625
vt 0.132812 0.140625
vt 0.109375 0.101562
vt 0.140625 0.156250
vt 0.093750 0.156250
vt 0.093750 0.148438
vt 0.140625 0.148438
vt 0.015625 0.140625
vt 0.031250 0.140625
vt 0.093750 0.140625
vt 0.109375 0.101562
vt 0.132812 0.140625
vt 0.046875 0.210938
vt 0.085938 0.210938
vt 0.078125 0.250000
vt 0.054688 0.250000
vt 0.046875 0.210938
vt 0.085938 0.210938
vt 0.078125 0.250000
vt 0.054688 0.250000
vt 0.046875 0.210938
vt 0.085938 0.210938
vt 0.078125 0.250000
vt 0.054688 0.250000
vt 0.046875 0.210938
vt 0.085938 0.210938
vt 0.078125 0.250000
vt 0.054688 0.250000
vt 0.046875 0.210938
vt 0.085938 0.210938
vt 0.078125 0.250000
vt 0.054688 0.250000
vt 0.093750 0.156250
vt 0.093750 0.148438
vt 0.140625 0.148438
vt 0.140625 0.156250
vt 0.109375 -0.000000
vt 0.140625 -0.000000
vt 0.132812 0.015625
vt 0.117188 0.015625
vn -0.0006 -0.0000 1.0000
vn -0.4994 0.8664 -0.0003
vn -0.9650 0.2621 -0.0006
vn 0.0007 1.0000 0.0000
vn 0.9654 0.2608 0.0006
vn 0.5006 0.8657 0.0003
vn -0.2555 0.9668 -0.0001
vn 0.8664 0.4994 0.0005
vn 0.7086 -0.7056 0.0004
vn 1.0000 -0.0007 0.0006
vn 0.7095 0.7047 0.0004
vn 0.8657 -0.5006 0.0005
vn -0.2568 -0.9665 -0.0001
vn 0.4994 -0.8664 0.0003
vn 0.9650 -0.2621 0.0006
vn -0.0007 -1.0000 -0.0000
vn -0.9654 -0.2608 -0.0006
vn -0.5006 -0.8657 -0.0003
vn 0.2555 -0.9668 0.0001
vn -0.8664 -0.4994 -0.0005
vn -0.7086 0.7056 -0.0004
vn -1.0000 0.0007 -0.0006
vn -0.7095 -0.7047 -0.0004
vn -0.8657 0.5006 -0.0005
vn 0.2568 0.9665 0.0002
vn -0.8697 0.4935 -0.0000
vn -0.0049 0.6589 -0.7522
vn 0.8622 0.5065 0.0000
vn -0.8623 -0.5065 -0.0000
vn 0.8697 -0.4935 0.0000
vn 0.0000 0.0000 1.0000
vn 0.8623 0.5065 -0.0000
vn -0.0075 1.0000 0.0000
vn 0.9994 0.0346 0.0000
vn -0.0000 0.0000 -1.0000
vn -1.0000 -0.0003 0.0000
vn 1.0000 0.0000 0.0000
vn -0.0049 0.6589 0.7522
vn 0.9996 0.0150 -0.0224
vn -1.0000 0.0000 0.0000
vn 0.0075 -1.0000 0.0000
vn 0.0050 -0.6728 0.7398
vn 0.0050 -0.6728 -0.7398
vn 0.9999 -0.0098 -0.0112
vn 0.9998 -0.0196 0.0000
vn -0.9999 -0.0147 0.0000
vn -0.0221 0.0203 -0.9996
vn 0.0100 0.0048 -0.9999
vn 0.0065 -0.0059 -1.0000
usemtl extractor
s off
f 5/1/1 59/2/1 60/3/1 6/4/1
f 7/5/2 8/6/2 10/7/2 9/8/2
f 9/9/3 10/10/3 12/11/3 11/12/3
f 11/13/4 12/14/4 14/15/4 13/16/4
f 13/17/5 14/18/5 16/19/5 15/20/5
f 15/21/6 16/22/6 18/23/6 17/24/6
f 17/25/7 18/26/7 20/27/7 19/28/7
f 19/29/8 20/30/8 22/31/8 21/32/8
f 21/33/9 22/34/9 24/35/9 23/36/9
f 23/37/10 24/38/10 26/39/10 25/40/10
f 25/41/11 26/42/11 28/43/11 27/44/11
f 27/45/12 28/46/12 30/47/12 29/48/12
f 29/49/13 30/50/13 32/51/13 31/52/13
f 31/53/14 32/54/14 34/55/14 33/56/14
f 33/57/15 34/58/15 36/59/15 35/60/15
f 35/61/16 36/62/16 38/63/16 37/64/16
f 37/65/17 38/66/17 40/67/17 39/68/17
f 39/69/18 40/70/18 42/71/18 41/72/18
f 41/73/19 42/74/19 44/75/19 43/76/19
f 43/77/20 44/78/20 46/79/20 45/80/20
f 45/81/21 46/82/21 48/83/21 47/84/21
f 47/85/22 48/86/22 50/87/22 49/88/22
f 49/89/23 50/90/23 52/91/23 51/92/23
f 28/93/1 26/94/1 32/95/1 30/96/1
f 51/97/24 52/98/24 54/99/24 53/100/24
f 53/101/25 54/102/25 8/103/25 7/104/25
f 26/105/1 24/106/1 3/107/1
f 4/108/1 32/109/1 26/110/1 3/111/1
f 34/112/1 32/113/1 4/114/1
f 36/115/1 34/116/1 40/117/1 38/118/1
f 5/119/1 40/120/1 34/121/1 4/108/1
f 42/122/1 40/123/1 5/124/1
f 6/125/1 48/126/1 42/127/1 5/128/1
f 44/129/1 42/130/1 48/131/1 46/132/1
f 50/133/1 48/134/1 6/135/1
f 1/136/1 8/137/1 50/138/1 6/139/1
f 52/140/1 50/141/1 8/142/1 54/143/1
f 10/144/1 8/145/1 1/146/1
f 2/147/1 16/148/1 10/149/1 1/150/1
f 12/151/1 10/152/1 16/153/1 14/154/1
f 18/155/1 16/156/1 2/157/1
f 3/111/1 24/158/1 18/159/1 2/160/1
f 20/161/1 18/162/1 24/163/1 22/164/1
f 3/165/1 57/166/1 58/167/1 4/168/1
f 1/169/1 55/170/1 56/171/1 2/172/1
f 6/173/1 60/174/1 55/170/1 1/169/1
f 4/175/1 58/176/1 59/177/1 5/178/1
f 2/172/1 56/171/1 57/179/1 3/180/1
f 60/181/26 66/182/26 61/183/26 55/184/26
f 86/185/27 67/186/27 68/187/27 85/188/27
f 56/189/28 62/190/28 63/191/28 57/192/28
f 59/193/29 65/194/29 66/195/29 60/196/29
f 57/197/30 63/198/30 64/199/30 58/200/30
f 72/201/26 78/202/26 73/203/26 67/204/26
f 63/205/31 62/206/31 79/207/31
f 90/208/31 89/209/31 92/210/31 91/211/31
f 61/212/31 66/213/31 80/214/31
f 73/215/1 78/216/1 75/217/1 74/218/1
f 68/219/32 74/220/32 75/221/32 69/222/32
f 71/223/29 77/224/29 78/225/29 72/226/29
f 69/227/30 75/228/30 76/229/30 70/230/30
f 67/231/33 73/232/33 74/233/33 68/234/33
f 81/235/34 85/236/34 68/237/34
f 67/238/35 82/239/35 72/240/35
f 69/241/35 81/242/35 68/243/35
f 81/242/35 69/241/35 70/244/35
f 71/245/35 72/240/35 82/239/35
f 67/246/36 86/247/36 82/248/36
f 84/249/35 83/250/35 93/251/35 94/252/35
f 64/253/37 90/254/37 91/255/37 98/256/37
f 61/257/38 87/258/38 88/259/38 62/260/38
f 80/261/36 87/262/36 61/263/36
f 70/264/31 71/265/31 95/266/31 96/267/31
f 65/268/35 64/269/35 98/270/35 97/271/35
f 62/272/39 88/273/39 79/274/39
f 55/275/33 61/276/33 62/277/33 56/278/33
f 66/279/31 65/280/31 80/214/31
f 64/281/31 63/282/31 79/283/31
f 83/284/37 70/285/37 96/286/37 93/287/37
f 92/288/33 94/289/33 93/290/33 91/291/33
f 71/292/40 84/293/40 94/294/40 95/295/40
f 89/296/40 65/297/40 97/298/40 92/299/40
f 93/300/37 96/301/37 101/302/37
f 92/303/40 97/304/40 100/305/40
f 77/306/41 71/307/41 70/308/41 76/309/41
f 91/310/37 99/311/37 98/312/37
f 95/313/42 102/314/42 101/315/42 96/316/42
f 98/317/43 99/318/43 100/319/43 97/320/43
f 93/290/37 101/321/37 99/322/37 91/323/37
f 94/324/40 102/325/40 95/326/40
f 58/327/41 64/328/41 65/329/41 59/330/41
f 100/331/40 102/332/40 94/333/40 92/288/40
f 100/334/41 99/335/41 101/336/41 102/337/41
f 88/338/44 90/339/44 64/340/44 79/341/44
f 70/342/45 83/343/45 85/344/45 81/345/45
f 82/346/46 86/347/46 84/348/46 71/349/46
f 65/350/46 89/351/46 87/352/46 80/353/46
f 87/354/31 89/355/31 90/339/31 88/338/31
f 85/356/35 83/357/35 84/358/35 86/359/35
f 9/360/35 103/361/35 7/362/35
f 103/363/35 49/364/35 7/365/35
f 7/366/35 49/367/35 51/368/35 53/369/35
f 104/370/35 41/371/35 47/372/35
f 41/373/35 104/374/35 39/375/35
f 39/376/35 104/377/35 33/378/35
f 33/379/35 104/374/35 31/380/35
f 31/381/35 104/382/35 25/383/35
f 23/384/35 103/385/35 17/386/35
f 25/387/35 104/388/35 103/389/35 23/390/35
f 17/391/47 103/361/47 15/392/47
f 15/393/48 103/394/48 9/395/48
f 15/396/49 9/397/49 11/398/49 13/399/49
f 23/400/35 17/401/35 19/402/35 21/403/35
f 31/404/35 25/405/35 27/406/35 29/407/35
f 39/408/35 33/409/35 35/410/35 37/411/35
f 47/412/35 41/413/35 43/414/35 45/415/35
f 103/416/35 104/417/35 47/418/35 49/419/35
f 75/420/1 78/421/1 77/422/1 76/423/1
