# Blender v2.78 (sub 5) OBJ File: ''
# www.blender.org
mtllib topgear.mtl
o topgear
v 0.498379 2.778230 0.349998
v 0.629094 2.778230 0.425506
v 0.629060 2.778230 0.576463
v 0.629060 2.800000 0.576463
v 0.498311 2.778230 0.651912
v 0.498311 2.800000 0.651912
v 0.367596 2.778230 0.576404
v 0.367596 2.800000 0.576404
v 0.367630 2.778230 0.425447
v 0.367630 2.800000 0.425447
v 0.459814 2.640193 0.188051
v 0.459814 2.778230 0.188051
v 0.542112 2.640193 0.188740
v 0.542112 2.778230 0.188740
v 0.693549 2.640193 0.040634
v 0.693549 2.778230 0.040634
v 0.806037 2.640193 0.106842
v 0.806037 2.778230 0.106842
v 0.750062 2.640193 0.311134
v 0.750062 2.778230 0.311134
v 0.790615 2.640193 0.382751
v 0.790615 2.778230 0.382751
v 0.994596 2.640193 0.439846
v 0.994596 2.778230 0.439846
v 0.993503 2.640193 0.570368
v 0.993503 2.778230 0.570368
v 0.788594 2.640193 0.624038
v 0.788594 2.778230 0.624038
v 0.746848 2.640193 0.694966
v 0.746848 2.778230 0.694966
v 0.799393 2.640193 0.900167
v 0.799393 2.778230 0.900167
v 0.685811 2.640193 0.964481
v 0.685811 2.778230 0.964481
v 0.536876 2.640193 0.813859
v 0.536876 2.778230 0.813859
v 0.454578 2.640193 0.813170
v 0.454578 2.778230 0.813170
v 0.303141 2.640193 0.961276
v 0.303141 2.778230 0.961276
v 0.190653 2.640193 0.895069
v 0.190653 2.778230 0.895069
v 0.246627 2.640193 0.690776
v 0.246627 2.778230 0.690776
v 0.206075 2.640193 0.619159
v 0.206075 2.778230 0.619159
v 0.002093 2.640193 0.562064
v 0.002093 2.778230 0.562064
v 0.003186 2.640193 0.431542
v 0.003186 2.778230 0.431542
v 0.208096 2.640193 0.377872
v 0.208096 2.778230 0.377872
v 0.249842 2.640193 0.306944
v 0.249842 2.778230 0.306944
v 0.197297 2.640193 0.101743
v 0.197297 2.778230 0.101743
v 0.310879 2.640193 0.037429
v 0.310879 2.778230 0.037429
v 0.367596 2.999089 0.576404
v 0.367630 2.999089 0.425447
v 0.498379 2.999089 0.349998
v 0.498311 2.999089 0.651912
v 0.629094 2.999089 0.425506
v 0.629060 2.999089 0.576463
v 0.498379 2.800000 0.349998
v 0.629094 2.800000 0.425506
v -1.001312 2.800000 0.425447
v -1.001705 2.800000 0.576404
v -1.001312 2.999089 0.425447
v -1.001705 2.999089 0.576404
v 1.998395 2.800000 0.425506
v 1.998395 2.999089 0.425506
v 1.998002 2.800000 0.576463
v 1.998002 2.999089 0.576463
v 0.457196 2.640193 0.500610
v 0.539494 2.640193 0.501300
vt 0.085938 0.328125
vt 0.085938 0.335938
vt 0.054688 0.335938
vt 0.054688 0.328125
vt 0.085938 0.328125
vt 0.085938 0.335938
vt 0.054688 0.335938
vt 0.054688 0.328125
vt 0.085938 0.328125
vt 0.085938 0.335938
vt 0.054688 0.335938
vt 0.054688 0.328125
vt 0.210938 0.320312
vt 0.210938 0.343750
vt 0.195312 0.343750
vt 0.195312 0.320312
vt 0.226562 0.351562
vt 0.226562 0.375000
vt 0.195312 0.375000
vt 0.195312 0.351562
vt 0.171875 0.351562
vt 0.171875 0.375000
vt 0.148438 0.375000
vt 0.148438 0.351562
vt 0.226562 0.351562
vt 0.226562 0.375000
vt 0.195312 0.375000
vt 0.195312 0.351562
vt 0.195312 0.343750
vt 0.195312 0.320312
vt 0.210938 0.320312
vt 0.210938 0.343750
vt 0.195312 0.375000
vt 0.195312 0.351562
vt 0.226562 0.351562
vt 0.226562 0.375000
vt 0.171875 0.351562
vt 0.171875 0.375000
vt 0.148438 0.375000
vt 0.148438 0.351562
vt 0.226562 0.351562
vt 0.226562 0.375000
vt 0.195312 0.375000
vt 0.195312 0.351562
vt 0.210938 0.320312
vt 0.210938 0.343750
vt 0.195312 0.343750
vt 0.195312 0.320312
vt 0.226562 0.351562
vt 0.226562 0.375000
vt 0.195312 0.375000
vt 0.195312 0.351562
vt 0.171875 0.351562
vt 0.171875 0.375000
vt 0.148438 0.375000
vt 0.148438 0.351562
vt 0.226562 0.351562
vt 0.226562 0.375000
vt 0.195312 0.375000
vt 0.195312 0.351562
vt 0.210938 0.320312
vt 0.210938 0.343750
vt 0.195312 0.343750
vt 0.195312 0.320312
vt 0.226562 0.351562
vt 0.226562 0.375000
vt 0.195312 0.375000
vt 0.195312 0.351562
vt 0.171875 0.351562
vt 0.171875 0.375000
vt 0.148438 0.375000
vt 0.148438 0.351562
vt 0.226562 0.351562
vt 0.226562 0.375000
vt 0.195312 0.375000
vt 0.195312 0.351562
vt 0.210938 0.343750
vt 0.210938 0.320312
vt 0.195312 0.320312
vt 0.195312 0.343750
vt 0.195312 0.375000
vt 0.195312 0.351562
vt 0.226562 0.351562
vt 0.226562 0.375000
vt 0.171875 0.351562
vt 0.171875 0.375000
vt 0.148438 0.375000
vt 0.148438 0.351562
vt 0.226562 0.351562
vt 0.226562 0.375000
vt 0.195312 0.375000
vt 0.195312 0.351562
vt 0.210938 0.320312
vt 0.210938 0.343750
vt 0.195312 0.343750
vt 0.195312 0.320312
vt 0.226562 0.351562
vt 0.226562 0.375000
vt 0.195312 0.375000
vt 0.195312 0.351562
vt 0.328125 0.382812
vt 0.335938 0.359375
vt 0.289062 0.359375
vt 0.304688 0.382812
vt 0.148438 0.351562
vt 0.148438 0.375000
vt 0.171875 0.375000
vt 0.171875 0.351562
vt 0.226562 0.351562
vt 0.226562 0.375000
vt 0.195312 0.375000
vt 0.195312 0.351562
vt 0.312500 0.406250
vt 0.328125 0.406250
vt 0.320312 0.429688
vt 0.328125 0.351562
vt 0.335938 0.328125
vt 0.289062 0.328125
vt 0.304688 0.351562
vt 0.328125 0.406250
vt 0.312500 0.406250
vt 0.320312 0.429688
vt 0.304688 0.382812
vt 0.289062 0.359375
vt 0.335938 0.359375
vt 0.328125 0.382812
vt 0.304688 0.351562
vt 0.289062 0.328125
vt 0.335938 0.328125
vt 0.312500 0.406250
vt 0.328125 0.406250
vt 0.320312 0.429688
vt 0.304688 0.382812
vt 0.289062 0.359375
vt 0.335938 0.359375
vt 0.328125 0.382812
vt 0.304688 0.382812
vt 0.289062 0.359375
vt 0.335938 0.359375
vt 0.328125 0.382812
vt 0.312500 0.406250
vt 0.328125 0.406250
vt 0.320312 0.429688
vt 0.304688 0.351562
vt 0.289062 0.328125
vt 0.335938 0.328125
vt 0.328125 0.351562
vt 0.304688 0.382812
vt 0.289062 0.359375
vt 0.335938 0.359375
vt 0.328125 0.382812
vt 0.328125 0.406250
vt 0.312500 0.406250
vt 0.320312 0.429688
vt 0.304688 0.351562
vt 0.289062 0.328125
vt 0.335938 0.328125
vt 0.328125 0.351562
vt 0.304688 0.382812
vt 0.289062 0.359375
vt 0.335938 0.359375
vt 0.328125 0.382812
vt 0.328125 0.406250
vt 0.312500 0.406250
vt 0.320312 0.429688
vt 0.289062 0.328125
vt 0.335938 0.328125
vt 0.328125 0.351562
vt 0.304688 0.382812
vt 0.289062 0.359375
vt 0.335938 0.359375
vt 0.328125 0.382812
vt 0.187500 0.296875
vt 0.187500 0.320312
vt 0.000000 0.320312
vt 0.000000 0.296875
vt 0.453125 0.320312
vt 0.429688 0.320312
vt 0.429688 0.296875
vt 0.453125 0.296875
vt 0.453125 0.296875
vt 0.453125 0.320312
vt 0.429688 0.320312
vt 0.429688 0.296875
vt 0.187500 0.296875
vt 0.187500 0.320312
vt 0.000000 0.320312
vt 0.000000 0.296875
vt 0.000000 0.320312
vt 0.000000 0.296875
vt 0.187500 0.296875
vt 0.187500 0.320312
vt 0.187500 0.296875
vt 0.187500 0.320312
vt 0.000000 0.320312
vt 0.000000 0.296875
vt 0.000000 0.320312
vt 0.000000 0.296875
vt 0.187500 0.296875
vt 0.187500 0.320312
vt 0.187500 0.296875
vt 0.187500 0.320312
vt 0.000000 0.320312
vt 0.000000 0.296875
vt 0.000000 0.320312
vt 0.000000 0.296875
vt 0.187500 0.296875
vt 0.187500 0.320312
vt 0.210938 0.414062
vt 0.195312 0.382812
vt 0.226562 0.382812
vt 0.210938 0.414062
vt 0.195312 0.382812
vt 0.226562 0.382812
vt 0.062500 0.359375
vt 0.023438 0.359375
vt 0.023438 0.343750
vt 0.062500 0.343750
vt 0.195312 0.382812
vt 0.226562 0.382812
vt 0.312500 0.406250
vt 0.320312 0.429688
vt 0.328125 0.406250
vt 0.195312 0.382812
vt 0.226562 0.382812
vt 0.289062 0.359375
vt 0.335938 0.359375
vt 0.328125 0.382812
vt 0.304688 0.382812
vt 0.312500 0.406250
vt 0.328125 0.406250
vt 0.289062 0.359375
vt 0.335938 0.359375
vt 0.328125 0.382812
vt 0.304688 0.382812
vt 0.289062 0.359375
vt 0.335938 0.359375
vt 0.328125 0.382812
vt 0.304688 0.382812
vt 0.289062 0.359375
vt 0.335938 0.359375
vt 0.328125 0.382812
vt 0.304688 0.382812
vt 0.320312 0.429688
vt 0.328125 0.406250
vt 0.312500 0.406250
vt 0.195312 0.382812
vt 0.226562 0.382812
vt 0.289062 0.359375
vt 0.335938 0.359375
vt 0.328125 0.382812
vt 0.304688 0.382812
vt 0.312500 0.406250
vt 0.328125 0.406250
vt 0.195312 0.382812
vt 0.226562 0.382812
vt 0.289062 0.359375
vt 0.335938 0.359375
vt 0.328125 0.382812
vt 0.304688 0.382812
vt 0.062500 0.343750
vt 0.062500 0.359375
vt 0.023438 0.359375
vt 0.023438 0.343750
vt 0.000000 0.320312
vt 0.000000 0.296875
vt 0.187500 0.296875
vt 0.187500 0.320312
vt 0.390625 0.320312
vt 0.390625 0.304688
vt 0.414062 0.296875
vt 0.414062 0.328125
vt 0.085938 0.328125
vt 0.054688 0.328125
vt 0.054688 0.335938
vt 0.085938 0.335938
vt 0.054688 0.328125
vt 0.085938 0.328125
vt 0.085938 0.335938
vt 0.054688 0.335938
vt 0.101562 0.343750
vt 0.125000 0.343750
vt 0.125000 0.375000
vt 0.101562 0.375000
vt 0.125000 0.343750
vt 0.125000 0.375000
vt 0.101562 0.375000
vt 0.101562 0.343750
vt 0.101562 0.343750
vt 0.125000 0.343750
vt 0.125000 0.375000
vt 0.101562 0.375000
vt 0.125000 0.343750
vt 0.125000 0.375000
vt 0.390625 0.304688
vt 0.414062 0.296875
vt 0.414062 0.328125
vt 0.390625 0.320312
vt 0.085938 0.328125
vt 0.085938 0.335938
vt 0.054688 0.335938
vt 0.054688 0.328125
vn 0.4998 0.0000 0.8661
vn -0.5002 0.0000 0.8659
vn -1.0000 0.0000 -0.0002
vn 0.0084 0.0000 -1.0000
vn -0.6992 0.0000 -0.7149
vn 0.5072 0.0000 -0.8618
vn 0.9645 0.0000 0.2643
vn 0.8702 0.0000 -0.4927
vn 0.2695 0.0000 -0.9630
vn 1.0000 0.0000 0.0084
vn 0.2534 0.0000 0.9674
vn 0.8618 0.0000 0.5072
vn 0.9687 0.0000 -0.2481
vn 0.4927 0.0000 0.8702
vn -0.7111 0.0000 0.7031
vn -0.0084 0.0000 1.0000
vn 0.6992 0.0000 0.7149
vn -0.5072 0.0000 0.8618
vn -0.9645 0.0000 -0.2643
vn -0.8702 0.0000 0.4927
vn -0.2695 0.0000 0.9630
vn -1.0000 0.0000 -0.0084
vn -0.2534 0.0000 -0.9674
vn -0.8618 0.0000 -0.5072
vn -0.9687 0.0000 0.2481
vn 0.0000 1.0000 0.0000
vn -0.4927 0.0000 -0.8702
vn 0.7111 0.0000 -0.7031
vn 0.0000 -1.0000 0.0000
vn -1.0000 0.0000 -0.0026
vn 1.0000 0.0000 0.0026
vn 0.0000 0.0000 1.0000
vn 0.0000 0.0000 -1.0000
vn -0.4998 0.0000 -0.8661
vn 0.5002 0.0000 -0.8659
vn 1.0000 0.0000 0.0002
usemtl Material.001
s off
f 3/1/1 4/2/1 6/3/1 5/4/1
f 5/5/2 6/6/2 8/7/2 7/8/2
f 7/9/3 8/10/3 10/11/3 9/12/3
f 11/13/4 12/14/4 14/15/4 13/16/4
f 13/17/5 14/18/5 16/19/5 15/20/5
f 15/21/6 16/22/6 18/23/6 17/24/6
f 17/25/7 18/26/7 20/27/7 19/28/7
f 19/29/8 20/30/8 22/31/8 21/32/8
f 21/33/9 22/34/9 24/35/9 23/36/9
f 23/37/10 24/38/10 26/39/10 25/40/10
f 25/41/11 26/42/11 28/43/11 27/44/11
f 27/45/12 28/46/12 30/47/12 29/48/12
f 29/49/13 30/50/13 32/51/13 31/52/13
f 31/53/14 32/54/14 34/55/14 33/56/14
f 33/57/15 34/58/15 36/59/15 35/60/15
f 35/61/16 36/62/16 38/63/16 37/64/16
f 37/65/17 38/66/17 40/67/17 39/68/17
f 39/69/18 40/70/18 42/71/18 41/72/18
f 41/73/19 42/74/19 44/75/19 43/76/19
f 43/77/20 44/78/20 46/79/20 45/80/20
f 45/81/21 46/82/21 48/83/21 47/84/21
f 47/85/22 48/86/22 50/87/22 49/88/22
f 49/89/23 50/90/23 52/91/23 51/92/23
f 51/93/24 52/94/24 54/95/24 53/96/24
f 53/97/25 54/98/25 56/99/25 55/100/25
f 32/101/26 30/102/26 36/103/26 34/104/26
f 55/105/27 56/106/27 58/107/27 57/108/27
f 57/109/28 58/110/28 12/111/28 11/112/28
f 30/113/26 28/114/26 3/115/26
f 5/116/26 36/117/26 30/118/26 3/119/26
f 38/120/26 36/121/26 5/122/26
f 40/123/26 38/124/26 44/125/26 42/126/26
f 7/127/26 44/128/26 38/129/26 5/116/26
f 46/130/26 44/131/26 7/132/26
f 9/133/26 52/134/26 46/135/26 7/136/26
f 48/137/26 46/138/26 52/139/26 50/140/26
f 54/141/26 52/142/26 9/143/26
f 1/144/26 12/145/26 54/146/26 9/147/26
f 56/148/26 54/149/26 12/150/26 58/151/26
f 14/152/26 12/153/26 1/154/26
f 2/155/26 20/156/26 14/157/26 1/158/26
f 16/159/26 14/160/26 20/161/26 18/162/26
f 22/163/26 20/164/26 2/165/26
f 3/119/26 28/166/26 22/167/26 2/168/26
f 24/169/26 22/170/26 28/171/26 26/172/26
f 10/173/29 8/174/29 68/175/29 67/176/29
f 67/177/30 68/178/30 70/179/30 69/180/30
f 71/181/31 72/182/31 74/183/31 73/184/31
f 8/185/32 59/186/32 70/187/32 68/188/32
f 60/189/33 10/190/33 67/191/33 69/192/33
f 59/193/26 60/194/26 69/195/26 70/196/26
f 4/197/29 66/198/29 71/199/29 73/200/29
f 66/201/33 63/202/33 72/203/33 71/204/33
f 64/205/32 4/206/32 73/207/32 74/208/32
f 76/209/29 13/210/29 19/211/29
f 75/212/29 53/213/29 11/214/29
f 75/215/29 11/216/29 13/217/29 76/218/29
f 75/212/29 37/219/29 43/220/29
f 45/221/29 75/222/29 43/223/29
f 75/212/29 45/224/29 51/225/29
f 51/226/29 45/227/29 47/228/29 49/229/29
f 75/222/29 51/230/29 53/231/29
f 43/232/29 37/233/29 39/234/29 41/235/29
f 11/236/29 53/237/29 55/238/29 57/239/29
f 19/240/29 13/241/29 15/242/29 17/243/29
f 76/244/29 19/245/29 21/246/29
f 76/209/29 21/247/29 27/248/29
f 27/249/29 21/250/29 23/251/29 25/252/29
f 76/244/29 27/253/29 29/254/29
f 76/209/29 29/255/29 35/256/29
f 35/257/29 29/258/29 31/259/29 33/260/29
f 35/261/29 37/262/29 75/263/29 76/264/29
f 63/265/26 64/266/26 74/267/26 72/268/26
f 64/269/26 63/270/26 61/271/26 62/272/26
f 10/273/34 65/274/34 1/275/34 9/276/34
f 2/277/35 1/278/35 65/279/35 66/280/35
f 66/281/35 65/282/35 61/283/35 63/284/35
f 10/285/34 60/286/34 61/287/34 65/288/34
f 6/289/1 4/290/1 64/291/1 62/292/1
f 8/293/2 6/289/2 62/292/2 59/294/2
f 59/295/26 62/296/26 61/297/26 60/298/26
f 2/299/36 66/300/36 4/301/36 3/302/36
